<?xml version="1.0" standalone="no"?>
<!DOCTYPE svg PUBLIC "-//W3C//DTD SVG 1.1//EN" "http://www.w3.org/Graphics/SVG/1.1/DTD/svg11.dtd" >
<svg xmlns="http://www.w3.org/2000/svg" xmlns:xlink="http://www.w3.org/1999/xlink" version="1.1">
<metadata>
Created by FontForge 20201107 at Sat May 14 11:14:34 2022
 By Jimmy Wärting
Daniyar Shape
</metadata>
<defs>
<font id="VetrinoRegular" horiz-adv-x="686" >
  <font-face 
    font-family="Vetrino"
    font-weight="400"
    font-stretch="normal"
    units-per-em="1000"
    panose-1="0 0 0 0 0 0 0 0 0 0"
    ascent="800"
    descent="-200"
    x-height="563.075"
    cap-height="735.21"
    bbox="-87.999 -219.012 1128.06 907.298"
    underline-thickness="50"
    underline-position="-150"
    unicode-range="U+000A-F000"
  />
<missing-glyph horiz-adv-x="527" 
d="M50 700h427v-700h-427v700zM78 680l185 -309l186 309h-371zM251 350l-180 300v-601zM264 329l-185 -308h370zM276 350l181 -303v605z" />
    <glyph glyph-name=".notdef" horiz-adv-x="527" 
d="M50 700h427v-700h-427v700zM78 680l185 -309l186 309h-371zM251 350l-180 300v-601zM264 329l-185 -308h370zM276 350l181 -303v605z" />
    <glyph glyph-name=".null" horiz-adv-x="0" 
 />
    <glyph glyph-name=".null" horiz-adv-x="0" 
 />
    <glyph glyph-name="controlLF" unicode="&#xa;" horiz-adv-x="0" 
 />
    <glyph glyph-name="controlCR" unicode="&#xd;" horiz-adv-x="0" 
 />
    <glyph glyph-name="space" unicode=" " horiz-adv-x="330" 
 />
    <glyph glyph-name="exclam" unicode="!" horiz-adv-x="244" 
d="M121.928 0.0214844c-25.918 0 -46.9287 21.0107 -46.9287 46.9287s21.0107 46.9287 46.9287 46.9287s46.9287 -21.0107 46.9287 -46.9287s-21.0107 -46.9287 -46.9287 -46.9287zM153.213 203.377l-62.5713 -15.6426l-15.6426 531.852l93.8564 15.6426z" />
    <glyph glyph-name="quotedbl" unicode="&#x22;" horiz-adv-x="341" 
d="M241.151 735.489c12.457 0 24.4014 -4.95312 33.2041 -13.7676s13.7393 -20.7666 13.7227 -33.2236c0 -62.5703 -31.2852 -109.498 -93.8555 -109.498v15.6426c27.4473 0 42.9023 12.1592 46.2188 46.9902c-25.918 0.196289 -46.7695 21.3652 -46.5732 47.2832
s21.3652 46.7695 47.2832 46.5732zM100.282 735.489c12.457 0 24.4014 -4.95312 33.2041 -13.7676s13.7393 -20.7666 13.7227 -33.2236c0 -62.5703 -31.2852 -109.498 -93.8555 -109.498v15.6426c27.4473 0 42.9023 12.1592 46.2188 46.9902
c-25.918 0.196289 -46.7695 21.3652 -46.5732 47.2832s21.3652 46.7695 47.2832 46.5732z" />
    <glyph glyph-name="numbersign" unicode="#" horiz-adv-x="832" 
d="M768.005 484.945h-173.969l-27.3848 -218.998h169.984v-62.5703h-177.951l-25.4033 -203.355h-62.5703l25.4033 203.355h-203.355l-25.4033 -203.355h-62.5703l25.4033 203.355h-166.188v62.5703h174.01l27.3848 218.998h-170.109v62.5703h178.014l25.4248 203.355
h62.5703l-25.4248 -203.355h203.355l25.4248 203.355h62.5703l-25.4248 -203.355h166.209v-62.5703zM504.08 265.947l27.3848 218.998h-203.355l-27.3848 -218.998h203.355z" />
    <glyph glyph-name="dollar" unicode="$" horiz-adv-x="749" 
d="M680.065 206.506c0 -156.219 -93.8564 -202.687 -281.568 -206.148v-109.833l-93.8564 -15.6426v129.312c-185.313 20.8564 -234.64 120.97 -234.64 120.97l40.6709 46.9277s81.3418 -156.427 264.361 -156.427c142.349 0 211.177 86.0352 211.177 187.713
s-91.7705 166.501 -218.998 187.713c-93.8564 15.6426 -297.212 14.0781 -297.212 156.427c0 125.329 88.6416 175.428 234.64 185.627v111.585l93.8564 15.6426v-125.955c93.7314 -3.7334 194.783 -24.6318 250.283 -62.5703l-46.9277 -61.7578
c-58.4619 87.5986 -159.097 109.498 -234.641 109.498c-122.013 0 -203.354 -70.3926 -203.354 -172.07c0 -112.481 109.499 -125.142 218.998 -140.784c82.9893 -11.8467 297.211 -57.8779 297.211 -200.227z" />
    <glyph glyph-name="percent" unicode="%" horiz-adv-x="1036" 
d="M767.921 406.732c112.961 0 203.355 -67.7852 203.355 -203.355s-90.373 -203.355 -203.355 -203.355s-203.355 67.7852 -203.355 203.355s90.373 203.355 203.355 203.355zM790.51 11.3271c90.373 0 112.981 101.678 112.981 192.051
c0 135.57 -90.3936 192.051 -158.179 192.051c-90.373 0 -112.961 -101.678 -112.961 -192.051c0 -135.57 90.373 -192.051 158.158 -192.051zM470.71 531.874c0 -135.57 -90.3711 -203.355 -203.354 -203.355s-203.355 67.7852 -203.355 203.355
s90.3936 203.355 203.354 203.355s203.354 -67.7852 203.354 -203.355zM131.787 531.874c0 -135.57 90.3721 -192.051 158.157 -192.051c90.373 0 112.982 101.678 112.982 192.051c0 135.57 -90.3936 192.051 -158.179 192.051
c-90.373 0 -112.961 -101.678 -112.961 -192.051zM722.559 735.229h78.2139l-488.052 -732.078h-78.2139z" />
    <glyph glyph-name="ampersand" unicode="&#x26;" horiz-adv-x="799" 
d="M735.719 313.069c-15.7148 -82.0576 -55.3643 -157.627 -113.959 -217.184c65.2617 -49.8066 113.879 -80.0488 113.879 -80.0488l-15.6426 -15.6426s-48.9717 30.2842 -117.049 78.8604c-66.2715 -53.6836 -149.672 -81.6816 -234.912 -78.8604
c-203.355 0 -305.033 62.5703 -305.033 190.841c0 105.786 109.645 166.96 200.038 196.285c-45.1553 60.2139 -74.8975 120.72 -74.8975 176.012c0 109.499 86.0352 172.069 187.713 172.069c156.427 0 203.354 -93.8564 203.354 -172.07
c0 -93.8564 -125.142 -156.427 -218.998 -172.069c-7.0918 -1.16797 -14.0166 -2.60742 -20.8574 -4.17188c60.1094 -99.0078 157.136 -190.486 240.229 -257.938c71.6641 105.474 77.9209 246.487 77.9209 246.487zM282.085 563.353l0.0839844 0.000976562
c2.00098 -56.1406 18.2588 -110.849 47.2412 -158.972c5.38086 1.00098 10.5537 1.87695 15.2461 2.54395c109.499 15.6426 140.784 93.8564 140.784 156.427c0 93.8564 -15.6426 156.427 -109.499 156.427c-75.5439 0 -93.8564 -62.5703 -93.8564 -156.427zM368.12 15.8594
h0.0820312c75.9785 -1.89062 148.391 32.1973 195.347 91.958c-92.6465 68.6611 -206.441 162.518 -284.384 258.939c-77.6924 -35.957 -122.222 -101.156 -122.222 -178.827c0 -101.678 68.8281 -172.07 211.177 -172.07z" />
    <glyph glyph-name="parenleft" unicode="(" horiz-adv-x="338" 
d="M167.856 297.233c0 -348.311 140.784 -484.925 140.784 -484.925l-46.9277 -15.6426s-187.712 152.339 -187.712 500.566s187.712 484.924 187.712 484.924l46.9277 15.6426s-140.784 -261.17 -140.784 -500.565z" />
    <glyph glyph-name="parenright" unicode=")" horiz-adv-x="333" 
d="M70.9277 797.799c0 0 187.712 -152.339 187.712 -500.566s-187.712 -484.924 -187.712 -484.924l-46.9277 -15.6426s140.784 261.171 140.784 500.566c0 348.228 -140.784 484.924 -140.784 484.924z" />
    <glyph glyph-name="asterisk" unicode="*" horiz-adv-x="515" 
d="M456.16 655.492l-126.371 -60.5684l99.2578 -45.8848l-19.8145 -96.9014l-115.631 79.1523l9.90723 -108.915l-93.8564 -31.2852l10.7412 139.699l-89.3721 -63.0088l-74.0215 65.6162l126.372 60.5684l-99.2793 45.8848l19.835 96.9014l115.61 -79.1523
l-9.88574 108.915l93.8564 31.2852l-10.7412 -139.699l89.3506 63.0088z" />
    <glyph glyph-name="plus" unicode="+" horiz-adv-x="580" 
d="M524.281 406.732v-62.5703h-203.355v-203.355h-62.5703v203.355h-203.355v62.5703h203.355v203.355h62.5703v-203.355h203.355z" />
    <glyph glyph-name="comma" unicode="," horiz-adv-x="189" 
d="M94.2812 93.8799c12.46 0 24.4092 -4.94922 33.209 -13.7695c8.7998 -8.80957 13.7402 -20.7695 13.7207 -33.2197c0 -62.5703 -31.2803 -109.5 -93.8506 -109.5v15.6396c27.4404 0 42.9004 12.1602 46.21 46.9902c-25.9102 0.200195 -46.7598 21.3701 -46.5693 47.2803
c0.200195 25.9199 21.3701 46.7695 47.2803 46.5791z" />
    <glyph glyph-name="hyphen" unicode="-" horiz-adv-x="368" 
d="M324.568 269.947h-281.568v62.5703h281.568v-62.5703z" />
    <glyph glyph-name="period" unicode="." horiz-adv-x="186" 
d="M92.9277 0.0214844c-25.918 0 -46.9287 21.0107 -46.9287 46.9287s21.0107 46.9287 46.9287 46.9287s46.9287 -21.0107 46.9287 -46.9287s-21.0107 -46.9287 -46.9287 -46.9287z" />
    <glyph glyph-name="slash" unicode="/" horiz-adv-x="471" 
d="M388.425 891.655l93.8564 15.6426l-375.425 -1001.13l-93.8564 -15.6426z" />
    <glyph glyph-name="zero" unicode="0" horiz-adv-x="799" 
d="M399.496 735.229c203.438 0 328.497 -109.499 328.497 -359.782s-140.784 -375.425 -328.496 -375.425c-203.355 0 -328.497 125.142 -328.497 375.425s140.784 359.782 328.496 359.782zM430.781 15.665c172.153 0 203.438 187.712 203.354 359.781
c0 250.283 -125.142 344.14 -265.926 344.14c-156.427 0 -203.354 -172.069 -203.354 -344.139c0 -250.283 125.142 -359.782 265.926 -359.782z" />
    <glyph glyph-name="one" unicode="1" horiz-adv-x="342" 
d="M167.49 719.59l93.8604 15.6396v-719.57l-93.8604 -15.6396v693.49l-99.4404 -83.4199l-10.0498 11.9697l109.49 91.8701v5.66016z" />
    <glyph glyph-name="two" unicode="2" horiz-adv-x="649" 
d="M481.353 31.2852v62.5713l93.8564 15.6426v-93.8564l-93.8564 -15.6426v15.6426h-422.353v15.6426s422.353 134.256 422.353 484.923c0 156.427 -85.8682 203.354 -203.355 203.354c-136.008 0 -187.712 -125.142 -187.712 -125.142l-20.4189 40.8379
s51.7041 99.9463 223.773 99.9463c158.325 0 281.568 -62.5703 281.568 -218.997c0 -297.211 -453.638 -484.923 -453.638 -484.923h359.782z" />
    <glyph glyph-name="three" unicode="3" horiz-adv-x="734" 
d="M354.128 469.303c172.153 0 312.938 -71.2676 312.938 -234.64s-165.396 -234.641 -344.14 -234.641c-188.755 0 -265.926 81.6963 -265.926 81.6963l20.4189 40.8379c65.0967 -65.8008 152.99 -104.069 245.507 -106.892c158.325 0 234.641 116.799 234.641 218.998
c0 134.381 -62.5703 218.997 -203.354 218.997c-62.9551 1.66895 -125.902 -3.57715 -187.712 -15.6436v15.6426l374.527 250.283h-296.397v-62.5703l-93.8564 -15.6426v93.8564l93.8564 15.6426v-15.6426h328.496v-15.6426h-3.94238l-364.579 -243.63
c49.5811 6.36426 99.5361 9.36719 149.522 8.98926z" />
    <glyph glyph-name="four" unicode="4" horiz-adv-x="654" 
d="M583.852 234.662l0.000976562 -15.6426h-31.2852v-203.355l-93.8564 -15.6426v218.998h-406.71v15.6426c172.069 93.8564 297.211 391.067 328.496 641.351l78.2139 -46.9277c-59.4844 -223.023 -175.657 -488.053 -375.05 -594.423h375.049v312.854l93.8564 15.6426
v-328.496h31.2852z" />
    <glyph glyph-name="five" unicode="5" horiz-adv-x="737" 
d="M325.926 469.303c172.153 0 344.14 -71.2676 344.14 -234.64s-165.396 -234.641 -344.14 -234.641c-188.755 0 -265.926 81.6963 -265.926 81.6963l20.4189 40.8379c65.0967 -65.8008 152.99 -104.069 245.507 -106.892c158.325 0 234.641 116.799 234.641 218.998
c0 134.381 -93.8564 218.997 -234.641 218.997c-62.9551 1.66895 -125.902 -3.57715 -187.712 -15.6436h-15.6426l46.9277 281.568h312.854l93.8564 15.6426v-93.8564l-93.8564 -15.6426v78.2139h-299.818l-41.6094 -249.657
c60.9932 11.3027 122.983 16.335 185.001 15.0176z" />
    <glyph glyph-name="six" unicode="6" horiz-adv-x="783" 
d="M399.5 469.3c182.41 0 312.849 -78.2119 312.849 -234.642c0 -156.42 -130.35 -234.64 -312.85 -234.64c-187.71 0 -328.5 93.8604 -328.5 359.78c0 281.57 187.71 375.431 359.78 375.431c203.36 0 250.29 -78.21 250.29 -78.21l-31.29 -46.9297s0 109.5 -219 109.5
c-178.89 0 -258.27 -71.25 -265.34 -321.53c56.8799 29.0498 140.2 71.2402 234.061 71.2402zM430.778 15.6582c146 0 187.721 114.719 187.721 218.999c0 156.43 -125.15 219 -234.641 219c-82.29 2.11035 -161.71 -30.3096 -219 -89.4092v-4.4502
c0 -297.21 140.78 -344.14 265.92 -344.14z" />
    <glyph glyph-name="seven" unicode="7" horiz-adv-x="684" 
d="M633.779 719.586l-231.929 -484.925h44.2168v-15.6426h-51.7041l-104.723 -218.998l-93.8564 15.6426l99.4043 203.355h-130.689v15.6426h138.344l229.426 469.281h-383.413v-62.5703l-93.8564 -15.6426v93.8564l93.8564 15.6426v-15.6426h484.924z" />
    <glyph glyph-name="eight" unicode="8" horiz-adv-x="773" 
d="M464.367 448.279c140.117 -19.3555 243.069 -93.0215 242.986 -221.417c0 -151.213 -142.516 -226.819 -320.676 -226.819s-320.676 75.6064 -320.676 226.819c0 125.371 98.0898 198.6 233.117 220.02c-78.5059 18.208 -139.262 64.6562 -139.262 139.741
c0 99.0703 106.036 148.605 218.997 148.605s218.997 -49.5352 218.997 -148.605c0 -73.1455 -57.7734 -119.197 -133.484 -138.344zM238.134 586.624c0 -99.0703 95.6094 -132.963 163.373 -132.963c90.373 0 118.196 66.9092 118.196 132.963
c0 99.0703 -95.6084 132.963 -163.394 132.963c-90.373 0 -118.176 -66.9092 -118.176 -132.963zM422.364 15.666c142.516 0 191.217 110.375 191.196 211.177c0 151.213 -155.572 211.177 -262.464 211.177c-142.516 0 -191.175 -110.375 -191.175 -211.177
c0 -151.213 155.551 -211.177 262.442 -211.177z" />
    <glyph glyph-name="nine" unicode="9" horiz-adv-x="783" 
d="M382.854 735.229c187.712 0 328.412 -93.8564 328.495 -359.782c0 -281.568 -187.712 -375.425 -359.781 -375.425c-203.355 0 -250.283 78.2139 -250.283 78.2139l31.2852 46.9277s0 -109.499 218.998 -109.499c178.869 0 258.251 71.2266 265.343 321.51
c-56.8975 -29.0332 -140.2 -71.2266 -234.057 -71.2266c-182.498 0 -312.854 78.2139 -312.854 234.641s130.355 234.641 312.854 234.641zM398.495 281.591l-0.0839844 -0.000976562c82.3154 -2.13184 161.765 30.2939 219.081 89.4141v4.44238
c0 297.211 -140.784 344.139 -265.926 344.139c-145.998 0 -187.712 -114.713 -187.712 -218.997c0 -156.427 125.142 -218.997 234.641 -218.997z" />
    <glyph glyph-name="colon" unicode=":" horiz-adv-x="204" 
d="M101.928 0.0214844c-25.918 0 -46.9287 21.0107 -46.9287 46.9287s21.0107 46.9287 46.9287 46.9287s46.9287 -21.0107 46.9287 -46.9287s-21.0107 -46.9287 -46.9287 -46.9287zM101.928 469.303c-25.918 0 -46.9287 21.0107 -46.9287 46.9287
s21.0107 46.9287 46.9287 46.9287s46.9287 -21.0107 46.9287 -46.9287s-21.0107 -46.9287 -46.9287 -46.9287z" />
    <glyph glyph-name="semicolon" unicode=";" horiz-adv-x="207" 
d="M103.281 469.3c-25.9102 0 -46.9199 21.0098 -46.9199 46.9297s21.0098 46.9297 46.9199 46.9297c25.9199 0 46.9297 -21.0098 46.9297 -46.9297s-21.0098 -46.9297 -46.9297 -46.9297zM103.281 93.8799c12.46 0 24.4092 -4.94922 33.209 -13.7695
c8.7998 -8.80957 13.7402 -20.7695 13.7207 -33.2197c0 -62.5703 -31.2803 -109.5 -93.8506 -109.5v15.6396c27.4404 0 42.9004 12.1602 46.21 46.9902c-25.9102 0.200195 -46.7598 21.3701 -46.5693 47.2803c0.200195 25.9199 21.3701 46.7695 47.2803 46.5791z" />
    <glyph glyph-name="less" unicode="&#x3c;" horiz-adv-x="590" 
d="M528.281 578.802v-62.5713l-375.425 -140.784l375.425 -140.784v-62.5703l-469.281 156.427v93.8564z" />
    <glyph glyph-name="equal" unicode="=" horiz-adv-x="572" 
d="M520.281 219.02h-469.281v62.5703h469.281v-62.5703zM520.281 469.303h-469.281v62.5703h469.281v-62.5703z" />
    <glyph glyph-name="greater" unicode="&#x3e;" horiz-adv-x="590" 
d="M61 578.802l469.281 -156.426v-93.8564l-469.281 -156.427v62.5703l375.425 140.784l-375.425 140.784v62.5703z" />
    <glyph glyph-name="question" unicode="?" horiz-adv-x="622" 
d="M292.5 0.0214844c-25.918 0 -46.9287 21.0107 -46.9287 46.9287s21.0107 46.9287 46.9287 46.9287s46.9287 -21.0107 46.9287 -46.9287s-21.0107 -46.9287 -46.9287 -46.9287zM276.773 735.229c158.513 0 281.568 -62.5703 281.568 -218.997
c0 -172.069 -234.641 -125.142 -234.641 -312.854l-62.5703 -15.6426c0 156.427 203.355 140.784 203.355 328.496c0 156.427 -85.8682 203.354 -203.355 203.354c-136.008 0 -187.712 -125.142 -187.712 -125.142l-20.4189 40.8379s51.7041 99.9463 223.773 99.9463z" />
    <glyph glyph-name="at" unicode="@" horiz-adv-x="1145" 
d="M572.566 766.514c271.14 0 500.565 -146.769 500.565 -482.252c0 -6.17383 -0.104492 -12.2637 -0.25 -18.3125c0 -203.355 -93.6055 -265.926 -187.462 -265.926c-49.5977 0 -85.9307 35.1436 -109.332 91.165c-51.4541 -60.7148 -130.21 -91.166 -219.165 -91.166
c-156.427 0 -281.568 93.8564 -281.568 281.568s125.142 281.568 281.568 281.568c67.6885 1.95508 133.982 -19.4795 187.713 -60.6934v45.0508l93.8564 15.6426v-218.998c0 -234.641 15.6426 -328.497 62.5703 -328.497s77.9209 93.8564 77.9209 250.283
c0.194336 6.11816 0.291992 12.2227 0.291992 18.3125c0 335.483 -260.712 466.611 -448.424 466.611c-250.283 0 -364.996 -235.976 -364.996 -466.611c0 -335.505 250.283 -487.594 437.995 -487.594c71.8018 -0.794922 141.742 22.835 198.35 67.0137l12.3057 -30.7432
c-75.7656 -35.1318 -158.431 -52.8691 -241.939 -51.9121c-271.14 0 -500.565 167.752 -500.565 503.235s229.426 482.254 500.565 482.254zM588.209 15.666l0.0820312 0.000976562c73.2285 0 135.57 48.3467 174.761 113.42
c-12.9004 49.7891 -19.0938 101.077 -18.417 152.506v164.478c-57.0693 60.9521 -135.6 97.3301 -218.997 101.447c-125.142 0 -156.427 -140.784 -156.427 -265.926c0 -187.712 125.142 -265.926 218.998 -265.926z" />
    <glyph glyph-name="A" unicode="A" horiz-adv-x="710" 
d="M614.55 -0.709961l-113.671 250.411c-134.69 -5.90039 -253.37 -59.3008 -389.25 -61.7412l-84.3398 -189.42l-14.29 6.37988l296.56 666.07l-4.55957 10.0098l13.4102 9.91016l63.8203 46.6504l309.49 -681.83zM118.659 203.691l0.000976562 0.0996094
c130.63 4.03027 245.76 53.9805 375.279 61.1104l-175.7 387.05z" />
    <glyph glyph-name="A" unicode="&#xc5;" horiz-adv-x="710" 
d="M614.55 -0.709961l-113.671 250.411c-134.69 -5.90039 -253.37 -59.3008 -389.25 -61.7412l-84.3398 -189.42l-14.29 6.37988l296.56 666.07l-4.55957 10.0098l13.4102 9.91016l63.8203 46.6504l309.49 -681.83zM118.659 203.691l0.000976562 0.0996094
c130.63 4.03027 245.76 53.9805 375.279 61.1104l-175.7 387.05z" />
    <glyph glyph-name="A" unicode="&#xc4;" horiz-adv-x="710" 
d="M614.55 -0.709961l-113.671 250.411c-134.69 -5.90039 -253.37 -59.3008 -389.25 -61.7412l-84.3398 -189.42l-14.29 6.37988l296.56 666.07l-4.55957 10.0098l13.4102 9.91016l63.8203 46.6504l309.49 -681.83zM118.659 203.691l0.000976562 0.0996094
c130.63 4.03027 245.76 53.9805 375.279 61.1104l-175.7 387.05z" />
    <glyph glyph-name="A" unicode="&#xc3;" horiz-adv-x="710" 
d="M614.55 -0.709961l-113.671 250.411c-134.69 -5.90039 -253.37 -59.3008 -389.25 -61.7412l-84.3398 -189.42l-14.29 6.37988l296.56 666.07l-4.55957 10.0098l13.4102 9.91016l63.8203 46.6504l309.49 -681.83zM118.659 203.691l0.000976562 0.0996094
c130.63 4.03027 245.76 53.9805 375.279 61.1104l-175.7 387.05z" />
    <glyph glyph-name="A" unicode="&#xc1;" horiz-adv-x="710" 
d="M614.55 -0.709961l-113.671 250.411c-134.69 -5.90039 -253.37 -59.3008 -389.25 -61.7412l-84.3398 -189.42l-14.29 6.37988l296.56 666.07l-4.55957 10.0098l13.4102 9.91016l63.8203 46.6504l309.49 -681.83zM118.659 203.691l0.000976562 0.0996094
c130.63 4.03027 245.76 53.9805 375.279 61.1104l-175.7 387.05z" />
    <glyph glyph-name="A" unicode="&#xc0;" horiz-adv-x="710" 
d="M614.55 -0.709961l-113.671 250.411c-134.69 -5.90039 -253.37 -59.3008 -389.25 -61.7412l-84.3398 -189.42l-14.29 6.37988l296.56 666.07l-4.55957 10.0098l13.4102 9.91016l63.8203 46.6504l309.49 -681.83zM118.659 203.691l0.000976562 0.0996094
c130.63 4.03027 245.76 53.9805 375.279 61.1104l-175.7 387.05z" />
    <glyph glyph-name="B" unicode="B" horiz-adv-x="796" 
d="M585.072 426.421c94.8574 -24.0898 166.563 -87.4736 166.563 -207.401c0 -159.264 -116.632 -218.998 -375.425 -218.998c-79.6318 0 -203.355 15.6426 -203.355 15.6426l-93.8564 -15.6426v719.563l93.8564 15.6426h265.926
c122.451 0 250.283 -40.2119 250.283 -160.89c0 -97.1934 -52.1631 -136.342 -103.992 -147.917zM423.139 719.586h-250.179v-342.825c109.979 8.25977 185.376 57.1064 299.192 60.8604l-2.08594 0.396484c80.4453 0 125.142 60.3389 125.142 140.784
c0 100.572 -91.624 140.784 -172.069 140.784zM391.854 15.665c199.059 0 265.926 103.825 265.926 203.354c0 124.099 -79.1309 196.139 -172.069 203.355c-121.68 0 -198.496 -52.6641 -312.854 -61.2568v-329.811s139.366 -15.6426 218.998 -15.6426z" />
    <glyph glyph-name="C" unicode="C" horiz-adv-x="726" 
d="M672.708 156.449l27.1133 -49.4531c-74.125 -71.8135 -174.248 -110.425 -277.397 -106.975c-203.355 0 -375.425 125.142 -375.425 375.425s172.069 359.782 375.425 359.782c82.5918 1.76465 163.702 -22.0977 232.18 -68.3066l-27.1143 -63.3008
c-57.2236 72.3701 -144.096 114.993 -236.351 115.964c-187.712 0 -250.282 -172.069 -250.282 -344.139c0 -250.283 172.069 -359.782 312.854 -359.782c93.6035 2.21484 178.123 56.5488 218.998 140.785z" />
    <glyph glyph-name="D" unicode="D" horiz-adv-x="753" 
d="M329.283 735.229c203.355 0 375.425 -109.498 375.425 -359.781s-156.427 -375.425 -359.782 -375.425c-55.417 0 -172.069 15.6426 -172.069 15.6426l-93.8564 -15.6426v719.563l93.8564 15.6426h156.427zM360.568 15.666c187.712 0 250.283 187.712 250.283 359.781
c0 250.283 -172.069 344.14 -312.854 344.14h-125.142v-688.278s125.392 -15.6426 187.712 -15.6426z" />
    <glyph glyph-name="E" unicode="E" horiz-adv-x="596" 
d="M470.067 719.586l93.8564 15.6426v-93.8564l-93.8564 -15.6426v78.2139h-297.211v-327.934c97.4014 5.69434 182.811 62.0078 281.568 62.0078v-15.6426c-98.7578 0 -184.167 -56.293 -281.568 -62.0078v-329.06h297.211v31.2852l93.8564 15.6426v-62.5703
l-93.8564 -15.6426v15.6426h-297.211l-93.8564 -15.6426v719.563l93.8564 15.6426v-15.6426h297.211z" />
    <glyph glyph-name="E" unicode="&#xcb;" horiz-adv-x="596" 
d="M470.067 719.586l93.8564 15.6426v-93.8564l-93.8564 -15.6426v78.2139h-297.211v-327.934c97.4014 5.69434 182.811 62.0078 281.568 62.0078v-15.6426c-98.7578 0 -184.167 -56.293 -281.568 -62.0078v-329.06h297.211v31.2852l93.8564 15.6426v-62.5703
l-93.8564 -15.6426v15.6426h-297.211l-93.8564 -15.6426v719.563l93.8564 15.6426v-15.6426h297.211z" />
    <glyph glyph-name="E" unicode="&#xc9;" horiz-adv-x="596" 
d="M470.067 719.586l93.8564 15.6426v-93.8564l-93.8564 -15.6426v78.2139h-297.211v-327.934c97.4014 5.69434 182.811 62.0078 281.568 62.0078v-15.6426c-98.7578 0 -184.167 -56.293 -281.568 -62.0078v-329.06h297.211v31.2852l93.8564 15.6426v-62.5703
l-93.8564 -15.6426v15.6426h-297.211l-93.8564 -15.6426v719.563l93.8564 15.6426v-15.6426h297.211z" />
    <glyph glyph-name="E" unicode="&#xc8;" horiz-adv-x="596" 
d="M470.067 719.586l93.8564 15.6426v-93.8564l-93.8564 -15.6426v78.2139h-297.211v-327.934c97.4014 5.69434 182.811 62.0078 281.568 62.0078v-15.6426c-98.7578 0 -184.167 -56.293 -281.568 -62.0078v-329.06h297.211v31.2852l93.8564 15.6426v-62.5703
l-93.8564 -15.6426v15.6426h-297.211l-93.8564 -15.6426v719.563l93.8564 15.6426v-15.6426h297.211z" />
    <glyph glyph-name="F" unicode="F" horiz-adv-x="577" 
d="M470.067 719.586l93.8564 15.6426v-62.5703l-93.8564 -15.6426v46.9277h-297.211v-327.934c97.4014 5.69434 182.811 62.0078 281.568 62.0078v-15.6426c-98.7578 0 -184.167 -56.293 -281.568 -62.0078v-344.702l-93.8564 -15.6426v719.563l93.8564 15.6426v-15.6426
h297.211z" />
    <glyph glyph-name="G" unicode="G" horiz-adv-x="743" 
d="M699.821 219.02l-0.000976562 -109.5l-1.02246 -0.666992l1.02246 -1.85645c-74.125 -71.8135 -174.248 -110.425 -277.397 -106.975c-203.355 0 -375.425 125.142 -375.425 375.425s172.069 359.782 375.425 359.782c82.5898 1.75684 163.698 -22.1045 232.18 -68.3057
l-27.1143 -63.3008c-57.2217 72.3721 -144.095 114.996 -236.351 115.964c-187.712 0 -250.282 -172.069 -250.282 -344.139c0 -250.283 172.069 -359.782 312.854 -359.782c55.9189 0.046875 109.957 20.1963 152.255 56.7725v146.582
c0 109.499 -46.9277 125.142 -78.2129 125.142l-15.6426 15.6426c93.8564 0 187.713 -31.2852 187.713 -140.784z" />
    <glyph glyph-name="H" unicode="H" horiz-adv-x="769" 
d="M595.209 719.586l93.8564 15.6436v-719.563l-93.8564 -15.6426v422.353c-147.813 0 -274.54 -62.5703 -422.354 -62.5703v-344.14l-93.8564 -15.6426v719.563l93.8564 15.6426v-359.782c147.813 0 274.54 62.5703 422.354 62.5703v281.568z" />
    <glyph glyph-name="I" unicode="I" horiz-adv-x="252" 
d="M79 719.586l93.8564 15.6426v-719.563l-93.8564 -15.6426v719.563z" />
    <glyph glyph-name="I" unicode="&#xcf;" horiz-adv-x="252" 
d="M79 719.586l93.8564 15.6426v-719.563l-93.8564 -15.6426v719.563z" />
    <glyph glyph-name="I" unicode="&#xce;" horiz-adv-x="252" 
d="M79 719.586l93.8564 15.6426v-719.563l-93.8564 -15.6426v719.563z" />
    <glyph glyph-name="I" unicode="&#xcd;" horiz-adv-x="252" 
d="M79 719.586l93.8564 15.6426v-719.563l-93.8564 -15.6426v719.563z" />
    <glyph glyph-name="I" unicode="&#xcc;" horiz-adv-x="252" 
d="M79 719.586l93.8564 15.6426v-719.563l-93.8564 -15.6426v719.563z" />
    <glyph glyph-name="J" unicode="J" horiz-adv-x="340" 
d="M170.427 719.586l93.8564 15.6416v-531.852c0 -140.784 -62.5703 -203.354 -172.069 -203.354c-29.001 0.605469 -56.7949 11.7236 -78.2129 31.2861l31.2852 31.2852s15.6426 -46.9277 46.9277 -46.9277c62.5703 0 78.2129 62.5703 78.2129 172.069v531.852z" />
    <glyph glyph-name="K" unicode="K" horiz-adv-x="667" 
d="M278.017 421.999c242.212 -7.96777 348.477 -267.698 348.477 -406.334l-62.5703 -15.6426c0 108.122 -76.4404 399.326 -304.511 406.376l-86.5566 -72.624v-318.109l-93.8564 -15.6426v719.563l93.8564 15.6426v-381.035l454.097 381.035l10.0742 -11.9717z" />
    <glyph glyph-name="L" unicode="L" horiz-adv-x="576" 
d="M470.067 62.5928l93.8564 15.6426v-62.5703l-93.8564 -15.6426v15.6426h-297.211l-93.8564 -15.6426v719.563l93.8564 15.6426v-703.921h297.211v31.2852z" />
    <glyph glyph-name="M" unicode="M" horiz-adv-x="894" 
d="M720.351 719.586l93.8564 15.6416v-719.563l-93.8564 -15.6426v684.274l-264.236 -457.705l9.61523 -16.6855l-27.0928 -15.6426l-265.78 460.354v-638.952l-93.8564 -15.6426v719.563l93.8564 15.6426v-18.041l274.206 -474.954l273.288 473.348v4.00488z" />
    <glyph glyph-name="N" unicode="N" horiz-adv-x="769" 
d="M595.209 719.586l93.8564 15.6426v-719.563l-93.8564 -15.6426v18.208l-422.353 543.156v-545.722l-93.8564 -15.6426v719.563l93.8564 15.6426v-148.376l422.353 -543.135v675.868z" />
    <glyph glyph-name="N" unicode="&#xd1;" horiz-adv-x="769" 
d="M595.209 719.586l93.8564 15.6426v-719.563l-93.8564 -15.6426v18.208l-422.353 543.156v-545.722l-93.8564 -15.6426v719.563l93.8564 15.6426v-148.376l422.353 -543.135v675.868z" />
    <glyph glyph-name="O" unicode="O" horiz-adv-x="845" 
d="M422.425 735.229c203.355 0 375.425 -109.499 375.425 -359.782s-172.069 -375.425 -375.425 -375.425s-375.425 125.142 -375.425 375.425s172.069 359.782 375.425 359.782zM453.71 15.665c187.712 0 250.282 187.712 250.282 359.781
c0 250.283 -172.069 344.14 -312.854 344.14c-187.712 0 -250.282 -172.069 -250.282 -344.139c0 -250.283 172.069 -359.782 312.854 -359.782z" />
    <glyph glyph-name="O" unicode="&#xd8;" horiz-adv-x="845" 
d="M422.425 735.229c203.355 0 375.425 -109.499 375.425 -359.782s-172.069 -375.425 -375.425 -375.425s-375.425 125.142 -375.425 375.425s172.069 359.782 375.425 359.782zM453.71 15.665c187.712 0 250.282 187.712 250.282 359.781
c0 250.283 -172.069 344.14 -312.854 344.14c-187.712 0 -250.282 -172.069 -250.282 -344.139c0 -250.283 172.069 -359.782 312.854 -359.782z" />
    <glyph glyph-name="O" unicode="&#xd6;" horiz-adv-x="845" 
d="M422.425 735.229c203.355 0 375.425 -109.499 375.425 -359.782s-172.069 -375.425 -375.425 -375.425s-375.425 125.142 -375.425 375.425s172.069 359.782 375.425 359.782zM453.71 15.665c187.712 0 250.282 187.712 250.282 359.781
c0 250.283 -172.069 344.14 -312.854 344.14c-187.712 0 -250.282 -172.069 -250.282 -344.139c0 -250.283 172.069 -359.782 312.854 -359.782z" />
    <glyph glyph-name="O" unicode="&#xd5;" horiz-adv-x="845" 
d="M422.425 735.229c203.355 0 375.425 -109.499 375.425 -359.782s-172.069 -375.425 -375.425 -375.425s-375.425 125.142 -375.425 375.425s172.069 359.782 375.425 359.782zM453.71 15.665c187.712 0 250.282 187.712 250.282 359.781
c0 250.283 -172.069 344.14 -312.854 344.14c-187.712 0 -250.282 -172.069 -250.282 -344.139c0 -250.283 172.069 -359.782 312.854 -359.782z" />
    <glyph glyph-name="O" unicode="&#xd3;" horiz-adv-x="845" 
d="M422.425 735.229c203.355 0 375.425 -109.499 375.425 -359.782s-172.069 -375.425 -375.425 -375.425s-375.425 125.142 -375.425 375.425s172.069 359.782 375.425 359.782zM453.71 15.665c187.712 0 250.282 187.712 250.282 359.781
c0 250.283 -172.069 344.14 -312.854 344.14c-187.712 0 -250.282 -172.069 -250.282 -344.139c0 -250.283 172.069 -359.782 312.854 -359.782z" />
    <glyph glyph-name="O" unicode="&#xd2;" horiz-adv-x="845" 
d="M422.425 735.229c203.355 0 375.425 -109.499 375.425 -359.782s-172.069 -375.425 -375.425 -375.425s-375.425 125.142 -375.425 375.425s172.069 359.782 375.425 359.782zM453.71 15.665c187.712 0 250.282 187.712 250.282 359.781
c0 250.283 -172.069 344.14 -312.854 344.14c-187.712 0 -250.282 -172.069 -250.282 -344.139c0 -250.283 172.069 -359.782 312.854 -359.782z" />
    <glyph glyph-name="P" unicode="P" horiz-adv-x="687" 
d="M407.496 735.229c122.451 0 250.283 -62.5703 250.283 -187.712s-125.142 -187.712 -234.641 -187.712h-250.283v-344.14l-93.8564 -15.6426v719.563l93.8564 15.6426h234.641zM423.139 375.446c109.499 0 140.786 91.623 140.786 172.068
c0.0888672 45.6631 -18.0117 89.4814 -50.3008 121.771s-76.1074 50.3896 -121.771 50.3008h-218.998v-344.14h250.283z" />
    <glyph glyph-name="Q" unicode="Q" horiz-adv-x="845" 
d="M312.926 -15.6211c187.712 0 297.211 -62.5713 531.852 -62.5713l-31.2852 -46.9277c-203.355 0 -328.497 93.8564 -516.209 93.8564zM797.85 375.445c0 -250.283 -172.069 -375.425 -375.425 -375.425s-375.425 125.142 -375.425 375.425
s172.069 359.782 375.425 359.782s375.425 -109.499 375.425 -359.782zM140.856 375.445c0 -250.283 172.069 -359.782 312.854 -359.782c187.712 0 250.282 187.712 250.282 359.781c0 250.283 -172.069 344.14 -312.854 344.14
c-187.712 0 -250.282 -172.069 -250.282 -344.139z" />
    <glyph glyph-name="R" unicode="R" horiz-adv-x="710" 
d="M407.371 359.804c173.092 -52.4551 250.408 -225.881 250.408 -344.14l-62.5703 -15.6426c0 109.499 -78.2139 359.782 -312.854 359.782h-109.499v-344.14l-93.8564 -15.6426v719.563l93.8564 15.6426h234.641c122.451 0 250.283 -62.5703 250.283 -187.712
s-125.142 -187.712 -234.641 -187.712h-15.7676zM172.855 375.446l250.285 -0.000976562c109.499 0 140.784 91.624 140.784 172.069c0.0888672 45.6631 -18.0117 89.4814 -50.3008 121.771s-76.1074 50.3896 -121.771 50.3008h-218.998v-344.14z" />
    <glyph glyph-name="S" unicode="S" horiz-adv-x="698" 
d="M358.854 406.732c82.9893 -11.8467 297.212 -57.877 297.212 -200.226c0 -162.684 -101.678 -206.483 -305.033 -206.483c-244.026 0 -305.033 125.142 -305.033 125.142l40.6709 46.9277s81.3418 -156.427 264.361 -156.427c142.349 0 211.177 86.0352 211.177 187.713
s-91.7705 166.501 -218.998 187.713c-93.8564 15.6426 -297.212 14.0781 -297.212 156.427s114.191 187.713 297.211 187.713c101.678 0 219.854 -21.1699 281.569 -63.3848l-46.9277 -61.7578c-58.4619 87.5986 -159.097 109.498 -234.641 109.498
c-122.013 0 -203.354 -70.3926 -203.354 -172.07c0 -112.481 109.499 -125.142 218.998 -140.784z" />
    <glyph glyph-name="T" unicode="T" horiz-adv-x="624" 
d="M515.566 719.586l93.8564 15.6416v-93.8564l-93.8564 -15.6426v78.2139h-156.427v-688.278l-93.8564 -15.6426v703.921h-156.427v-62.5703l-93.8564 -15.6426v93.8564l93.8564 15.6426v-15.6426h156.427l93.8564 15.6426v-15.6426h156.427z" />
    <glyph glyph-name="U" unicode="U" horiz-adv-x="762" 
d="M601.852 719.586l93.8564 15.6426v-406.71c0 -139.053 -78.2139 -328.496 -301.258 -328.496c-185.397 0 -324.45 62.5703 -324.45 281.568v437.995l93.8564 15.6426v-453.638c0 -172.069 88.0576 -265.926 250.283 -265.926c172.069 0 187.712 189.443 187.712 328.496
v375.425z" />
    <glyph glyph-name="U" unicode="&#xdc;" horiz-adv-x="762" 
d="M601.852 719.586l93.8564 15.6426v-406.71c0 -139.053 -78.2139 -328.496 -301.258 -328.496c-185.397 0 -324.45 62.5703 -324.45 281.568v437.995l93.8564 15.6426v-453.638c0 -172.069 88.0576 -265.926 250.283 -265.926c172.069 0 187.712 189.443 187.712 328.496
v375.425z" />
    <glyph glyph-name="U" unicode="&#xdb;" horiz-adv-x="762" 
d="M601.852 719.586l93.8564 15.6426v-406.71c0 -139.053 -78.2139 -328.496 -301.258 -328.496c-185.397 0 -324.45 62.5703 -324.45 281.568v437.995l93.8564 15.6426v-453.638c0 -172.069 88.0576 -265.926 250.283 -265.926c172.069 0 187.712 189.443 187.712 328.496
v375.425z" />
    <glyph glyph-name="U" unicode="&#xda;" horiz-adv-x="762" 
d="M601.852 719.586l93.8564 15.6426v-406.71c0 -139.053 -78.2139 -328.496 -301.258 -328.496c-185.397 0 -324.45 62.5703 -324.45 281.568v437.995l93.8564 15.6426v-453.638c0 -172.069 88.0576 -265.926 250.283 -265.926c172.069 0 187.712 189.443 187.712 328.496
v375.425z" />
    <glyph glyph-name="U" unicode="&#xd9;" horiz-adv-x="762" 
d="M601.852 719.586l93.8564 15.6426v-406.71c0 -139.053 -78.2139 -328.496 -301.258 -328.496c-185.397 0 -324.45 62.5703 -324.45 281.568v437.995l93.8564 15.6426v-453.638c0 -172.069 88.0576 -265.926 250.283 -265.926c172.069 0 187.712 189.443 187.712 328.496
v375.425z" />
    <glyph glyph-name="V" unicode="V" horiz-adv-x="748" 
d="M735.647 731.578l-320.779 -645.793l13.1396 -26.4678l-75.1055 -59.2959l-336.902 678.017l75.127 59.3174l315.002 -633.988l315.503 635.177z" />
    <glyph glyph-name="W" unicode="W" horiz-adv-x="1132" 
d="M1119.37 731.578l-320.758 -645.794l13.1396 -26.4678l-75.127 -59.2959l-182.206 366.728l-139.554 -280.964l13.1396 -26.4678l-75.127 -59.2959l-336.881 678.017l75.127 59.3174l315.002 -633.988l139.554 280.942l-145.936 293.729l75.1055 59.3174l123.118 -247.78
l123.661 248.969l14.0156 -6.96582l-128.938 -259.585l183.165 -368.625l315.503 635.177z" />
    <glyph glyph-name="X" unicode="X" horiz-adv-x="681" 
d="M656.26 76.2959l-57.3574 -77.6719l-284.029 338.487l-281.881 -335.942l-11.9932 10.0527l283.675 338.07l-258.688 308.266l57.3564 77.6709l262.589 -312.938l262.693 313.062l11.9932 -10.0527l-264.486 -315.169z" />
    <glyph glyph-name="Y" unicode="Y" horiz-adv-x="646" 
d="M635.97 727.16l-266.239 -461.17l0.30957 -0.0400391v-250.29l-93.8496 -15.6396v226.53l-261.19 448.51l73.3496 60.1699l268.26 -460.67l265.82 460.42z" />
    <glyph glyph-name="Y" unicode="&#x178;" horiz-adv-x="646" 
d="M635.97 727.16l-266.239 -461.17l0.30957 -0.0400391v-250.29l-93.8496 -15.6396v226.53l-261.19 448.51l73.3496 60.1699l268.26 -460.67l265.82 460.42z" />
    <glyph glyph-name="Y" unicode="&#xdd;" horiz-adv-x="646" 
d="M635.97 727.16l-266.239 -461.17l0.30957 -0.0400391v-250.29l-93.8496 -15.6396v226.53l-261.19 448.51l73.3496 60.1699l268.26 -460.67l265.82 460.42z" />
    <glyph glyph-name="Z" unicode="Z" horiz-adv-x="675" 
d="M646.065 719.586l0.000976562 -15.6455l-516.209 -563.137c35.7373 -79.4434 116.331 -129.039 203.355 -125.141c203.355 0 265.926 203.355 265.926 203.355l31.2852 -46.9277s-78.2139 -172.069 -312.854 -172.069c-203.355 0 -281.569 125.142 -281.569 125.142
v15.6426l516.209 563.137h-422.353v-62.5703l-93.8564 -15.6426v93.8564l93.8564 15.6426v-15.6426h516.209z" />
    <glyph glyph-name="bracketleft" unicode="[" horiz-adv-x="254" 
d="M298.998 782.156h-125.142v-954.204h125.142v-15.6426h-125.142l-93.8564 -15.6426v985.489l93.8564 15.6426h125.142v-15.6426z" />
    <glyph glyph-name="backslash" unicode="\" horiz-adv-x="472" 
d="M90.8564 907.298l359.782 -1001.13l-93.8564 -15.6426l-359.782 1001.13z" />
    <glyph glyph-name="bracketright" unicode="]" horiz-adv-x="254" 
d="M80.1396 797.8l93.8604 15.6406v-985.49l-93.8604 -15.6396h-125.14v15.6396h125.14v954.21h-125.14v15.6396h125.14z" />
    <glyph glyph-name="grave" unicode="`" horiz-adv-x="200" 
d="M100.284 735.489c12.457 0 24.4014 -4.95312 33.2041 -13.7676s13.7393 -20.7666 13.7227 -33.2236c0 -62.5703 -31.2852 -109.498 -93.8555 -109.498v15.6426c27.4473 0 42.9023 12.1592 46.2188 46.9902c-25.918 0.196289 -46.7695 21.3652 -46.5732 47.2832
s21.3652 46.7695 47.2832 46.5732z" />
    <glyph glyph-name="a" unicode="a" 
d="M517.281 547.517l93.8564 15.6436v-547.494l-93.8564 -15.6426v60.6934c-53.7236 -41.2256 -120.021 -62.6621 -187.712 -60.6934c-156.427 0 -281.568 93.8564 -281.568 281.568s125.142 281.568 281.568 281.568c67.6885 1.95801 133.983 -19.4775 187.712 -60.6943
v45.0508zM360.854 15.666c62.7334 2.61719 120.621 34.4561 156.426 86.0342v344.369c-57.0664 60.9561 -135.599 97.335 -218.997 101.448c-125.142 0 -156.427 -140.784 -156.427 -265.926c0 -187.712 125.142 -265.926 218.998 -265.926z" />
    <glyph glyph-name="a" unicode="&#xe5;" 
d="M517.281 547.517l93.8564 15.6436v-547.494l-93.8564 -15.6426v60.6934c-53.7236 -41.2256 -120.021 -62.6621 -187.712 -60.6934c-156.427 0 -281.568 93.8564 -281.568 281.568s125.142 281.568 281.568 281.568c67.6885 1.95801 133.983 -19.4775 187.712 -60.6943
v45.0508zM360.854 15.666c62.7334 2.61719 120.621 34.4561 156.426 86.0342v344.369c-57.0664 60.9561 -135.599 97.335 -218.997 101.448c-125.142 0 -156.427 -140.784 -156.427 -265.926c0 -187.712 125.142 -265.926 218.998 -265.926z" />
    <glyph glyph-name="a" unicode="&#xe4;" 
d="M517.281 547.517l93.8564 15.6436v-547.494l-93.8564 -15.6426v60.6934c-53.7236 -41.2256 -120.021 -62.6621 -187.712 -60.6934c-156.427 0 -281.568 93.8564 -281.568 281.568s125.142 281.568 281.568 281.568c67.6885 1.95801 133.983 -19.4775 187.712 -60.6943
v45.0508zM360.854 15.666c62.7334 2.61719 120.621 34.4561 156.426 86.0342v344.369c-57.0664 60.9561 -135.599 97.335 -218.997 101.448c-125.142 0 -156.427 -140.784 -156.427 -265.926c0 -187.712 125.142 -265.926 218.998 -265.926z" />
    <glyph glyph-name="a" unicode="&#xe3;" 
d="M517.281 547.517l93.8564 15.6436v-547.494l-93.8564 -15.6426v60.6934c-53.7236 -41.2256 -120.021 -62.6621 -187.712 -60.6934c-156.427 0 -281.568 93.8564 -281.568 281.568s125.142 281.568 281.568 281.568c67.6885 1.95801 133.983 -19.4775 187.712 -60.6943
v45.0508zM360.854 15.666c62.7334 2.61719 120.621 34.4561 156.426 86.0342v344.369c-57.0664 60.9561 -135.599 97.335 -218.997 101.448c-125.142 0 -156.427 -140.784 -156.427 -265.926c0 -187.712 125.142 -265.926 218.998 -265.926z" />
    <glyph glyph-name="a" unicode="&#xe1;" 
d="M517.281 547.517l93.8564 15.6436v-547.494l-93.8564 -15.6426v60.6934c-53.7236 -41.2256 -120.021 -62.6621 -187.712 -60.6934c-156.427 0 -281.568 93.8564 -281.568 281.568s125.142 281.568 281.568 281.568c67.6885 1.95801 133.983 -19.4775 187.712 -60.6943
v45.0508zM360.854 15.666c62.7334 2.61719 120.621 34.4561 156.426 86.0342v344.369c-57.0664 60.9561 -135.599 97.335 -218.997 101.448c-125.142 0 -156.427 -140.784 -156.427 -265.926c0 -187.712 125.142 -265.926 218.998 -265.926z" />
    <glyph glyph-name="a" unicode="&#xe0;" 
d="M517.281 547.517l93.8564 15.6436v-547.494l-93.8564 -15.6426v60.6934c-53.7236 -41.2256 -120.021 -62.6621 -187.712 -60.6934c-156.427 0 -281.568 93.8564 -281.568 281.568s125.142 281.568 281.568 281.568c67.6885 1.95801 133.983 -19.4775 187.712 -60.6943
v45.0508zM360.854 15.666c62.7334 2.61719 120.621 34.4561 156.426 86.0342v344.369c-57.0664 60.9561 -135.599 97.335 -218.997 101.448c-125.142 0 -156.427 -140.784 -156.427 -265.926c0 -187.712 125.142 -265.926 218.998 -265.926z" />
    <glyph glyph-name="b" unicode="b" 
d="M355.568 563.075c156.427 0 281.567 -93.7725 281.567 -281.484s-125.142 -281.568 -281.568 -281.568c-67.6904 -1.97168 -133.989 19.4648 -187.712 60.6934v-45.0508l-93.8564 -15.6426v719.563l93.8564 15.6426v-232.847
c53.7275 41.2197 120.023 62.6553 187.713 60.6934zM386.853 15.5811v0.0839844c125.142 0 156.427 140.701 156.427 265.843c0 187.712 -125.142 265.926 -218.998 265.926c-62.7305 -2.62695 -120.615 -34.4639 -156.427 -86.0352v-344.39
c57.0732 -60.9453 135.604 -97.3164 218.998 -101.428z" />
    <glyph glyph-name="c" unicode="c" horiz-adv-x="562" 
d="M517.322 109.521l15.5996 -31.2842c-46.9277 -46.9277 -138.302 -78.2129 -203.354 -78.2129c-156.427 0 -281.568 93.8564 -281.568 281.568s125.142 281.568 281.568 281.568c60.9814 1.46973 120.982 -15.5283 172.132 -48.7637l-30.2637 -64.3018
c-38.0928 59.0498 -102.867 95.5029 -173.112 97.4219c-125.142 0 -156.427 -140.784 -156.427 -265.926c0 -187.712 125.142 -265.926 218.998 -265.926c63.9463 5.11523 121.821 39.8398 156.428 93.8555z" />
    <glyph glyph-name="d" unicode="d" 
d="M517.281 719.502l93.8564 15.7275v-719.647l-93.8564 -15.6426v60.6934c-53.7236 -41.2256 -120.021 -62.6621 -187.712 -60.6934c-156.427 0 -281.568 93.8564 -281.568 281.568s125.142 281.568 281.568 281.568c67.6885 1.95801 133.983 -19.4775 187.712 -60.6943
v217.12zM360.854 15.582l-0.000976562 0.0830078c62.7188 2.59766 120.604 34.4043 156.427 85.9512v344.369c-57.0664 60.9561 -135.599 97.335 -218.997 101.448c-125.142 0 -156.427 -140.784 -156.427 -265.926c0 -187.712 125.142 -265.926 218.998 -265.926z" />
    <glyph glyph-name="e" unicode="e" horiz-adv-x="635" 
d="M360.85 15.6602c63.9102 5.12988 121.758 39.833 156.368 93.8027l15.6396 -31.29c-46.9297 -46.9297 -138.3 -78.21 -203.35 -78.21c-147.46 0 -267.01 83.4297 -280.26 250.279c-0.790039 10.1201 -1.25 20.5303 -1.25 31.29c0 187.71 125.14 281.57 281.569 281.57
c8.36035 -0.0195312 16.6201 -0.299805 24.7998 -0.839844c3 -0.209961 5.94043 -0.599609 8.90039 -0.869141c5.11035 -0.459961 10.2207 -0.879883 15.251 -1.57031c3.58984 -0.480469 7.08984 -1.19043 10.6602 -1.77051
c4.25 -0.730469 8.53027 -1.38086 12.7002 -2.25098c3.83984 -0.820312 7.58984 -1.80078 11.3496 -2.74121c3.75 -0.929688 7.32031 -1.76953 11.2207 -2.88965c3.90039 -1.12988 7.69043 -2.41992 11.5107 -3.71973c3.41992 -1.12012 6.82031 -2.23047 10.1602 -3.5
c3.86035 -1.44043 7.61035 -3.05078 11.3604 -4.6709c3.12988 -1.37988 6.2998 -2.74023 9.38965 -4.16992c3.70996 -1.78027 7.33984 -3.68066 10.9502 -5.59082c2.95996 -1.58984 5.91992 -3.16992 8.83984 -4.87988c3.49023 -1.91992 6.87012 -4.17969 10.2197 -6.25977
c1.58984 -1.01953 3.25977 -1.91992 4.81934 -2.97949l-0.0996094 -0.209961c56.9404 -39.6797 94.7705 -101.3 104.391 -170.03h-88.71c-131.63 0 -245.189 -57.71 -375.42 -62.1504v-0.419922c0 -187.71 125.14 -265.93 218.989 -265.93zM298.277 547.523
c-119.82 0 -153.499 -129.11 -156.169 -249.891c127.31 4.41992 238.79 59.5 366.75 61.8799c-6.9502 32.9404 -20.0898 64.25 -38.7402 92.2695c-4.90039 7.25 -10.2207 14.21 -15.9111 20.8604c-1.05957 1.25 -2.20996 2.36035 -3.2998 3.57031
c-4.78027 5.29004 -9.70996 10.2803 -14.7803 14.9502c-1.65039 1.51953 -3.30078 3.0293 -4.9707 4.48926c-5.86035 5.12012 -11.9805 9.92969 -18.3506 14.4102c-0.25 0.160156 -0.5 0.370117 -0.75 0.560547c-6.50977 4.41992 -13.25 8.49023 -20.1904 12.2002
c-1.76953 0.94043 -3.5498 1.82031 -5.31934 2.70996c-5.50977 2.78027 -11.0693 5.2998 -16.6895 7.53027c-1.5 0.610352 -2.98047 1.27051 -4.48047 1.84082c-6.75977 2.53027 -13.6494 4.69043 -20.6494 6.48047c-1.44043 0.379883 -2.88086 0.629883 -4.32129 0.979492
c-5.55957 1.2998 -11.1191 2.33984 -16.6787 3.12988c-1.87988 0.269531 -3.75 0.549805 -5.58984 0.75c-6.58984 0.790039 -13.2197 1.21973 -19.8594 1.2793z" />
    <glyph glyph-name="e" unicode="&#xeb;" horiz-adv-x="635" 
d="M360.85 15.6602c63.9102 5.12988 121.758 39.833 156.368 93.8027l15.6396 -31.29c-46.9297 -46.9297 -138.3 -78.21 -203.35 -78.21c-147.46 0 -267.01 83.4297 -280.26 250.279c-0.790039 10.1201 -1.25 20.5303 -1.25 31.29c0 187.71 125.14 281.57 281.569 281.57
c8.36035 -0.0195312 16.6201 -0.299805 24.7998 -0.839844c3 -0.209961 5.94043 -0.599609 8.90039 -0.869141c5.11035 -0.459961 10.2207 -0.879883 15.251 -1.57031c3.58984 -0.480469 7.08984 -1.19043 10.6602 -1.77051
c4.25 -0.730469 8.53027 -1.38086 12.7002 -2.25098c3.83984 -0.820312 7.58984 -1.80078 11.3496 -2.74121c3.75 -0.929688 7.32031 -1.76953 11.2207 -2.88965c3.90039 -1.12988 7.69043 -2.41992 11.5107 -3.71973c3.41992 -1.12012 6.82031 -2.23047 10.1602 -3.5
c3.86035 -1.44043 7.61035 -3.05078 11.3604 -4.6709c3.12988 -1.37988 6.2998 -2.74023 9.38965 -4.16992c3.70996 -1.78027 7.33984 -3.68066 10.9502 -5.59082c2.95996 -1.58984 5.91992 -3.16992 8.83984 -4.87988c3.49023 -1.91992 6.87012 -4.17969 10.2197 -6.25977
c1.58984 -1.01953 3.25977 -1.91992 4.81934 -2.97949l-0.0996094 -0.209961c56.9404 -39.6797 94.7705 -101.3 104.391 -170.03h-88.71c-131.63 0 -245.189 -57.71 -375.42 -62.1504v-0.419922c0 -187.71 125.14 -265.93 218.989 -265.93zM298.277 547.523
c-119.82 0 -153.499 -129.11 -156.169 -249.891c127.31 4.41992 238.79 59.5 366.75 61.8799c-6.9502 32.9404 -20.0898 64.25 -38.7402 92.2695c-4.90039 7.25 -10.2207 14.21 -15.9111 20.8604c-1.05957 1.25 -2.20996 2.36035 -3.2998 3.57031
c-4.78027 5.29004 -9.70996 10.2803 -14.7803 14.9502c-1.65039 1.51953 -3.30078 3.0293 -4.9707 4.48926c-5.86035 5.12012 -11.9805 9.92969 -18.3506 14.4102c-0.25 0.160156 -0.5 0.370117 -0.75 0.560547c-6.50977 4.41992 -13.25 8.49023 -20.1904 12.2002
c-1.76953 0.94043 -3.5498 1.82031 -5.31934 2.70996c-5.50977 2.78027 -11.0693 5.2998 -16.6895 7.53027c-1.5 0.610352 -2.98047 1.27051 -4.48047 1.84082c-6.75977 2.53027 -13.6494 4.69043 -20.6494 6.48047c-1.44043 0.379883 -2.88086 0.629883 -4.32129 0.979492
c-5.55957 1.2998 -11.1191 2.33984 -16.6787 3.12988c-1.87988 0.269531 -3.75 0.549805 -5.58984 0.75c-6.58984 0.790039 -13.2197 1.21973 -19.8594 1.2793z" />
    <glyph glyph-name="e" unicode="&#xe9;" horiz-adv-x="635" 
d="M360.85 15.6602c63.9102 5.12988 121.758 39.833 156.368 93.8027l15.6396 -31.29c-46.9297 -46.9297 -138.3 -78.21 -203.35 -78.21c-147.46 0 -267.01 83.4297 -280.26 250.279c-0.790039 10.1201 -1.25 20.5303 -1.25 31.29c0 187.71 125.14 281.57 281.569 281.57
c8.36035 -0.0195312 16.6201 -0.299805 24.7998 -0.839844c3 -0.209961 5.94043 -0.599609 8.90039 -0.869141c5.11035 -0.459961 10.2207 -0.879883 15.251 -1.57031c3.58984 -0.480469 7.08984 -1.19043 10.6602 -1.77051
c4.25 -0.730469 8.53027 -1.38086 12.7002 -2.25098c3.83984 -0.820312 7.58984 -1.80078 11.3496 -2.74121c3.75 -0.929688 7.32031 -1.76953 11.2207 -2.88965c3.90039 -1.12988 7.69043 -2.41992 11.5107 -3.71973c3.41992 -1.12012 6.82031 -2.23047 10.1602 -3.5
c3.86035 -1.44043 7.61035 -3.05078 11.3604 -4.6709c3.12988 -1.37988 6.2998 -2.74023 9.38965 -4.16992c3.70996 -1.78027 7.33984 -3.68066 10.9502 -5.59082c2.95996 -1.58984 5.91992 -3.16992 8.83984 -4.87988c3.49023 -1.91992 6.87012 -4.17969 10.2197 -6.25977
c1.58984 -1.01953 3.25977 -1.91992 4.81934 -2.97949l-0.0996094 -0.209961c56.9404 -39.6797 94.7705 -101.3 104.391 -170.03h-88.71c-131.63 0 -245.189 -57.71 -375.42 -62.1504v-0.419922c0 -187.71 125.14 -265.93 218.989 -265.93zM298.277 547.523
c-119.82 0 -153.499 -129.11 -156.169 -249.891c127.31 4.41992 238.79 59.5 366.75 61.8799c-6.9502 32.9404 -20.0898 64.25 -38.7402 92.2695c-4.90039 7.25 -10.2207 14.21 -15.9111 20.8604c-1.05957 1.25 -2.20996 2.36035 -3.2998 3.57031
c-4.78027 5.29004 -9.70996 10.2803 -14.7803 14.9502c-1.65039 1.51953 -3.30078 3.0293 -4.9707 4.48926c-5.86035 5.12012 -11.9805 9.92969 -18.3506 14.4102c-0.25 0.160156 -0.5 0.370117 -0.75 0.560547c-6.50977 4.41992 -13.25 8.49023 -20.1904 12.2002
c-1.76953 0.94043 -3.5498 1.82031 -5.31934 2.70996c-5.50977 2.78027 -11.0693 5.2998 -16.6895 7.53027c-1.5 0.610352 -2.98047 1.27051 -4.48047 1.84082c-6.75977 2.53027 -13.6494 4.69043 -20.6494 6.48047c-1.44043 0.379883 -2.88086 0.629883 -4.32129 0.979492
c-5.55957 1.2998 -11.1191 2.33984 -16.6787 3.12988c-1.87988 0.269531 -3.75 0.549805 -5.58984 0.75c-6.58984 0.790039 -13.2197 1.21973 -19.8594 1.2793z" />
    <glyph glyph-name="e" unicode="&#xe8;" horiz-adv-x="635" 
d="M360.85 15.6602c63.9102 5.12988 121.758 39.833 156.368 93.8027l15.6396 -31.29c-46.9297 -46.9297 -138.3 -78.21 -203.35 -78.21c-147.46 0 -267.01 83.4297 -280.26 250.279c-0.790039 10.1201 -1.25 20.5303 -1.25 31.29c0 187.71 125.14 281.57 281.569 281.57
c8.36035 -0.0195312 16.6201 -0.299805 24.7998 -0.839844c3 -0.209961 5.94043 -0.599609 8.90039 -0.869141c5.11035 -0.459961 10.2207 -0.879883 15.251 -1.57031c3.58984 -0.480469 7.08984 -1.19043 10.6602 -1.77051
c4.25 -0.730469 8.53027 -1.38086 12.7002 -2.25098c3.83984 -0.820312 7.58984 -1.80078 11.3496 -2.74121c3.75 -0.929688 7.32031 -1.76953 11.2207 -2.88965c3.90039 -1.12988 7.69043 -2.41992 11.5107 -3.71973c3.41992 -1.12012 6.82031 -2.23047 10.1602 -3.5
c3.86035 -1.44043 7.61035 -3.05078 11.3604 -4.6709c3.12988 -1.37988 6.2998 -2.74023 9.38965 -4.16992c3.70996 -1.78027 7.33984 -3.68066 10.9502 -5.59082c2.95996 -1.58984 5.91992 -3.16992 8.83984 -4.87988c3.49023 -1.91992 6.87012 -4.17969 10.2197 -6.25977
c1.58984 -1.01953 3.25977 -1.91992 4.81934 -2.97949l-0.0996094 -0.209961c56.9404 -39.6797 94.7705 -101.3 104.391 -170.03h-88.71c-131.63 0 -245.189 -57.71 -375.42 -62.1504v-0.419922c0 -187.71 125.14 -265.93 218.989 -265.93zM298.277 547.523
c-119.82 0 -153.499 -129.11 -156.169 -249.891c127.31 4.41992 238.79 59.5 366.75 61.8799c-6.9502 32.9404 -20.0898 64.25 -38.7402 92.2695c-4.90039 7.25 -10.2207 14.21 -15.9111 20.8604c-1.05957 1.25 -2.20996 2.36035 -3.2998 3.57031
c-4.78027 5.29004 -9.70996 10.2803 -14.7803 14.9502c-1.65039 1.51953 -3.30078 3.0293 -4.9707 4.48926c-5.86035 5.12012 -11.9805 9.92969 -18.3506 14.4102c-0.25 0.160156 -0.5 0.370117 -0.75 0.560547c-6.50977 4.41992 -13.25 8.49023 -20.1904 12.2002
c-1.76953 0.94043 -3.5498 1.82031 -5.31934 2.70996c-5.50977 2.78027 -11.0693 5.2998 -16.6895 7.53027c-1.5 0.610352 -2.98047 1.27051 -4.48047 1.84082c-6.75977 2.53027 -13.6494 4.69043 -20.6494 6.48047c-1.44043 0.379883 -2.88086 0.629883 -4.32129 0.979492
c-5.55957 1.2998 -11.1191 2.33984 -16.6787 3.12988c-1.87988 0.269531 -3.75 0.549805 -5.58984 0.75c-6.58984 0.790039 -13.2197 1.21973 -19.8594 1.2793z" />
    <glyph glyph-name="f" unicode="f" horiz-adv-x="329" 
d="M267.641 719.502c-62.5703 0 -78.2139 -62.5703 -78.2139 -171.985h125.142v-15.7266h-125.142v-516.209l-93.8564 -15.6426v531.852h-62.5703v15.6426h63.0088c4.60938 129.626 66.3252 187.713 171.632 187.713c29.001 -0.605469 56.7949 -11.7236 78.2129 -31.2861
l-31.2852 -31.2852s-15.6426 46.9277 -46.9277 46.9277z" />
    <glyph glyph-name="g" unicode="g" horiz-adv-x="623" 
d="M326.652 62.5088c156.427 0 281.484 -31.3916 281.484 -125.248s-109.499 -125.142 -297.211 -125.142s-265.926 93.8564 -265.926 93.8564l46.9277 46.9277s78.2139 -125.142 218.998 -125.142c125.142 0 203.355 31.2852 203.355 109.499
s-109.499 109.499 -250.283 109.499c-78.2139 0 -218.998 0 -218.998 93.8564c0 54.6455 42.1514 87.9541 77.6084 106.371c-32.1006 34.8066 -48.8018 81.0908 -46.3232 128.375c0 109.499 62.5703 187.713 234.64 187.713c91.8955 0 152.297 -22.3799 188.88 -59.9219
c37.793 27.5938 45.7607 82.8232 45.7607 138.136l46.9277 -31.2852c0 -65.9912 -23.2764 -108.664 -75.085 -128.27c19.6973 -31.8936 29.5098 -68.9062 28.1982 -106.37c0 -109.499 -62.5703 -187.713 -234.64 -187.713c-72.624 0 -125.559 14.0576 -162.684 38.4189
c-25.5352 -21.0117 -40.4199 -52.2793 -40.6289 -85.3477c0 -78.2139 125.142 -78.2139 218.998 -78.2139zM311.009 547.431v0.0830078c-78.2139 0 -140.784 -78.2969 -140.784 -172.153s62.5703 -172.07 140.784 -172.07s140.784 78.2139 140.784 172.07
s-62.5703 172.07 -140.784 172.07z" />
    <glyph glyph-name="h" unicode="h" horiz-adv-x="640" 
d="M354.568 563.075c125.142 0 218.997 -62.5703 218.997 -203.271v-344.14l-93.8564 -15.6426v359.782c0 112.815 -31.2852 187.713 -140.784 187.713s-172.069 -93.8564 -172.069 -187.713v-344.14l-93.8564 -15.6426v719.563l93.8564 15.6426v-287.888
c33.5723 72.8447 107.551 118.456 187.713 115.735z" />
    <glyph glyph-name="i" unicode="i" horiz-adv-x="238" 
d="M72 -0.0615234v531.852l93.8564 15.6426v-531.852zM118.928 594.36c-25.918 0 -46.9287 21.0107 -46.9287 46.9287s21.0107 46.9287 46.9287 46.9287s46.9287 -21.0107 46.9287 -46.9287s-21.0107 -46.9287 -46.9287 -46.9287z" />
    <glyph glyph-name="i" unicode="&#xef;" horiz-adv-x="238" 
d="M72 -0.0615234v531.852l93.8564 15.6426v-531.852zM118.928 594.36c-25.918 0 -46.9287 21.0107 -46.9287 46.9287s21.0107 46.9287 46.9287 46.9287s46.9287 -21.0107 46.9287 -46.9287s-21.0107 -46.9287 -46.9287 -46.9287z" />
    <glyph glyph-name="i" unicode="&#xee;" horiz-adv-x="238" 
d="M72 -0.0615234v531.852l93.8564 15.6426v-531.852zM118.928 594.36c-25.918 0 -46.9287 21.0107 -46.9287 46.9287s21.0107 46.9287 46.9287 46.9287s46.9287 -21.0107 46.9287 -46.9287s-21.0107 -46.9287 -46.9287 -46.9287z" />
    <glyph glyph-name="i" unicode="&#xed;" horiz-adv-x="238" 
d="M72 -0.0615234v531.852l93.8564 15.6426v-531.852zM118.928 594.36c-25.918 0 -46.9287 21.0107 -46.9287 46.9287s21.0107 46.9287 46.9287 46.9287s46.9287 -21.0107 46.9287 -46.9287s-21.0107 -46.9287 -46.9287 -46.9287z" />
    <glyph glyph-name="i" unicode="&#xec;" horiz-adv-x="238" 
d="M72 -0.0615234v531.852l93.8564 15.6426v-531.852zM118.928 594.36c-25.918 0 -46.9287 21.0107 -46.9287 46.9287s21.0107 46.9287 46.9287 46.9287s46.9287 -21.0107 46.9287 -46.9287s-21.0107 -46.9287 -46.9287 -46.9287z" />
    <glyph glyph-name="j" unicode="j" horiz-adv-x="238" 
d="M71.4268 -0.0615234v531.934l93.8564 15.6426v-531.935c0 -140.784 -62.5703 -203.354 -172.069 -203.354c-29.001 0.605469 -56.7949 11.7236 -78.2129 31.2861l31.2852 31.2852s15.6426 -46.9277 46.9277 -46.9277c62.5703 0 78.2129 62.5703 78.2129 172.069z
M118.354 594.359c-25.918 0 -46.9287 21.0107 -46.9287 46.9287s21.0107 46.9287 46.9287 46.9287s46.9287 -21.0107 46.9287 -46.9287s-21.0107 -46.9287 -46.9287 -46.9287z" />
    <glyph glyph-name="k" unicode="k" horiz-adv-x="570" 
d="M268.994 326.975c158.784 -18.25 258.647 -221.792 258.647 -311.394l-68.8281 -15.6426c0 77.2334 -55 306.889 -207.047 312.583l-83.9072 -70.4131v-225.714l-93.8564 -15.6426v719.563l93.8564 15.6426v-473.452l78.2139 65.6367v0.271484h0.3125l280.588 235.454
l10.0527 -11.9932z" />
    <glyph glyph-name="l" unicode="l" horiz-adv-x="241" 
d="M-20 735.229c93.8564 0 187.712 -31.2852 187.712 -140.784v-578.779l-93.8564 -15.6426v594.422c0 109.499 -46.9277 125.142 -78.2129 125.142z" />
    <glyph glyph-name="m" unicode="m" horiz-adv-x="892" 
d="M636.137 563.075c125.142 0 187.713 -62.5723 187.713 -171.987v-375.425l-93.8564 -15.6426v391.067c0 78.2139 -31.2852 156.428 -109.499 156.428s-125.142 -62.5703 -125.142 -156.427v-375.425l-93.8564 -15.6426v391.067
c0 78.2139 -31.2852 156.428 -109.499 156.428s-125.142 -62.5703 -125.142 -156.427v-375.425l-93.8564 -15.6426v531.852l93.8564 15.6426v-66.9092c26.0762 53.2969 81.542 85.7881 140.783 82.4688c97.6729 0 157.053 -38.252 178.494 -107.08
c18.1875 65.8037 73.7715 107.079 150.004 107.079z" />
    <glyph glyph-name="n" unicode="n" horiz-adv-x="640" 
d="M354.568 563.075c125.142 0 218.997 -62.5703 218.997 -203.271v-344.14l-93.8564 -15.6426v359.782c0 112.815 -31.2852 187.713 -140.784 187.713s-172.069 -93.8564 -172.069 -187.713v-344.14l-93.8564 -15.6426v531.852l93.8564 15.6426v-100.176
c33.5723 72.8447 107.551 118.456 187.713 115.735z" />
    <glyph glyph-name="n" unicode="&#xf1;" horiz-adv-x="640" 
d="M354.568 563.075c125.142 0 218.997 -62.5703 218.997 -203.271v-344.14l-93.8564 -15.6426v359.782c0 112.815 -31.2852 187.713 -140.784 187.713s-172.069 -93.8564 -172.069 -187.713v-344.14l-93.8564 -15.6426v531.852l93.8564 15.6426v-100.176
c33.5723 72.8447 107.551 118.456 187.713 115.735z" />
    <glyph glyph-name="o" unicode="o" horiz-adv-x="660" 
d="M329.568 563.075c156.427 0 281.568 -93.8564 281.568 -281.568s-125.142 -281.568 -281.568 -281.568s-281.568 93.8564 -281.568 281.568s125.142 281.568 281.568 281.568zM360.854 15.5811v0.0830078c125.142 0 156.427 140.701 156.427 265.843
c0 187.712 -125.142 265.926 -218.998 265.926c-125.142 0 -156.427 -140.784 -156.427 -265.926c0 -187.712 125.142 -265.926 218.998 -265.926z" />
    <glyph glyph-name="o" unicode="&#xf8;" horiz-adv-x="660" 
d="M329.568 563.075c156.427 0 281.568 -93.8564 281.568 -281.568s-125.142 -281.568 -281.568 -281.568s-281.568 93.8564 -281.568 281.568s125.142 281.568 281.568 281.568zM360.854 15.5811v0.0830078c125.142 0 156.427 140.701 156.427 265.843
c0 187.712 -125.142 265.926 -218.998 265.926c-125.142 0 -156.427 -140.784 -156.427 -265.926c0 -187.712 125.142 -265.926 218.998 -265.926z" />
    <glyph glyph-name="o" unicode="&#xf6;" horiz-adv-x="660" 
d="M329.568 563.075c156.427 0 281.568 -93.8564 281.568 -281.568s-125.142 -281.568 -281.568 -281.568s-281.568 93.8564 -281.568 281.568s125.142 281.568 281.568 281.568zM360.854 15.5811v0.0830078c125.142 0 156.427 140.701 156.427 265.843
c0 187.712 -125.142 265.926 -218.998 265.926c-125.142 0 -156.427 -140.784 -156.427 -265.926c0 -187.712 125.142 -265.926 218.998 -265.926z" />
    <glyph glyph-name="o" unicode="&#xf5;" horiz-adv-x="660" 
d="M329.568 563.075c156.427 0 281.568 -93.8564 281.568 -281.568s-125.142 -281.568 -281.568 -281.568s-281.568 93.8564 -281.568 281.568s125.142 281.568 281.568 281.568zM360.854 15.5811v0.0830078c125.142 0 156.427 140.701 156.427 265.843
c0 187.712 -125.142 265.926 -218.998 265.926c-125.142 0 -156.427 -140.784 -156.427 -265.926c0 -187.712 125.142 -265.926 218.998 -265.926z" />
    <glyph glyph-name="o" unicode="&#xf3;" horiz-adv-x="660" 
d="M329.568 563.075c156.427 0 281.568 -93.8564 281.568 -281.568s-125.142 -281.568 -281.568 -281.568s-281.568 93.8564 -281.568 281.568s125.142 281.568 281.568 281.568zM360.854 15.5811v0.0830078c125.142 0 156.427 140.701 156.427 265.843
c0 187.712 -125.142 265.926 -218.998 265.926c-125.142 0 -156.427 -140.784 -156.427 -265.926c0 -187.712 125.142 -265.926 218.998 -265.926z" />
    <glyph glyph-name="o" unicode="&#xf2;" horiz-adv-x="660" 
d="M329.568 563.075c156.427 0 281.568 -93.8564 281.568 -281.568s-125.142 -281.568 -281.568 -281.568s-281.568 93.8564 -281.568 281.568s125.142 281.568 281.568 281.568zM360.854 15.5811v0.0830078c125.142 0 156.427 140.701 156.427 265.843
c0 187.712 -125.142 265.926 -218.998 265.926c-125.142 0 -156.427 -140.784 -156.427 -265.926c0 -187.712 125.142 -265.926 218.998 -265.926z" />
    <glyph glyph-name="p" unicode="p" horiz-adv-x="685" 
d="M354.568 563.075c156.427 0 281.567 -93.7715 281.567 -281.483s-125.142 -281.568 -281.568 -281.568c-67.6904 -1.97168 -133.989 19.4648 -187.712 60.6934v-232.764l-93.8564 -15.6426v719.563l93.8564 15.6426v-45.1348
c53.7275 41.2197 120.023 62.6553 187.713 60.6934zM385.853 15.582v0.0839844c125.142 0 156.427 140.701 156.427 265.843c0 187.712 -125.142 265.926 -218.998 265.926c-62.7305 -2.62695 -120.615 -34.4639 -156.427 -86.0352v-344.39
c57.0732 -60.9453 135.604 -97.3164 218.998 -101.428z" />
    <glyph glyph-name="q" unicode="q" 
d="M517.281 531.79l93.8564 15.7266v-719.647l-93.8564 -15.6426v248.406c-53.7236 -41.2256 -120.021 -62.6621 -187.712 -60.6934c-156.427 0 -281.568 93.8564 -281.568 281.568s125.142 281.568 281.568 281.568c67.6885 1.95801 133.983 -19.4775 187.712 -60.6943
v29.4082zM360.854 15.582l-0.000976562 0.0830078c62.7188 2.59766 120.604 34.4043 156.427 85.9512v344.369c-57.0664 60.9561 -135.599 97.335 -218.997 101.448c-125.142 0 -156.427 -140.784 -156.427 -265.926c0 -187.712 125.142 -265.926 218.998 -265.926z" />
    <glyph glyph-name="r" unicode="r" horiz-adv-x="524" 
d="M323.283 563.075c109.499 0 172.069 -78.1309 172.069 -187.63l-93.8564 -15.6426c0 78.2139 -15.6426 187.713 -93.8564 187.713s-140.784 -93.8564 -140.784 -187.713v-344.14l-93.8564 -15.6426v531.852l93.8564 15.6426v-92.667
c24.0967 65.458 86.6777 108.756 156.428 108.228z" />
    <glyph glyph-name="s" unicode="s" horiz-adv-x="563" 
d="M297.221 312.792c63.1963 -12.6602 218.997 -46.8447 219.06 -156.427c0 -125.142 -78.2139 -156.427 -234.641 -156.427c-187.712 0 -234.64 93.8564 -234.64 93.8564l31.2852 46.9277s62.5703 -125.142 203.354 -125.142c109.499 0 140.784 62.5703 140.784 140.784
s-62.5703 125.142 -140.784 140.784c-61.3613 12.2637 -234.641 15.6426 -234.641 125.142s93.8564 140.784 234.641 140.784c78.1514 0 171.507 -16.2891 218.998 -48.7637l-30.2637 -64.3018c-44.3174 60.1143 -114.123 96.1357 -188.797 97.4229
c-93.8564 0 -140.784 -46.9277 -140.784 -125.142c0 -86.5566 78.2139 -93.8564 156.428 -109.499z" />
    <glyph glyph-name="t" unicode="t" horiz-adv-x="365" 
d="M311.568 62.5088l31.2852 -31.1992c-21.418 -19.5625 -49.2119 -30.6807 -78.2129 -31.2861c-109.499 0 -172.069 62.5703 -172.069 203.354v328.496h-62.5703v15.6426h62.5703v93.8564l93.8564 15.6426v-109.499h125.142v-15.7266h-125.142v-344.14
c0 -109.499 15.6426 -172.069 78.2129 -172.069c31.2852 0 46.9277 46.9277 46.9277 46.9277z" />
    <glyph glyph-name="u" unicode="u" horiz-adv-x="641" 
d="M472.71 547.517l93.8574 15.6416v-547.494l-93.8564 -15.6426v115.735c-33.5723 -72.8447 -107.551 -118.456 -187.713 -115.735c-125.142 0 -218.998 62.5703 -218.998 203.354v344.14l93.8564 15.6426v-359.782c0 -112.836 31.2852 -187.712 140.784 -187.712
s172.069 93.8564 172.069 187.713v344.14z" />
    <glyph glyph-name="u" unicode="&#xfc;" horiz-adv-x="641" 
d="M472.71 547.517l93.8574 15.6416v-547.494l-93.8564 -15.6426v115.735c-33.5723 -72.8447 -107.551 -118.456 -187.713 -115.735c-125.142 0 -218.998 62.5703 -218.998 203.354v344.14l93.8564 15.6426v-359.782c0 -112.836 31.2852 -187.712 140.784 -187.712
s172.069 93.8564 172.069 187.713v344.14z" />
    <glyph glyph-name="u" unicode="&#xfb;" horiz-adv-x="641" 
d="M472.71 547.517l93.8574 15.6416v-547.494l-93.8564 -15.6426v115.735c-33.5723 -72.8447 -107.551 -118.456 -187.713 -115.735c-125.142 0 -218.998 62.5703 -218.998 203.354v344.14l93.8564 15.6426v-359.782c0 -112.836 31.2852 -187.712 140.784 -187.712
s172.069 93.8564 172.069 187.713v344.14z" />
    <glyph glyph-name="u" unicode="&#xfa;" horiz-adv-x="641" 
d="M472.71 547.517l93.8574 15.6416v-547.494l-93.8564 -15.6426v115.735c-33.5723 -72.8447 -107.551 -118.456 -187.713 -115.735c-125.142 0 -218.998 62.5703 -218.998 203.354v344.14l93.8564 15.6426v-359.782c0 -112.836 31.2852 -187.712 140.784 -187.712
s172.069 93.8564 172.069 187.713v344.14z" />
    <glyph glyph-name="u" unicode="&#xf9;" horiz-adv-x="641" 
d="M472.71 547.517l93.8574 15.6416v-547.494l-93.8564 -15.6426v115.735c-33.5723 -72.8447 -107.551 -118.456 -187.713 -115.735c-125.142 0 -218.998 62.5703 -218.998 203.354v344.14l93.8564 15.6426v-359.782c0 -112.836 31.2852 -187.712 140.784 -187.712
s172.069 93.8564 172.069 187.713v344.14z" />
    <glyph glyph-name="v" unicode="v" horiz-adv-x="588" 
d="M568.909 556.088l-233.556 -470.219l15.1836 -30.8477l-77.2539 -55.083l-250.283 508.033l77.2539 55.1035l226.402 -459.541l228.237 459.52z" />
    <glyph glyph-name="w" unicode="w" horiz-adv-x="901" 
d="M881.763 556.088l-233.556 -470.219l15.2051 -30.8477l-77.2744 -55.083l-146.124 296.627l-104.66 -210.696l15.2051 -30.8477l-77.2754 -55.083l-250.283 508.033l77.2744 55.1035l226.381 -459.541l104.66 210.676l-95.4619 193.761l77.2754 55.1035l70.6006 -143.329
l71.1641 143.308l14.0156 -6.96582l-76.4824 -153.986l147.083 -298.566l228.237 459.52z" />
    <glyph glyph-name="x" unicode="x" horiz-adv-x="538" 
d="M506.414 67.9531l-60.9648 -73.3525l-202.771 241.648l-198.287 -236.33l-11.9932 10.0742l200.08 238.415l-202.479 241.314l60.9648 73.3535l202.771 -241.648l198.287 236.309l11.9932 -10.0527l-200.08 -238.437z" />
    <glyph glyph-name="y" unicode="y" horiz-adv-x="560" 
d="M523.399 563.075l14.6846 -5.56836l-280.672 -687.006c-29.5547 -73.0205 -134.173 -67.7852 -172.967 -36.166l14.5996 31.1396c32.3281 -26.3428 114.567 -59.0879 143.767 10.6787l81.5713 199.705l-59.6299 -42.5273l-241.753 474.453l77.1709 55.1035
l234.828 -460.938z" />
    <glyph glyph-name="y" unicode="&#xff;" horiz-adv-x="560" 
d="M523.399 563.075l14.6846 -5.56836l-280.672 -687.006c-29.5547 -73.0205 -134.173 -67.7852 -172.967 -36.166l14.5996 31.1396c32.3281 -26.3428 114.567 -59.0879 143.767 10.6787l81.5713 199.705l-59.6299 -42.5273l-241.753 474.453l77.1709 55.1035
l234.828 -460.938z" />
    <glyph glyph-name="y" unicode="&#xfd;" horiz-adv-x="560" 
d="M523.399 563.075l14.6846 -5.56836l-280.672 -687.006c-29.5547 -73.0205 -134.173 -67.7852 -172.967 -36.166l14.5996 31.1396c32.3281 -26.3428 114.567 -59.0879 143.767 10.6787l81.5713 199.705l-59.6299 -42.5273l-241.753 474.453l77.1709 55.1035
l234.828 -460.938z" />
    <glyph glyph-name="z" unicode="z" horiz-adv-x="549" 
d="M511.281 547.517v-15.6436l-375.425 -422.353s15.6426 -93.8564 140.784 -93.8564c172.069 0 203.354 172.069 203.354 172.069l31.2852 -46.9277s-46.9277 -140.784 -250.283 -140.784c-172.069 0 -218.997 93.8564 -218.997 93.8564v15.6426l375.425 422.353h-281.568
v-62.5703l-93.8564 -15.6426v93.8564l93.8564 15.6426v-15.6426h375.425z" />
    <glyph glyph-name="braceleft" unicode="{" horiz-adv-x="326" 
d="M294.641 -172.048l31.2852 -0.00195312v-15.6426h-31.2852c-78.2139 0 -140.784 62.5703 -140.784 265.926s-62.5703 218.998 -93.8555 218.998v15.6426c31.2852 0 93.8555 15.6426 93.8555 218.998s62.5703 265.926 140.784 265.926h31.2852v-15.6426h-31.2852
c-46.9277 0 -62.5703 -125.142 -62.5703 -250.283c0 -105.849 -33.5801 -200.038 -81.7178 -226.818c48.1377 -26.7803 81.7178 -121.074 81.7178 -226.818c0 -125.142 15.6426 -250.283 62.5703 -250.283z" />
    <glyph glyph-name="braceright" unicode="}" horiz-adv-x="326" 
d="M172.069 531.873c0 -203.355 62.5703 -218.996 93.8555 -218.996v-15.6426c-31.2852 0 -93.8555 -15.6426 -93.8555 -218.998s-62.5703 -265.926 -140.784 -265.926h-31.2852v15.6426h31.2852c46.9277 0 62.5703 125.142 62.5703 250.283
c0 105.849 33.5586 200.038 81.6963 226.818c-48.1377 26.7803 -81.6963 121.074 -81.6963 226.818c0 125.142 -15.6426 250.283 -62.5703 250.283h-31.2852v15.6426h31.2852c78.2139 0 140.784 -62.5703 140.784 -265.926z" />
    <glyph glyph-name="nonbreakingspace" unicode="&#xa0;" horiz-adv-x="330" 
 />
    <glyph glyph-name="cent" unicode="&#xa2;" horiz-adv-x="613" 
d="M552.965 78.2354c-48.4531 -41.9961 -108.425 -68.4355 -172.111 -75.8779v-111.835l-93.8564 -15.6426v130.669c-125.893 22.3164 -218.998 114.212 -218.998 276.041s93.1055 253.725 218.998 276.042v115.026l93.8564 15.6426v-126.602
c50.249 -3.31152 98.7793 -19.6035 140.848 -47.2832l-30.2637 -64.3232c-38.0859 59.0586 -102.865 95.5146 -173.113 97.4229c-125.142 0 -156.427 -140.784 -156.427 -265.926c0 -187.712 125.142 -265.926 218.998 -265.926
c63.9443 5.12207 121.816 39.8457 156.427 93.8564z" />
    <glyph glyph-name="sterling" unicode="&#xa3;" horiz-adv-x="723" 
d="M247.712 375.446l-0.000976562 -359.783h406.71v-15.6426h-594.422v15.6426h93.8564v359.782h-93.8564v15.6426h93.8564v15.6426c0 139.053 78.2139 328.496 301.258 328.496c81.7803 0 154.529 -12.2012 210.321 -44.6133l-27.2812 -60.0049
c-41.6934 58.3164 -110.083 88.9766 -202.729 88.9766c-172.069 0 -187.712 -189.443 -187.712 -328.496h297.211v-15.6426h-297.211z" />
    <glyph glyph-name="yen" unicode="&#xa5;" horiz-adv-x="750" 
d="M420.72 265.99l0.331055 -0.0390625h234.64v-15.6396h-234.64v-125.15h234.64v-15.6396h-234.64v-93.8604l-93.8604 -15.6396v109.5h-234.64v15.6396h234.64v101.39l-13.8203 23.7598h-220.82v15.6396h211.7l-238.25 409.11l73.3398 60.1699l268.28 -460.67l265.8 460.42
l13.5596 -7.82031z" />
    <glyph glyph-name="copyright" unicode="&#xa9;" horiz-adv-x="891" 
d="M445.425 735.229c203.438 0 375.425 -109.499 375.425 -359.782s-172.069 -375.425 -375.425 -375.425s-375.425 125.142 -375.425 375.425s172.069 359.782 375.425 359.782zM476.71 15.665c187.712 0 250.282 187.712 250.282 359.781
c0 250.283 -172.069 344.14 -312.854 344.14c-187.712 0 -250.282 -172.069 -250.282 -344.139c0 -250.283 172.069 -359.782 312.854 -359.782zM494.376 182.958c44.3955 3.5332 84.5859 27.6162 108.643 65.0957l10.8662 -21.7334
c-39.4072 -33.8281 -89.3008 -52.9873 -141.222 -54.2275c-108.581 0 -195.533 65.1777 -195.533 195.533s86.8896 195.533 195.533 195.533c42.3447 1.02441 84.0107 -10.7754 119.531 -33.8506l-21.0029 -44.6543c-26.4717 41.0068 -71.4688 66.3154 -120.26 67.6387
c-86.9111 0 -108.623 -97.7568 -108.623 -184.668c0 -130.439 86.8896 -184.667 152.067 -184.667z" />
    <glyph glyph-name="guillemotleft" unicode="&#xab;" horiz-adv-x="366" 
d="M194.951 185.091l-31.9531 -25.0918l-108.998 137.197l108.998 136.905l31.9531 -25.0283l-89.2676 -111.835zM309.31 185.09l-31.9531 -25.0918l-109.02 137.197l109.02 136.905l31.9531 -25.0283l-89.2881 -111.835z" />
    <glyph glyph-name="softhyphen" unicode="&#xad;" horiz-adv-x="0" 
 />
    <glyph glyph-name="registered" unicode="&#xae;" horiz-adv-x="891" 
d="M445.425 735.229c203.271 0 375.425 -109.499 375.425 -359.782s-172.069 -375.425 -375.425 -375.425s-375.425 125.142 -375.425 375.425s172.069 359.782 375.425 359.782zM476.71 15.665c187.712 0 250.282 187.712 250.282 359.781
c0 250.283 -172.069 344.14 -312.854 344.14c-187.712 0 -250.282 -172.069 -250.282 -344.139c0 -250.283 172.069 -359.782 312.854 -359.782zM494.084 563.159c76.0439 0 119.489 -54.3125 119.489 -130.356l-65.1777 -10.8662
c0 54.3115 -10.8662 130.355 -65.1777 130.355s-97.7568 -65.1777 -97.7568 -130.355v-238.979l-65.1777 -10.8662v369.397l65.1777 10.8662v-64.2812c16.7285 45.4482 60.1963 75.4951 108.623 75.085z" />
    <glyph glyph-name="guillemotright" unicode="&#xbb;" horiz-adv-x="367" 
d="M197.972 297.135l-109.02 -137.134l-31.9531 25.0283l89.2676 112.147l-89.2676 111.835l31.9531 25.0283zM312.309 297.135l-109.02 -137.134l-31.9531 25.0283l89.2676 112.147l-89.2676 111.835l31.9531 25.0283z" />
    <glyph glyph-name="Acircumflex" unicode="&#xc2;" horiz-adv-x="710" 
d="M347.9 860.37c0 0 -47.1182 -62.5703 -78.3984 -62.5703l-15.6504 31.2803c36.9297 0 71.6992 17.3896 93.8594 46.9297c28.5898 -17.2305 60.6396 -27.9102 93.8594 -31.2803v-15.6504c-33.21 3.15039 -65.25 13.8506 -93.6699 31.291zM614.593 -0.709961
l-113.71 250.432c-134.8 -5.90039 -253.37 -59.3008 -389.25 -61.7412l-84.3203 -189.42l-14.3096 6.37988l296.6 666.17l-4.54004 10.0195l13.3701 9.78027l63.8203 46.6504l309.52 -681.83zM118.703 203.691l0.0195312 0.0996094
c130.61 4.03027 245.74 53.9805 375.24 61.1104l-175.68 387.05z" />
    <glyph glyph-name="Ccedilla" unicode="&#xc7;" horiz-adv-x="726" 
d="M699.905 106.977c-45.1953 -45.4561 -102.05 -77.5713 -164.312 -92.8145v-0.166992c-91.708 -27.7188 -113.17 -92.1875 -113.17 -170.401l-46.9277 31.2852c0 68.6611 29.0742 101.678 84.6367 126.706c-12.4307 -0.980469 -24.9863 -1.56445 -37.709 -1.56445
c-203.355 0 -375.425 125.142 -375.425 375.425s172.069 359.782 375.425 359.782c82.6221 1.77637 163.765 -22.0938 232.263 -68.3271l-27.1143 -63.3008c-57.2197 72.375 -144.094 115 -236.351 115.965c-187.712 0 -250.282 -172.069 -250.282 -344.139
c0 -250.283 172.069 -359.782 312.854 -359.782c93.6035 2.21484 178.123 56.5488 218.998 140.785z" />
    <glyph glyph-name="Ecircumflex" unicode="&#xca;" horiz-adv-x="596" 
d="M329.555 860.37c0 0 -47.1992 -62.5703 -78.4014 -62.5703l-15.6426 31.2852c36.9277 0 71.7002 17.3857 93.8564 46.9277c28.5918 -17.2305 60.6445 -27.915 93.8564 -31.2852v-15.6426c-33.2012 3.14453 -65.2422 13.8467 -93.6689 31.2852zM470.067 719.586
l93.8564 15.6426v-93.8564l-93.8564 -15.6426v78.2139h-297.211v-327.934c97.4014 5.69434 182.79 62.0078 281.568 62.0078v-15.6426c-98.7783 0 -184.167 -56.293 -281.568 -62.0078v-329.06h297.211v31.2852l93.8564 15.6426v-62.5703l-93.8564 -15.6426v15.6426
h-297.211l-93.8564 -15.6426v719.563l93.8564 15.6426v-15.6426h297.211z" />
    <glyph glyph-name="Ocircumflex" unicode="&#xd4;" horiz-adv-x="845" 
d="M391.327 860.37c0 0 -47.1992 -62.5703 -78.4014 -62.5703l-15.6426 31.2852c36.9277 0 71.7002 17.3857 93.8564 46.9277c28.5918 -17.2305 60.6445 -27.915 93.8564 -31.2852v-15.6426c-33.2012 3.14453 -65.2422 13.8467 -93.6689 31.2852zM422.425 735.229
c203.271 0 375.425 -109.499 375.425 -359.782s-172.069 -375.425 -375.425 -375.425s-375.425 125.142 -375.425 375.425s172.069 359.782 375.425 359.782zM453.71 15.665c187.712 0 250.282 187.712 250.282 359.781c0 250.283 -172.069 344.14 -312.854 344.14
c-187.712 0 -250.282 -172.069 -250.282 -344.139c0 -250.283 172.069 -359.782 312.854 -359.782z" />
    <glyph glyph-name="multiply" unicode="&#xd7;" horiz-adv-x="495" 
d="M435.074 519.234l-143.788 -143.788l143.788 -143.788l-44.2373 -44.2588l-143.788 143.809l-143.809 -143.809l-44.2373 44.2588l143.788 143.788l-143.788 143.788l44.2373 44.2588l143.809 -143.809l143.788 143.809z" />
    <glyph glyph-name="acircumflex" unicode="&#xe2;" 
d="M314.11 688.22c0 0 -47.1094 -62.5703 -78.3994 -62.4902l-15.6396 31.29c36.9297 0 71.6992 17.3799 93.8594 46.9199c28.5898 -17.2305 60.6396 -27.9102 93.8496 -31.2803v-15.7305c-33.2002 3.15039 -65.2402 13.8506 -93.6699 31.291zM517.281 547.52
l93.8594 15.6406v-547.5l-93.8604 -15.6396v60.7002c-53.7197 -41.2305 -120.02 -62.6709 -187.71 -60.7012c-156.43 0 -281.569 93.8604 -281.569 281.57s125.14 281.57 281.569 281.57c67.6904 1.95996 133.98 -19.4805 187.711 -60.6904v45.0498zM360.851 15.6602
c62.7402 2.62012 120.632 34.459 156.432 86.0391v344.37c-57.0703 60.9502 -135.601 97.3301 -219.001 101.45c-125.14 0 -156.42 -140.79 -156.42 -265.93c0 -187.71 125.14 -265.93 218.989 -265.93z" />
    <glyph glyph-name="ccedilla" unicode="&#xe7;" horiz-adv-x="563" 
d="M532.88 78.2402c-31.4004 -28.46 -68.8096 -49.4814 -109.449 -61.4912v-0.290039c-91.71 -27.7402 -109.5 -94.6504 -109.5 -172.87l-46.9297 31.29c0 66.9502 27.6797 100.8 80.6094 126.16c-6.12988 -0.480469 -12.2803 -1.02051 -18.04 -1.02051
c-156.43 0 -281.569 93.8604 -281.569 281.57s125.14 281.57 281.569 281.57c60.9805 1.46973 120.98 -15.5205 172.131 -48.7402l-30.2598 -64.3096c-38.0898 59.0498 -102.87 95.5 -173.11 97.4102c-125.15 0 -156.431 -140.79 -156.431 -265.93
c0 -187.71 125.14 -265.93 219 -265.93c63.9404 5.12012 121.82 39.8506 156.42 93.8604z" />
    <glyph glyph-name="ecircumflex" unicode="&#xea;" horiz-adv-x="635" 
d="M308.96 688.22c0 0 -47.1094 -62.5703 -78.3994 -62.4902l-15.6396 31.29c36.9297 0 71.6992 17.3799 93.8496 46.9199c28.5996 -17.2305 60.6494 -27.9102 93.8594 -31.2803v-15.7305c-33.2002 3.15039 -65.2402 13.8506 -93.6699 31.291zM360.851 15.6602
c63.9102 5.12988 121.758 39.833 156.368 93.8027l15.6396 -31.29c-46.9297 -46.9297 -138.3 -78.21 -203.35 -78.21c-147.46 0 -267.01 83.4297 -280.26 250.279c-0.790039 10.1201 -1.25 20.5303 -1.25 31.29c0 187.71 125.14 281.57 281.569 281.57
c8.36035 -0.0195312 16.6201 -0.299805 24.7998 -0.839844c3 -0.209961 5.94043 -0.599609 8.90039 -0.869141c5.11035 -0.459961 10.2207 -0.879883 15.251 -1.57031c3.58984 -0.480469 7.08984 -1.19043 10.6602 -1.77051
c4.25 -0.730469 8.53027 -1.38086 12.7002 -2.25098c3.83984 -0.820312 7.58984 -1.80078 11.3496 -2.74121c3.75 -0.929688 7.32031 -1.76953 11.2207 -2.88965c3.90039 -1.12988 7.69043 -2.41992 11.5107 -3.71973c3.41992 -1.12012 6.82031 -2.23047 10.1602 -3.5
c3.86035 -1.44043 7.61035 -3.05078 11.3604 -4.6709c3.12988 -1.37988 6.2998 -2.74023 9.38965 -4.16992c3.70996 -1.78027 7.33984 -3.68066 10.9502 -5.59082c2.95996 -1.58984 5.91992 -3.16992 8.83984 -4.87988c3.49023 -1.91992 6.87012 -4.17969 10.2197 -6.25977
c1.58984 -1.01953 3.25977 -1.91992 4.81934 -2.97949l-0.0996094 -0.209961c56.9404 -39.6797 94.7705 -101.3 104.391 -170.03h-88.71c-131.63 0 -245.189 -57.71 -375.42 -62.1504v-0.419922c0 -187.71 125.14 -265.93 218.989 -265.93zM298.278 547.523
c-119.82 0 -153.499 -129.11 -156.169 -249.891c127.31 4.41992 238.79 59.5 366.75 61.8799c-6.9502 32.9404 -20.0898 64.25 -38.7402 92.2695c-4.90039 7.25 -10.2207 14.21 -15.9111 20.8604c-1.05957 1.25 -2.20996 2.36035 -3.2998 3.57031
c-4.78027 5.29004 -9.70996 10.2803 -14.7803 14.9502c-1.65039 1.51953 -3.30078 3.0293 -4.9707 4.48926c-5.86035 5.12012 -11.9805 9.92969 -18.3506 14.4102c-0.25 0.160156 -0.5 0.370117 -0.75 0.560547c-6.50977 4.41992 -13.25 8.49023 -20.1904 12.2002
c-1.76953 0.94043 -3.5498 1.82031 -5.31934 2.70996c-5.50977 2.78027 -11.0693 5.2998 -16.6895 7.53027c-1.5 0.610352 -2.98047 1.27051 -4.48047 1.84082c-6.75977 2.53027 -13.6494 4.69043 -20.6494 6.48047c-1.44043 0.379883 -2.88086 0.629883 -4.32129 0.979492
c-5.55957 1.2998 -11.1191 2.33984 -16.6787 3.12988c-1.87988 0.269531 -3.75 0.549805 -5.58984 0.75c-6.58984 0.790039 -13.2197 1.21973 -19.8594 1.2793z" />
    <glyph glyph-name="ocircumflex" unicode="&#xf4;" horiz-adv-x="660" 
d="M329.57 563.08c156.43 0 281.569 -93.8604 281.569 -281.57c0 -187.72 -125.14 -281.569 -281.569 -281.569s-281.569 93.8496 -281.569 281.569c0 187.71 125.14 281.57 281.569 281.57zM360.851 15.5801v0.0800781c125.15 0 156.431 140.71 156.431 265.85
c0 187.71 -125.14 265.92 -219 265.92c-125.14 0 -156.42 -140.78 -156.42 -265.92c0 -187.72 125.14 -265.93 218.989 -265.93zM308.98 688.22c0 0 -47.1289 -62.5703 -78.4189 -62.4902l-15.6396 31.29c36.9297 0 71.6992 17.3799 93.8496 46.9199
c28.5996 -17.2197 60.6494 -27.9102 93.8594 -31.2803v-15.7305c-33.1904 3.15039 -65.2305 13.8506 -93.6504 31.291z" />
    <glyph glyph-name="divide" unicode="&#xf7;" horiz-adv-x="552" 
d="M275.641 563.159c-25.918 0 -46.9287 21.0107 -46.9287 46.9287s21.0107 46.9287 46.9287 46.9287s46.9287 -21.0107 46.9287 -46.9287s-21.0107 -46.9287 -46.9287 -46.9287zM275.641 109.521c-25.918 0 -46.9287 21.0107 -46.9287 46.9287
s21.0107 46.9287 46.9287 46.9287s46.9287 -21.0107 46.9287 -46.9287s-21.0107 -46.9287 -46.9287 -46.9287zM510.281 344.162h-469.281v62.5703h469.281v-62.5703z" />
    <glyph glyph-name="Abreve" unicode="&#x102;" horiz-adv-x="710" 
d="M347.69 782.16c-31.29 0 -78.3008 15.6406 -78.2207 62.5703h15.6504c0 -31.29 31.2803 -46.9297 62.3604 -46.9297c31.4902 0 47.1299 15.6396 47.1299 62.5693l31.29 -15.6396c0 -31.29 -31.29 -62.5703 -78.21 -62.5703zM614.59 -0.708984l-113.71 250.432
c-134.8 -5.90039 -253.37 -59.3008 -389.25 -61.7412l-84.3301 -189.42l-14.2998 6.37988l296.6 666.17l-4.54004 10.0195l13.3604 9.78027l63.8301 46.6504l309.51 -681.83zM118.7 203.692v0.0996094c130.6 4.03027 245.729 53.9805 375.26 61.1104l-175.68 387.05z" />
    <glyph glyph-name="abreve" unicode="&#x103;" 
d="M313.93 625.65c-31.29 0 -78.2197 15.7207 -78.2197 62.5703h15.6504c0 -31.29 31.2803 -46.9297 62.3799 -46.9297c31.4697 0 47.1094 15.6396 47.1094 62.5693l31.29 -15.6396c0 -31.29 -31.29 -62.5703 -78.21 -62.5703zM517.279 547.521l93.8594 15.6406v-547.5
l-93.8604 -15.6396v60.7002c-53.7197 -41.2305 -120.02 -62.6709 -187.71 -60.7012c-156.43 0 -281.569 93.8604 -281.569 281.57s125.14 281.57 281.569 281.57c67.6904 1.95996 133.98 -19.4805 187.711 -60.6904v45.0498zM360.849 15.6621
c62.7402 2.62012 120.632 34.459 156.432 86.0391v344.37c-57.0703 60.9502 -135.601 97.3301 -219.001 101.45c-125.14 0 -156.42 -140.79 -156.42 -265.93c0 -187.71 125.14 -265.93 218.989 -265.93z" />
    <glyph glyph-name="Cacute" unicode="&#x106;" horiz-adv-x="726" 
d="M422.425 860.37c-27.1904 -17.125 -44.6133 -46.1631 -46.9277 -78.2139h-15.6426s0 78.2139 46.9277 109.499zM672.708 156.449l27.1123 -49.4531c-74.1191 -71.8213 -174.246 -110.435 -277.396 -106.976c-203.355 0 -375.425 125.142 -375.425 375.425
s172.069 359.782 375.425 359.782c82.584 1.76074 163.687 -22.1016 232.158 -68.3066l-27.1143 -63.3008c-57.2148 72.3691 -144.08 114.993 -236.329 115.965c-187.712 0 -250.282 -172.069 -250.282 -344.139c0 -250.283 172.069 -359.782 312.854 -359.782
c93.6035 2.21484 178.123 56.5488 218.998 140.785z" />
    <glyph glyph-name="cacute" unicode="&#x107;" horiz-adv-x="562" 
d="M517.32 109.52l15.5977 -31.2812c-46.9199 -46.9297 -138.3 -78.2197 -203.35 -78.2197c-156.43 0 -281.569 93.8604 -281.569 281.57s125.14 281.57 281.569 281.57c60.9805 1.46973 120.98 -15.5303 172.131 -48.7607l-30.2598 -64.3096
c-38.0996 59.0498 -102.869 95.5098 -173.119 97.4297c-125.14 0 -156.42 -140.79 -156.42 -265.93c0 -187.71 125.14 -265.93 219 -265.93c63.9404 5.12012 121.82 39.8506 156.42 93.8604zM329.608 688.219c-27.1904 -17.1299 -44.6094 -46.1699 -46.9297 -78.2197
h-15.6396s0 78.2197 46.9297 109.5z" />
    <glyph glyph-name="Ccaron" unicode="&#x10c;" horiz-adv-x="726" 
d="M496.467 844.728c-36.9277 0 -71.6992 -17.3848 -93.8555 -46.9268c-28.5938 17.2266 -60.6455 27.9102 -93.8564 31.2842v15.6426c33.1934 -3.14844 65.2266 -13.8496 93.6475 -31.2852c0 0 47.1367 62.5703 78.4219 62.5703zM672.709 156.45l27.1133 -49.4531
c-74.125 -71.8135 -174.248 -110.425 -277.397 -106.975c-203.355 0 -375.425 125.142 -375.425 375.425s172.069 359.782 375.425 359.782c82.5918 1.76465 163.702 -22.0977 232.18 -68.3066l-27.1143 -63.3008c-57.2236 72.3701 -144.096 114.993 -236.351 115.964
c-187.712 0 -250.282 -172.069 -250.282 -344.139c0 -250.283 172.069 -359.782 312.854 -359.782c93.6035 2.21484 178.123 56.5488 218.998 140.785z" />
    <glyph glyph-name="ccaron" unicode="&#x10d;" horiz-adv-x="562" 
d="M392.18 672.66c-36.9297 0 -71.7002 -17.3887 -93.8604 -46.9287c-28.5898 17.2305 -60.6396 27.9102 -93.8496 31.29v15.6396c33.2002 -3.15039 65.2402 -13.8506 93.6699 -31.291c0 0 47.1104 62.5703 78.4004 62.5703zM517.318 109.521l15.5977 -31.2812
c-46.9199 -46.9297 -138.3 -78.2197 -203.35 -78.2197c-156.43 0 -281.569 93.8604 -281.569 281.57s125.14 281.57 281.569 281.57c60.9805 1.46973 120.98 -15.5303 172.131 -48.7607l-30.2598 -64.3096c-38.0996 59.0498 -102.869 95.5098 -173.119 97.4297
c-125.14 0 -156.42 -140.79 -156.42 -265.93c0 -187.71 125.14 -265.93 219 -265.93c63.9404 5.12012 121.82 39.8506 156.42 93.8604z" />
    <glyph glyph-name="Dslash" unicode="&#x110;" horiz-adv-x="760" 
d="M336.568 735.229c203.271 0 375.425 -109.499 375.425 -359.782s-156.427 -375.425 -359.782 -375.425c-55.4375 0 -172.069 15.6426 -172.069 15.6426l-93.8564 -15.6426v359.782h-31.2852v15.6426h31.2852v344.14l93.8564 15.6426h156.427zM367.854 15.665
c187.712 0 250.282 187.712 250.282 359.781c0 250.283 -172.069 344.14 -312.854 344.14h-125.142v-344.14h156.427v-15.6426h-156.427v-328.496s125.371 -15.6426 187.713 -15.6426z" />
    <glyph glyph-name="dmacron" unicode="&#x111;" horiz-adv-x="685" 
d="M642.42 625.65l-0.000976562 -15.5596h-31.2803v-594.43l-93.8604 -15.6396v60.7002c-53.7197 -41.2305 -120.02 -62.6709 -187.71 -60.7012c-156.43 0 -281.569 93.8604 -281.569 281.57s125.14 281.57 281.569 281.57
c67.6904 1.95996 133.98 -19.4805 187.711 -60.6904v107.62h-156.43v15.6396h156.43v93.8604l93.8604 15.6396v-109.58h31.2803zM360.849 15.5811l0.00195312 0.0800781c62.7197 2.59961 120.609 34.4092 156.43 85.959v344.36
c-57.0703 60.96 -135.601 97.3398 -219.001 101.45c-125.14 0 -156.42 -140.78 -156.42 -265.92c0 -187.72 125.14 -265.93 218.989 -265.93z" />
    <glyph glyph-name="Scaron" unicode="&#x160;" horiz-adv-x="698" 
d="M437.15 844.705c-36.9277 0 -71.6992 -17.3848 -93.8555 -46.9268c-28.5938 17.2266 -60.6455 27.9102 -93.8564 31.2842v15.6426c33.1934 -3.14844 65.2266 -13.8496 93.6475 -31.2852c0 0 47.1367 62.5703 78.4219 62.5703zM358.854 406.711
c83.0732 -11.8467 297.296 -57.877 297.213 -200.226c0 -162.684 -101.678 -206.483 -305.033 -206.483c-244.026 0 -305.033 125.142 -305.033 125.142l40.6709 46.9277s81.3418 -156.427 264.361 -156.427c142.349 0 211.177 86.0352 211.177 187.713
s-91.7705 166.501 -218.998 187.713c-93.8564 15.6426 -297.212 14.0781 -297.212 156.427s114.191 187.713 297.211 187.713c101.678 0 219.832 -21.1699 281.568 -63.3848l-46.9277 -61.7578c-58.4619 87.5986 -159.097 109.498 -234.641 109.498
c-122.013 0 -203.354 -70.3926 -203.354 -172.07c0 -112.481 109.499 -125.142 218.998 -140.784z" />
    <glyph glyph-name="scaron" unicode="&#x161;" horiz-adv-x="563" 
d="M375.43 672.66c-36.9199 0 -71.7002 -17.3887 -93.8506 -46.9287c-28.5898 17.2305 -60.6494 27.9102 -93.8594 31.29v15.6396c33.2002 -3.15039 65.2402 -13.8506 93.6699 -31.291c0 0 47.1201 62.5703 78.4004 62.5703zM297.22 312.791
c63.2402 -12.6602 218.997 -46.8389 219.057 -156.419c0 -125.15 -78.21 -156.431 -234.64 -156.431c-187.71 0 -234.64 93.8496 -234.64 93.8496l31.29 46.9297s62.5703 -125.14 203.351 -125.14c109.5 0 140.78 62.5703 140.78 140.79
c0 78.21 -62.5703 125.14 -140.78 140.779c-61.3604 12.2598 -234.641 15.6396 -234.641 125.14s93.8604 140.79 234.641 140.79c78.1504 0 171.511 -16.29 219.001 -48.7705l-30.2695 -64.2998c-44.3096 60.1104 -114.119 96.1406 -188.789 97.4209
c-93.8604 0 -140.79 -46.9297 -140.79 -125.14c0 -86.5596 78.2197 -93.8496 156.43 -109.5z" />
    <glyph glyph-name="Zcaron" unicode="&#x17d;" horiz-adv-x="675" 
d="M427.067 844.728c-36.9277 0 -71.7002 -17.3848 -93.8564 -46.9268c-28.5928 17.2266 -60.6445 27.9102 -93.8555 31.2842v15.6426c33.1934 -3.14844 65.2266 -13.8496 93.6475 -31.2852c0 0 47.1367 62.5703 78.4219 62.5703zM646.065 719.587l0.000976562 -15.6455
l-516.209 -563.137c35.7373 -79.4434 116.331 -129.039 203.355 -125.141c203.355 0 265.926 203.355 265.926 203.355l31.2852 -46.9277s-78.2139 -172.069 -312.854 -172.069c-203.355 0 -281.569 125.142 -281.569 125.142v15.6426l516.209 563.137h-422.353v-62.5703
l-93.8564 -15.6426v93.8564l93.8564 15.6426v-15.6426h516.209z" />
    <glyph glyph-name="zcaron" unicode="&#x17e;" horiz-adv-x="549" 
d="M370.5 672.66c-36.9297 0 -71.7012 -17.3887 -93.8613 -46.9287c-28.5898 17.2305 -60.6396 27.9102 -93.8594 31.29v15.6396c33.21 -3.15039 65.25 -13.8506 93.6699 -31.291c0 0 47.1201 62.5703 78.4004 62.5703zM511.278 547.521l-0.000976562 -15.6504
l-375.42 -422.35s15.6396 -93.8604 140.779 -93.8604c172.07 0 203.36 172.07 203.36 172.07l31.2803 -46.9199s-46.9297 -140.79 -250.279 -140.79c-172.07 0 -219 93.8604 -219 93.8604v15.6396l375.42 422.35h-281.56v-62.5703l-93.8604 -15.6396v93.8604
l93.8604 15.6396v-15.6396h375.42z" />
    <glyph glyph-name="Ohorn" unicode="&#x1a0;" horiz-adv-x="846" 
d="M642.966 679.832c93.0215 -55.6465 154.885 -154.655 154.885 -304.387c0 -250.283 -172.069 -375.425 -375.425 -375.425s-375.425 125.142 -375.425 375.425s172.069 359.782 375.425 359.782c67.1465 1.06152 133.664 -13.0771 194.574 -41.3584
c59.9844 18.959 71.3516 84.8047 71.3516 150.858l46.9277 -31.2852c0 -72.8535 -28.4492 -117.3 -92.3135 -133.61zM453.712 15.6631c187.712 0 250.282 187.712 250.282 359.781c0 250.283 -172.069 344.14 -312.854 344.14
c-187.712 0 -250.282 -172.069 -250.282 -344.139c0 -250.283 172.069 -359.782 312.854 -359.782z" />
    <glyph glyph-name="ohorn" unicode="&#x1a1;" horiz-adv-x="662" 
d="M509.08 509.14c62.4697 -46.2002 102.059 -122.079 102.059 -227.669c0 -187.72 -125.14 -281.569 -281.569 -281.569s-281.569 93.8496 -281.569 281.569c0 187.71 125.14 281.56 281.569 281.56c54.4102 1.01953 108.141 -12.2705 155.801 -38.54
c52.9805 22.1699 63.2002 85.0996 63.2002 148.08l46.9199 -31.2803c0 -70.6201 -26.5898 -114.65 -86.4102 -132.15zM360.849 15.6602c125.15 0 156.431 140.71 156.431 265.93c0 187.71 -125.14 265.93 -219 265.93c-125.14 0 -156.42 -140.79 -156.42 -265.93
c0 -187.71 125.14 -265.93 218.989 -265.93z" />
    <glyph glyph-name="Uhorn" unicode="&#x1af;" horiz-adv-x="807" 
d="M805.207 813.442c0 -79.0898 -33.4951 -124.704 -109.498 -137.155v-347.769c0 -139.053 -78.1094 -328.496 -301.278 -328.496c-185.397 0 -324.43 62.5703 -324.43 281.568v437.995l93.8564 15.6426v-453.638c0 -172.069 88.0576 -265.926 250.283 -265.926
c172.069 0 187.712 189.443 187.712 328.496v375.425l93.8564 15.6426v-38.2305c52.3926 22.3799 62.5703 84.9922 62.5703 147.729z" />
    <glyph glyph-name="uhorn" unicode="&#x1b0;" horiz-adv-x="680" 
d="M676.07 641.37c0 -79.25 -33.5 -124.81 -109.5 -137.26v-488.45l-93.8604 -15.6396v115.74c-33.5703 -72.8496 -107.551 -118.46 -187.711 -115.74c-125.14 0 -219 62.5703 -219 203.36v344.14l93.8604 15.6396v-359.78c0 -112.84 31.2803 -187.72 140.78 -187.72
s172.07 93.8604 172.07 187.721v344.14l93.8604 15.6396v-38.25c52.4102 22.3799 62.5703 85.0098 62.5703 147.75z" />
    <glyph glyph-name="Iocyrillic" unicode="&#x401;" horiz-adv-x="596" 
d="M454.425 766.493c-25.918 0 -46.9287 21.0107 -46.9287 46.9287s21.0107 46.9287 46.9287 46.9287s46.9287 -21.0107 46.9287 -46.9287s-21.0107 -46.9287 -46.9287 -46.9287zM204.142 766.493c-25.918 0 -46.9287 21.0107 -46.9287 46.9287
s21.0107 46.9287 46.9287 46.9287s46.9287 -21.0107 46.9287 -46.9287s-21.0107 -46.9287 -46.9287 -46.9287zM470.067 719.565l93.8564 15.6631v-93.8564l-93.8564 -15.6426v78.2139h-297.211v-327.954c97.4014 5.69434 182.811 62.0078 281.568 62.0078v-15.6426
c-98.7578 0 -184.167 -56.293 -281.568 -62.0078v-329.039h297.211v31.2852l93.8564 15.6426v-62.5703l-93.8564 -15.6426v15.6426h-297.211l-93.8564 -15.6426v719.563l93.8564 15.6426v-15.6631h297.211z" />
    <glyph glyph-name="Djecyrillic" unicode="&#x402;" horiz-adv-x="815" 
d="M515.57 438c139.32 0 265.86 -59.7422 265.92 -219.002c0 -145.79 -97.79 -208.13 -312.85 -217.64v16.4502c162.68 15.1699 219 109.96 219 201.19c0 124.1 -79.1104 196.14 -172.07 203.35c-53.1797 -1.05957 -105.899 -10.0498 -156.43 -26.6699v-380.02
l-93.8604 -15.6396v703.92h-156.42v-62.5703l-93.8604 -15.6396v93.8604l93.8604 15.6396v-15.6396h156.42l93.8604 15.6396v-15.6396h156.43l93.8496 15.6396v-93.8604l-93.8496 -15.6396v78.21h-156.43v-292.62c50.5303 16.6201 103.25 25.6104 156.43 26.6807z" />
    <glyph glyph-name="Ecyrillic" unicode="&#x404;" horiz-adv-x="709" 
d="M391.16 719.565c-187.649 0 -250.24 -171.925 -250.157 -343.932c149.669 2.19043 279.128 62.3623 429.652 62.3623v-15.6426c-150.295 0 -279.607 -59.9844 -429.068 -62.3408c7.07031 -239.104 174.405 -344.368 312.187 -344.368
c112.606 0 167.898 109.499 172.069 112.022l27.1143 -49.4521c-46.9902 -46.9277 -122.075 -78.2129 -230.531 -78.2129c-203.355 0 -375.425 125.142 -375.425 375.425s172.069 359.782 375.425 359.782c86.6396 0 193.239 -47.5957 257.666 -93.126l-27.1143 -47.6582
c-66.3955 75.8828 -161.067 121.133 -261.817 125.141z" />
    <glyph glyph-name="Dzecyrillic" unicode="&#x405;" horiz-adv-x="698" 
d="M358.854 406.711c83.0107 -11.8467 297.212 -57.8779 297.212 -200.227c0 -162.684 -101.678 -206.483 -305.033 -206.483c-244.026 0 -305.033 125.142 -305.033 125.142l40.6709 46.9277s81.3418 -156.427 264.361 -156.427c142.349 0 211.177 86.0352 211.177 187.713
s-91.7705 166.501 -218.998 187.713c-93.8564 15.6426 -297.212 14.0781 -297.212 156.427s114.191 187.713 297.211 187.713c101.678 0 219.854 -21.1699 281.569 -63.3848l-46.9277 -61.7578c-58.4619 87.6201 -159.097 109.499 -234.641 109.499
c-122.013 0 -203.354 -70.3926 -203.354 -172.07c0 -112.481 109.499 -125.142 218.998 -140.784z" />
    <glyph glyph-name="Icyrillic" unicode="&#x406;" horiz-adv-x="252" 
d="M79 719.565l93.8564 15.6426v-719.563l-93.8564 -15.6426v719.563z" />
    <glyph glyph-name="Yicyrillic" unicode="&#x407;" horiz-adv-x="253" 
d="M189.069 782.136c-25.918 0 -46.9287 21.0107 -46.9287 46.9287s21.0107 46.9287 46.9287 46.9287s46.9287 -21.0107 46.9287 -46.9287s-21.0107 -46.9287 -46.9287 -46.9287zM63.9277 782.136c-25.918 0 -46.9287 21.0107 -46.9287 46.9287
s21.0107 46.9287 46.9287 46.9287s46.9287 -21.0107 46.9287 -46.9287s-21.0107 -46.9287 -46.9287 -46.9287zM79.5703 0.000976562v719.563l93.8564 15.6426v-719.563z" />
    <glyph glyph-name="Jecyrillic" unicode="&#x408;" horiz-adv-x="340" 
d="M170.427 719.565l93.8564 15.6621v-531.872c0 -140.784 -62.5703 -203.354 -172.069 -203.354c-29.001 0.605469 -56.7949 11.7236 -78.2129 31.2861l31.2852 31.2852s15.6426 -46.9277 46.9277 -46.9277c62.5703 0 78.2129 62.5703 78.2129 172.069v531.852z" />
    <glyph glyph-name="Ljecyrillic" unicode="&#x409;" horiz-adv-x="1054" 
d="M753.85 437.996c139.471 0 265.928 -59.7109 265.928 -218.975s-109.499 -218.998 -312.854 -218.998c-36.9297 1.55566 -73.6113 6.7959 -109.499 15.6426l-93.8564 -15.6426v703.921h-315.336c-7.3623 -49.2637 -28.8037 -218.101 -28.8037 -516.209
c0 -125.142 -62.5703 -187.712 -140.784 -187.712l-15.6426 15.6426c78.2139 0 140.784 46.9277 140.784 187.712c0 328.496 31.2852 516.208 31.2852 516.208h328.496l93.8564 15.6426v-323.929c50.5215 16.6406 103.246 25.6387 156.427 26.6963zM706.924 15.6455
c172.069 0 218.997 103.824 218.997 203.354c0 124.099 -79.1309 196.139 -172.069 203.355c-53.1807 -1.05762 -105.905 -10.0557 -156.427 -26.6963v-364.37c35.8877 -8.84668 72.5693 -14.0869 109.499 -15.6426z" />
    <glyph glyph-name="Njecyrillic" unicode="&#x40a;" horiz-adv-x="1146" 
d="M845.492 437.996c139.471 0 265.926 -59.7109 265.926 -218.975s-109.499 -218.998 -312.854 -218.998c-36.9297 1.55566 -73.6113 6.7959 -109.499 15.6426l-93.8564 -15.6426v422.353c-147.813 0 -274.52 -62.5703 -422.354 -62.5703v-344.14l-93.8564 -15.6426
v719.563l93.8564 15.6426v-359.782c147.834 0 274.54 62.5703 422.354 62.5703v281.568l93.8564 15.6426v-323.908c37.001 11.6641 75.0059 19.8613 113.524 24.4863c14.2549 1.45703 28.5742 2.1875 42.9033 2.18945zM798.564 15.6455
c172.069 0 218.998 103.823 218.998 203.353c0 124.099 -79.1309 196.139 -172.069 203.355c-14.3291 -0.00195312 -28.6484 -0.732422 -42.9033 -2.18945c-38.5205 -4.62305 -76.5264 -12.8271 -113.524 -24.5059v-364.37
c35.8877 -8.84668 72.5693 -14.0869 109.499 -15.6426z" />
    <glyph glyph-name="Tshecyrillic" unicode="&#x40b;" horiz-adv-x="823" 
d="M515.566 437.996c134.673 0 265.863 -62.5723 265.926 -203.336v-219.019l-93.8564 -15.6426v218.998c0 124.099 -79.1104 196.139 -172.069 203.355c-53.1787 -1.0625 -105.901 -10.0537 -156.427 -26.6758v-380.013l-93.8564 -15.6426v703.921h-156.427v-62.5703
l-93.8564 -15.6426v93.8564l93.8564 15.6426v-15.6426h156.427l93.8564 15.6426v-15.6426h156.427l93.8564 15.6426v-93.8564l-93.8564 -15.6426v78.2139h-156.427v-292.623c50.5254 16.6221 103.248 25.6133 156.427 26.6758z" />
    <glyph glyph-name="Ushortcyrillic" unicode="&#x40e;" horiz-adv-x="653" 
d="M423.21 844.71c-36.9297 0 -71.7002 -17.3896 -93.8604 -46.9297c-28.5898 17.2305 -60.6396 27.9102 -93.8496 31.2803v15.6504c33.2002 -3.15039 65.2402 -13.8506 93.6699 -31.291c0 0 47.1104 62.5703 78.4004 62.5703zM628.709 734.96l13.5596 -7.7998
l-384.33 -665.71c-16.6201 -29.96 -45.2402 -51.3896 -78.6602 -58.9092s-68.46 -0.419922 -96.3096 19.5303l14.5996 31.1396c32.3301 -26.3701 111.21 -55.6104 146.79 16.0596l110.21 190.88l-62.4297 -50.7002l-271.14 466l73.5898 59.7803l268.11 -460.94z" />
    <glyph glyph-name="Dzhecyrillic" unicode="&#x40f;" horiz-adv-x="771" 
d="M596.146 719.565l93.918 15.665v-719.563h-187.712c-93.8564 0 -109.499 -78.2139 -109.499 -156.428l-46.9277 31.2852c0 62.6963 21.0859 104.285 67.6182 125.142h-239.688l-93.8564 -15.6426v719.563l93.8564 15.6426v-703.942h422.29v688.278z" />
    <glyph glyph-name="Acyrillic" unicode="&#x410;" horiz-adv-x="711" 
d="M615.52 -3.11035l-113.632 250.602c-134.8 -5.90039 -253.37 -59.3008 -389.25 -61.7412l-84.3496 -189.42l-14.29 6.25977l296.61 666.19l-4.5498 10.0098l13.3701 9.78027l63.8203 46.6602l309.44 -681.9zM119.638 201.401
c130.61 4.01953 245.74 54.0107 375.26 61.2109l-175.7 387.02z" />
    <glyph glyph-name="Becyrillic" unicode="&#x411;" horiz-adv-x="794" 
d="M485.71 437.996c139.366 0 265.926 -59.7129 265.926 -218.977s-116.632 -218.998 -375.425 -218.998c-79.6318 0 -203.355 15.6426 -203.355 15.6426l-93.8564 -15.6426v719.563l93.8564 15.6426h516.209v-93.877l-93.8564 -15.6426v93.8564h-422.353v-342.825
c114.358 8.61426 191.175 61.2568 312.854 61.2568zM391.854 15.6436c199.059 0 265.926 103.825 265.926 203.354c0 124.099 -79.1309 196.139 -172.069 203.355c-121.68 0 -198.496 -52.6426 -312.854 -61.2568v-329.811s139.366 -15.6426 218.998 -15.6426z" />
    <glyph glyph-name="Vecyrillic" unicode="&#x412;" horiz-adv-x="797" 
d="M586.07 426.4c94.8604 -24.0898 166.569 -87.4502 166.569 -207.4c0 -159.26 -116.64 -219 -375.43 -219c-79.6299 0 -203.35 15.6396 -203.35 15.6396l-93.8604 -15.6396v719.56l93.8604 15.6504h265.92c122.45 0 250.29 -40.21 250.29 -160.89
c0 -97.2002 -52.1699 -136.34 -104 -147.92zM424.14 719.561l-250.28 -0.000976562v-342.82c109.97 8.28027 185.37 57.1104 299.19 60.8604l-1.98047 0.400391c80.4404 0 125.141 60.3398 125.141 140.78c0 100.57 -91.6299 140.78 -172.07 140.78zM392.85 15.6396
c199.06 0 265.93 103.83 265.93 203.36c0 124.1 -79.1299 196.14 -172.07 203.35c-121.68 0 -198.5 -52.6396 -312.85 -61.25v-329.81s139.36 -15.6504 218.99 -15.6504z" />
    <glyph glyph-name="Gecyrillic" unicode="&#x413;" horiz-adv-x="578" 
d="M470.067 719.565l93.8564 15.6426v-93.8564l-93.8564 -15.6426v78.2139h-297.211v-688.278l-93.8564 -15.6426v719.563h391.067z" />
    <glyph glyph-name="Decyrillic" unicode="&#x414;" horiz-adv-x="785" 
d="M677.636 11.499l78.2139 0.000976562v-93.8564l-93.8564 -15.6426v93.8564h-563.137v-78.2139l-93.8564 -15.6426v109.499h78.2139c78.2139 0 140.784 46.9277 140.784 187.712c0 328.496 31.2852 516.208 31.2852 516.208h328.496l93.8564 15.6426v-719.563z
M161.156 11.5h422.624v688.278h-315.336c-7.3623 -49.2637 -28.8027 -218.101 -28.8027 -516.209c0 -89.2256 -31.8906 -146.457 -78.4854 -172.069z" />
    <glyph glyph-name="Iecyrillic" unicode="&#x415;" horiz-adv-x="596" 
d="M470.067 719.565l93.8564 15.6631v-93.8564l-93.8564 -15.6426v78.2139h-297.211v-327.954c97.4014 5.69434 182.811 62.0078 281.568 62.0078v-15.6426c-98.7578 0 -184.167 -56.293 -281.568 -62.0078v-329.039h297.211v31.2852l93.8564 15.6426v-62.5703
l-93.8564 -15.6426v15.6426h-297.211l-93.8564 -15.6426v719.563l93.8564 15.6426v-15.6631h297.211z" />
    <glyph glyph-name="Zhecyrillic" unicode="&#x416;" horiz-adv-x="1075" 
d="M686.765 421.979c242.212 -7.94629 348.498 -267.699 348.519 -406.335l-62.5703 -15.6426c0 108.122 -76.4404 399.348 -304.511 406.376l-86.5566 -72.624v-318.089l-93.8564 -15.6426v338.278l-81.1748 68.0977
c-228.092 -7.02832 -304.512 -298.191 -304.512 -406.376l-62.5703 15.6426c0 138.636 106.266 398.409 348.478 406.335l-359.01 301.258l10.0527 11.9717l448.716 -376.468v360.825l93.8564 15.6426v-381.056l454.097 381.035l10.0527 -11.9717z" />
    <glyph glyph-name="Zecyrillic" unicode="&#x417;" horiz-adv-x="677" 
d="M481.022 434.889c85.2002 -27.7393 148.042 -88.9551 148.042 -200.227c0 -163.372 -165.375 -234.641 -344.14 -234.641c-188.755 0 -265.926 81.6963 -265.926 81.6963l20.4189 40.8379c65.0967 -65.8008 152.99 -104.069 245.507 -106.892
c158.346 0 234.641 116.799 234.641 218.998c0 134.402 -86.9941 203.355 -189.193 203.355h-108.018v15.6426h128.458c81.6758 0 137.468 43.4658 137.468 125.142c0 102.115 -106.287 140.784 -223.774 140.784c-61.3438 1.36035 -120.559 -22.5098 -163.81 -66.0332
l-20.4395 40.8379s56.585 40.8379 204.669 40.8379c158.346 0 297.211 -33.8926 297.211 -156.427c0 -92.3545 -50.1611 -130.627 -101.114 -143.913z" />
    <glyph glyph-name="Iicyrillic" unicode="&#x418;" horiz-adv-x="771" 
d="M596.21 719.56l93.8604 15.6504v-719.57l-93.8604 -15.6396v561.51l-422.35 -543.13v-2.74023l-93.8604 -15.6396v719.56l93.8604 15.6504v-691.35l422.35 543.14v132.56z" />
    <glyph glyph-name="Iishortcyrillic" unicode="&#x419;" horiz-adv-x="771" 
d="M502.35 891.66l15.6504 -62.5801c-82.8203 -12.4697 -166.561 -17.71 -250.291 -15.6396v31.29c172.07 0 234.641 46.9297 234.641 46.9297zM596.21 719.561l93.8604 15.6504v-719.57l-93.8604 -15.6396v561.51l-422.35 -543.13v-2.74023l-93.8604 -15.6396v719.56
l93.8604 15.6504v-691.35l422.35 543.14v132.56z" />
    <glyph glyph-name="Kacyrillic" unicode="&#x41a;" horiz-adv-x="667" 
d="M277.996 421.979c242.315 -7.94629 348.581 -267.698 348.498 -406.334l-62.5703 -15.6426c0 108.122 -76.4404 399.348 -304.511 406.376l-86.5566 -72.624v-318.089l-93.8564 -15.6426v719.563l93.8564 15.6426v-381.056l454.097 381.035l10.0742 -11.9717z" />
    <glyph glyph-name="Elcyrillic" unicode="&#x41b;" horiz-adv-x="678" 
d="M503.566 719.565l93.8574 15.665v-719.585l-93.8564 -15.6426v703.921h-315.336c-7.3623 -49.2637 -28.8037 -218.101 -28.8037 -516.209c0 -125.142 -62.5703 -187.712 -140.784 -187.712l-15.6426 15.6426c78.2139 0 140.784 46.9277 140.784 187.712
c0 328.496 31.2852 516.208 31.2852 516.208h328.496z" />
    <glyph glyph-name="Emcyrillic" unicode="&#x41c;" horiz-adv-x="896" 
d="M721.35 719.56l93.8604 15.6494v-719.57l-93.8604 -15.6396v684.28l-264.26 -457.69l9.63965 -16.71l-27.0898 -15.6396l-265.78 460.36v-638.96l-93.8604 -15.6396v719.56l93.8604 15.6504v-18.04l274.2 -474.94l273.29 473.33v4z" />
    <glyph glyph-name="Encyrillic" unicode="&#x41d;" horiz-adv-x="769" 
d="M595.209 719.565l93.8564 15.6641v-719.563l-93.8564 -15.6426v422.353c-147.813 0 -274.52 -62.5703 -422.354 -62.5703v-344.14l-93.8564 -15.6426v719.563l93.8564 15.6426v-359.803c147.834 0 274.54 62.5703 422.354 62.5703v281.568z" />
    <glyph glyph-name="Ocyrillic" unicode="&#x41e;" horiz-adv-x="845" 
d="M422.425 735.229c203.355 0 375.425 -109.499 375.425 -359.782s-172.069 -375.425 -375.425 -375.425s-375.425 125.142 -375.425 375.425s172.069 359.782 375.425 359.782zM453.71 15.665c187.712 0 250.282 187.712 250.282 359.781
c0 250.283 -172.069 344.14 -312.854 344.14c-187.712 0 -250.282 -172.069 -250.282 -344.139c0 -250.283 172.069 -359.782 312.854 -359.782z" />
    <glyph glyph-name="Pecyrillic" unicode="&#x41f;" horiz-adv-x="771" 
d="M596.21 719.56l93.8604 15.6504v-719.57l-93.8604 -15.6396v703.92h-422.35v-688.28l-93.8604 -15.6396v719.56l93.8604 15.6504v-15.6504h422.35z" />
    <glyph glyph-name="Ercyrillic" unicode="&#x420;" horiz-adv-x="687" 
d="M407.496 735.229c122.451 0 250.283 -62.5703 250.283 -187.712s-125.142 -187.712 -234.641 -187.712h-250.283v-344.14l-93.8564 -15.6426v719.563l93.8564 15.6426h234.641zM423.139 375.446c109.499 0 140.786 91.6025 140.786 172.068
c0.0888672 45.6631 -18.0117 89.4814 -50.3008 121.771s-76.1074 50.3896 -121.771 50.3008h-218.998v-344.14h250.283z" />
    <glyph glyph-name="Escyrillic" unicode="&#x421;" horiz-adv-x="726" 
d="M672.708 156.428l27.1143 -49.4307c-74.123 -71.8154 -174.247 -110.428 -277.396 -106.976c-203.355 0 -375.425 125.142 -375.425 375.425s172.069 359.782 375.425 359.782c82.5938 1.76172 163.705 -22.1084 232.179 -68.3271l-27.1143 -63.3008
c-57.2139 72.3818 -144.092 115.008 -236.351 115.964c-187.712 0 -250.282 -172.069 -250.282 -344.139c0 -250.283 172.069 -359.782 312.854 -359.782c93.6045 2.20996 178.126 56.5449 218.997 140.784z" />
    <glyph glyph-name="Tecyrillic" unicode="&#x422;" horiz-adv-x="624" 
d="M515.566 719.565l93.8564 15.6416v-93.8564l-93.8564 -15.6426v78.2139h-156.427v-688.278l-93.8564 -15.6426v703.921h-156.427v-62.5703l-93.8564 -15.6426v93.8564l93.8564 15.6426v-15.6426h156.427l93.8564 15.6426v-15.6426h156.427z" />
    <glyph glyph-name="Ucyrillic" unicode="&#x423;" horiz-adv-x="653" 
d="M628.67 734.96l13.5908 -7.7998l-384.35 -665.71c-16.6104 -29.96 -45.2305 -51.3896 -78.6406 -58.9092c-33.4199 -7.51953 -68.46 -0.419922 -96.2998 19.5303l14.5996 31.1396c32.3203 -26.3701 111.2 -55.6104 146.79 16.0596l110.18 190.88l-62.4004 -50.7002
l-271.14 466l73.5801 59.7803l268.12 -460.94z" />
    <glyph glyph-name="Efcyrillic" unicode="&#x424;" horiz-adv-x="1021" 
d="M697.993 735.229c156.427 0 281.568 -93.8545 281.568 -281.566s-125.142 -281.568 -281.568 -281.568c-48.6631 -0.665039 -96.8291 9.85254 -140.785 30.7432v-187.17l-93.8564 -15.6426v202.812c-43.9541 -20.8955 -92.1211 -31.4141 -140.784 -30.7441
c-156.427 0 -281.568 93.8564 -281.568 281.568s125.142 281.568 281.568 281.568c48.6631 0.669922 96.8301 -9.84863 140.784 -30.7441v15.1006l93.8564 15.6426v-30.7432c43.9561 20.8906 92.1221 31.4082 140.785 30.7432zM353.854 187.736
c39.8262 0.575195 78.335 14.3223 109.498 39.1279v432.572c-50.335 36.2637 -110.104 57.1572 -172.069 60.1514c-125.142 0 -156.427 -140.784 -156.427 -265.926c0 -187.712 125.142 -265.926 218.998 -265.926zM729.276 187.735
c125.142 0 156.427 140.784 156.427 265.926c0 187.712 -125.142 265.926 -218.998 265.926c-39.8193 -0.571289 -78.3262 -14.3242 -109.498 -39.1074v-432.572c50.334 -36.2686 110.103 -57.1689 172.069 -60.1719z" />
    <glyph glyph-name="Khacyrillic" unicode="&#x425;" horiz-adv-x="681" 
d="M656.239 76.1494l-57.3359 -77.6719l-284.029 338.487l-281.881 -335.942l-11.9932 10.0527l283.675 338.07l-258.688 308.266l57.3564 77.6709l262.589 -312.938l262.693 313.062l11.9717 -10.0527l-264.466 -315.169z" />
    <glyph glyph-name="Tsecyrillic" unicode="&#x426;" horiz-adv-x="829" 
d="M690.065 31.2861l125.142 0.0224609v-15.6426c-93.8564 0 -109.499 -78.2139 -109.499 -156.428l-46.9277 31.2852c0 62.6963 21.0859 104.285 67.6182 125.142h-552.542l-93.8564 -15.6426v719.563l93.8564 15.6426v-703.921h422.353v688.278l93.8564 15.6426v-703.942z
" />
    <glyph glyph-name="Checyrillic" unicode="&#x427;" horiz-adv-x="687" 
d="M513.281 719.565l93.8564 15.6641v-719.563l-93.8564 -15.6426v234.724c-273.393 1.75195 -469.281 50.3486 -469.281 234.557v250.283l93.8564 15.6426v-250.304c0 -183.896 120.49 -232.555 375.425 -234.453v469.093z" />
    <glyph glyph-name="Shacyrillic" unicode="&#x428;" horiz-adv-x="1066" 
d="M892.42 719.565l93.8564 15.6426v-719.563h-813.42l-93.8564 -15.6426v719.563l93.8564 15.6426v-703.921h312.854v688.278l93.8564 15.6426v-703.921h312.854v688.278z" />
    <glyph glyph-name="Shchacyrillic" unicode="&#x429;" horiz-adv-x="1138" 
d="M987.276 31.2861l140.784 0.0224609v-15.6426c-93.8564 0 -109.499 -78.2139 -109.499 -156.428l-46.9277 31.2852c0 62.6963 21.0859 104.285 67.6182 125.142h-865.396l-93.8564 -15.6426v719.563l93.8564 15.6426v-703.921h312.854v688.278l93.8564 15.6426v-703.921
h312.854v688.278l93.8564 15.6426v-703.942z" />
    <glyph glyph-name="Hardsigncyrillic" unicode="&#x42a;" horiz-adv-x="882" 
d="M582.137 437.996c139.471 0 265.927 -59.7109 265.927 -218.975s-116.632 -218.998 -375.425 -218.998c-79.6318 0 -203.355 15.6426 -203.355 15.6426l-93.8564 -15.6426v703.921c-93.8564 0 -109.499 -78.2139 -109.499 -156.428l-46.9277 31.2852
c0 93.8564 46.9277 140.784 156.427 140.784l93.8564 15.6426v-358.489c114.358 8.61426 191.153 61.2568 312.854 61.2568zM488.281 15.6455c199.059 0 265.925 103.825 265.925 203.354c0 124.099 -79.1309 196.139 -172.069 203.355
c-121.7 0 -198.495 -52.6426 -312.854 -61.2568v-329.811s139.366 -15.6426 218.998 -15.6426z" />
    <glyph glyph-name="Yericyrillic" unicode="&#x42b;" horiz-adv-x="956" 
d="M782.921 719.563l93.8564 15.6426v-719.563l-93.8564 -15.6426v719.563zM485.71 437.995c139.366 0 265.927 -59.7119 265.927 -218.976s-116.632 -218.998 -375.425 -218.998c-79.6318 0 -203.355 15.6426 -203.355 15.6426l-93.8564 -15.6426v719.563l93.8564 15.6426
v-358.489c114.358 8.61426 191.153 61.2568 312.854 61.2568zM391.854 15.6436c199.059 0 265.925 103.825 265.925 203.354c0 124.099 -79.1309 196.139 -172.069 203.355c-121.7 0 -198.495 -52.6426 -312.854 -61.2568v-329.811s139.366 -15.6426 218.998 -15.6426z" />
    <glyph glyph-name="Softsigncyrillic" unicode="&#x42c;" horiz-adv-x="785" 
d="M485.71 437.996c139.471 0 265.927 -59.7119 265.927 -218.976s-116.632 -218.998 -375.425 -218.998c-79.6318 0 -203.355 15.6426 -203.355 15.6426l-93.8564 -15.6426v719.563l93.8564 15.6426v-358.489c114.358 8.61426 191.153 61.2568 312.854 61.2568z
M391.854 15.6455c199.059 0 265.925 103.825 265.925 203.354c0 124.099 -79.1309 196.139 -172.069 203.355c-121.7 0 -198.495 -52.6426 -312.854 -61.2568v-329.811s139.366 -15.6426 218.998 -15.6426z" />
    <glyph glyph-name="Ereversedcyrillic" unicode="&#x42d;" horiz-adv-x="711" 
d="M287.75 735.229c203.355 0 375.343 -125.14 375.343 -375.423s-172.069 -359.782 -375.425 -359.782c-86.6396 0 -193.239 47.6162 -257.666 93.1465l27.1143 47.6377c66.4062 -75.8799 161.083 -121.129 261.838 -125.142c187.712 0 250.282 172.069 250.282 344.139
c-0.0957031 20.9268 -1.53125 41.8262 -4.29688 62.5703c-151.442 -1.25098 -281.84 -62.5703 -433.699 -62.5703v15.6426c151.15 0 281.047 60.7148 431.592 62.4248c-31.7861 194.949 -181.31 281.714 -306.451 281.714c-112.606 0 -167.898 -109.499 -172.069 -112.022
l-27.1143 49.4521c47.0117 46.9277 122.097 78.2129 230.553 78.2129z" />
    <glyph glyph-name="IUcyrillic" unicode="&#x42e;" horiz-adv-x="1066" 
d="M643.14 735.23c203.35 0 375.42 -109.521 375.42 -359.801c0 -250.29 -172.07 -375.43 -375.42 -375.43c-202.67 0 -374.16 124.37 -375.32 372.94c-31.04 -5.91016 -62.4297 -9.85059 -93.96 -11.7803v-345.5l-93.8604 -15.6396v719.57l93.8604 15.6396v-358.41
c31.7002 1.9502 63.2402 5.91992 94.4404 11.8701c6.12988 240.67 175.189 346.54 374.84 346.54zM674.42 15.6592c187.71 0 250.29 187.72 250.29 359.79c0 250.28 -172.07 344.141 -312.86 344.141c-187.71 0 -250.28 -172.07 -250.28 -344.141
c0 -250.29 172.07 -359.79 312.851 -359.79z" />
    <glyph glyph-name="IAcyrillic" unicode="&#x42f;" horiz-adv-x="713" 
d="M538.92 719.56l93.8613 15.6699v-719.59l-93.8604 -15.6396v359.78h-109.5c-234.64 0 -312.85 -250.28 -312.85 -359.78l-62.5703 15.6396c0 118.26 77.2998 291.689 250.41 344.14h-15.7695c-140.78 0 -234.641 62.5703 -234.641 187.721
c0 140.78 125.14 187.71 281.569 187.71c68.1504 2.12988 136.33 -3.11035 203.35 -15.6504zM288.642 375.43l250.279 -0.000976562v328.49c-61.8096 12.0703 -124.75 17.3105 -187.71 15.6406c-125.14 0 -203.35 -46.9199 -203.35 -172.06
c0 -80.4502 31.2803 -172.07 140.78 -172.07z" />
    <glyph glyph-name="acyrillic" unicode="&#x430;" horiz-adv-x="666" 
d="M510.281 547.517l93.8564 15.6426v-547.494l-93.8564 -15.6426v60.6934c-53.7275 -41.2197 -120.023 -62.6553 -187.713 -60.6934c-156.427 0 -281.568 93.8564 -281.568 281.568s125.142 281.568 281.568 281.568c67.6895 1.96191 133.985 -19.4736 187.713 -60.6934
v45.0508zM353.854 15.665c62.7305 2.62695 120.614 34.4629 156.426 86.0342v344.369c-57.0664 60.9561 -135.599 97.335 -218.997 101.448c-125.142 0 -156.427 -140.784 -156.427 -265.926c0 -187.712 125.142 -265.926 218.998 -265.926z" />
    <glyph glyph-name="becyrillic" unicode="&#x431;" horiz-adv-x="664" 
d="M339.568 563.18c156.427 0 281.569 -93.8555 281.569 -281.567s-125.142 -281.568 -281.568 -281.568s-281.568 93.8564 -281.568 281.568c0 406.71 125.142 531.852 265.926 531.852c172.069 0 234.64 46.9277 234.64 46.9277l15.6426 -62.5703
c-82.8145 -12.4766 -166.56 -17.7109 -250.283 -15.6436c-119.28 0 -204.835 -89.8936 -228.216 -345.642c48.4922 84.2832 139.053 126.644 243.858 126.644zM370.854 15.6865c125.142 0 156.427 140.784 156.427 265.926c0 187.712 -125.142 265.926 -218.998 265.926
c-125.142 0 -156.427 -140.784 -156.427 -265.926c0 -187.712 125.142 -265.926 218.998 -265.926z" />
    <glyph glyph-name="vecyrillic" unicode="&#x432;" horiz-adv-x="651" 
d="M483.35 331.02c70.54 -21.4199 125.081 -70.6406 125.151 -158.91c0 -125.14 -93.8604 -172.069 -297.221 -172.069c-52.4199 1.80957 -104.67 7.04004 -156.42 15.6504l-93.8604 -15.6504v547.5l93.8604 15.6396h219c95.21 0 203.35 -31.29 203.35 -125.14
c0 -74.9199 -49.8701 -99.9502 -93.8604 -107.021zM154.881 547.519v-203.36h234.64c62.5703 0 93.8604 31.29 93.8604 93.8604c0 78.21 -62.5801 109.5 -125.15 109.5h-203.35zM311.311 15.6582c156.42 0 203.271 78.2393 203.351 156.43
c0 102.95 -62.5703 156.431 -140.78 156.431h-219v-297.21c51.75 -8.61035 104 -13.8301 156.43 -15.6504z" />
    <glyph glyph-name="gecyrillic" unicode="&#x433;" horiz-adv-x="499" 
d="M389.496 547.537l93.8574 15.6426v-93.8564l-93.8564 -15.6426v78.2139h-234.641v-516.209l-93.8564 -15.6426v547.494h328.496z" />
    <glyph glyph-name="decyrillic" unicode="&#x434;" horiz-adv-x="668" 
d="M343.211 813.463c140.701 0 265.841 -125.141 265.924 -531.851c0 -187.712 -125.142 -281.568 -281.568 -281.568s-281.568 93.8564 -281.568 281.568s125.142 281.568 281.568 281.568c104.827 0 195.367 -42.3604 243.859 -126.644
c-23.3809 255.748 -108.936 345.642 -228.216 345.642c-172.069 0 -234.64 -78.2139 -234.64 -78.2139l-15.6426 62.5703s78.2139 46.9277 250.283 46.9277zM358.852 15.6865l-0.0830078 -0.0205078c125.142 0 156.427 140.805 156.51 265.946
c0 187.712 -125.142 265.926 -218.998 265.926c-125.142 0 -156.427 -140.784 -156.427 -265.926c0 -187.712 125.142 -265.926 218.998 -265.926z" />
    <glyph glyph-name="iecyrillic" unicode="&#x435;" horiz-adv-x="625" 
d="M353.854 15.665c63.9463 5.11523 121.82 39.8428 156.427 93.8584l15.5801 -31.3691c-46.9277 -46.9277 -138.302 -78.2129 -203.354 -78.2129c-147.458 0 -267.01 83.4277 -280.233 250.283c-0.813477 10.1367 -1.27246 20.5439 -1.27246 31.2852
c0 187.712 125.142 281.568 281.568 281.568c8.37012 -0.0136719 16.6436 -0.291992 24.8193 -0.833984c3.00293 -0.1875 5.92285 -0.583984 8.90527 -0.855469c5.08887 -0.479492 10.2197 -0.896484 15.2256 -1.58496c3.6084 -0.479492 7.1123 -1.16797 10.6787 -1.77246
c4.23438 -0.708984 8.53125 -1.37598 12.7031 -2.25195c3.83789 -0.792969 7.5918 -1.79395 11.3457 -2.73242s7.2998 -1.75195 11.2002 -2.87793s7.7168 -2.44043 11.5332 -3.71289c3.39941 -1.14746 6.82031 -2.25293 10.1572 -3.50391
c3.8584 -1.45996 7.6123 -3.06641 11.3662 -4.67285c3.10742 -1.37695 6.29883 -2.71191 9.36523 -4.17188c3.7334 -1.75195 7.3418 -3.65039 10.9707 -5.56934c2.96191 -1.58496 5.92383 -3.19141 8.82324 -4.88086c3.4834 -1.93945 6.88281 -4.06641 10.2412 -6.25684
c1.58496 -1.04297 3.25391 -1.93945 4.79688 -2.98242l-0.104492 -0.208984c56.9434 -39.6855 94.7715 -101.308 104.389 -170.047h-88.7041c-131.607 0 -245.194 -57.6904 -375.425 -62.1328v-0.438477c0 -187.712 125.142 -265.926 218.998 -265.926zM291.282 547.52
c-119.886 0 -153.592 -128.998 -156.157 -249.864c127.311 4.42188 238.791 59.5254 366.728 61.9033c-6.92773 32.9326 -20.0732 64.2422 -38.7314 92.25c-4.90527 7.24316 -10.2109 14.2061 -15.8926 20.8574c-1.08496 1.25098 -2.23242 2.35645 -3.31738 3.56641
c-4.76953 5.29785 -9.69824 10.2822 -14.7871 14.9541c-1.64746 1.52246 -3.29492 3.02441 -4.96387 4.48438c-5.86133 5.12207 -11.9883 9.93262 -18.3545 14.4121l-0.730469 0.541992c-6.50391 4.44043 -13.251 8.51367 -20.21 12.2012
c-1.75195 0.958984 -3.5459 1.83496 -5.31836 2.73145c-5.50586 2.77441 -11.0742 5.29785 -16.6846 7.5293c-1.48047 0.583984 -2.98242 1.27246 -4.48438 1.81445c-6.75391 2.53711 -13.6396 4.70898 -20.627 6.50684c-1.45996 0.375 -2.89941 0.625 -4.33887 0.958984
c-5.56152 1.30664 -11.123 2.34961 -16.6846 3.12793c-1.85645 0.271484 -3.7334 0.542969 -5.58984 0.751953c-6.58887 0.799805 -13.2178 1.22461 -19.8555 1.27246z" />
    <glyph glyph-name="zhecyrillic" unicode="&#x436;" horiz-adv-x="835" 
d="M540.207 327.079c158.68 -18.25 258.626 -221.729 258.563 -311.394l-68.8281 -15.6426c0 77.2539 -55 306.909 -207.047 312.582l-58.8789 -49.3896v-247.551l-93.8564 -15.6426v263.193l-58.8789 49.3896c-152.047 -5.67285 -207.047 -235.412 -207.047 -312.583
l-68.8281 15.6426c0 89.6221 99.8418 293.144 258.626 311.394l-268.032 224.921l10.0527 11.9717l280.609 -235.454h0.291992v-0.3125l53.1855 -44.6133v263.882l93.8564 15.6426v-279.482l53.1855 44.6133v0.271484h0.3125l280.692 235.454l10.0527 -11.9717z" />
    <glyph glyph-name="zecyrillic" unicode="&#x437;" horiz-adv-x="534" 
d="M366.998 331.021c70.5381 -21.4199 125.079 -70.6426 125.142 -158.909c0 -125.142 -129 -172.069 -265.926 -172.069c-144.643 0 -207.213 62.5703 -207.213 62.5703l15.6426 31.2852c52.3467 -48.3027 120.376 -76.0771 191.571 -78.2139
c121.283 0 172.069 78.2139 172.069 156.428c0 102.95 -62.5703 156.428 -140.784 156.428h-82.0723v15.6426h97.7148c62.5703 0 93.8555 31.2852 93.8555 93.8555c0 78.2139 -66.4297 109.499 -156.428 109.499c-47.3203 0.829102 -93.2725 -15.8877 -128.999 -46.9277
l-15.6426 31.2852s46.9277 31.2852 160.285 31.2852c121.283 0 234.641 -31.2852 234.641 -125.142c0 -74.918 -49.8691 -99.9463 -93.8564 -107.017z" />
    <glyph glyph-name="iicyrillic" unicode="&#x438;" horiz-adv-x="623" 
d="M467.71 547.537l93.8564 15.6426v-547.494l-93.8564 -15.6426v394.634l-312.854 -374.632v-4.35938l-93.8564 -15.6426v547.494l93.8564 15.6426v-518.732l312.854 374.653v128.437z" />
    <glyph glyph-name="iishortcyrillic" unicode="&#x439;" horiz-adv-x="624" 
d="M467.71 547.537l93.8564 15.6426v-547.494l-93.8564 -15.6426v394.634l-312.854 -374.632v-4.35938l-93.8564 -15.6426v547.494l93.8564 15.6426v-518.732l312.854 374.653v128.437zM436.508 719.606l15.6426 -62.5693
c-82.8145 -12.4766 -166.559 -17.7109 -250.282 -15.6436v31.2852c172.069 0 234.64 46.9277 234.64 46.9277z" />
    <glyph glyph-name="kacyrillic" unicode="&#x43a;" horiz-adv-x="550" 
d="M255.993 326.287c158.137 -18.2705 252.369 -221.793 252.39 -311.395l-62.5703 -14.8506c0 77.2539 -55 306.138 -207.047 311.79l-83.9072 -70.4131v-226.548l-93.8564 -15.6426v547.494l93.8564 15.6426v-300.548l78.2139 65.6367v0.271484h0.3125l280.588 235.454
l10.0527 -11.9717z" />
    <glyph glyph-name="elcyrillic" unicode="&#x43b;" horiz-adv-x="582" 
d="M426.353 547.517l93.8555 15.6416v-547.494l-93.8564 -15.6426v531.852h-252.14c-10.54 -114.397 -15.1416 -229.265 -13.7861 -344.139c0 -125.142 -62.5703 -187.712 -140.784 -187.712l-15.6426 15.6426c78.2139 0 140.784 46.9277 140.784 187.712
c-1.98438 114.928 3.24023 229.866 15.6436 344.14h265.926z" />
    <glyph glyph-name="emcyrillic" unicode="&#x43c;" horiz-adv-x="779" 
d="M624.137 547.537l93.8555 15.6416v-547.494l-93.8564 -15.6426v512.204l-225.15 -389.962l9.92773 -17.165l-27.0928 -15.6426l-226.965 393.091v-466.882l-93.8564 -15.6426v547.494l93.8564 15.6426v-18.041l235.1 -407.211l234.182 405.604v4.00488z" />
    <glyph glyph-name="encyrillic" unicode="&#x43d;" horiz-adv-x="623" 
d="M467.71 547.517l93.8564 15.6426v-547.494l-93.8564 -15.6426v359.782c-109.499 0 -203.355 -62.5703 -312.854 -62.5703v-281.568l-93.8564 -15.6426v547.494l93.8564 15.6426v-250.283c109.499 0 203.355 62.5703 312.854 62.5703v172.069z" />
    <glyph glyph-name="ocyrillic" unicode="&#x43e;" horiz-adv-x="646" 
d="M322.568 563.18c156.427 0 281.568 -93.8564 281.568 -281.568s-125.142 -281.568 -281.568 -281.568s-281.568 93.8564 -281.568 281.568s125.142 281.568 281.568 281.568zM353.854 15.6855c125.142 0 156.427 140.784 156.427 265.926
c0 187.712 -125.142 265.926 -218.998 265.926c-125.142 0 -156.427 -140.784 -156.427 -265.926c0 -187.712 125.142 -265.926 218.998 -265.926z" />
    <glyph glyph-name="pecyrillic" unicode="&#x43f;" horiz-adv-x="623" 
d="M467.71 547.537l93.8564 15.6426v-547.494l-93.8564 -15.6426v531.852h-312.854v-516.209l-93.8564 -15.6426v547.494h406.71z" />
    <glyph glyph-name="ercyrillic" unicode="&#x440;" horiz-adv-x="666" 
d="M342.568 563.18c156.427 0 281.568 -93.8779 281.568 -281.59s-125.142 -281.568 -281.568 -281.568c-67.6885 -1.95801 -133.983 19.4775 -187.712 60.6943v-232.764l-93.8564 -15.6426v719.563l93.8564 15.6426v-45.0303
c53.7285 41.2168 120.023 62.6523 187.712 60.6943zM373.854 15.6846c125.142 0 156.428 140.784 156.428 265.926c0 187.712 -125.142 265.926 -218.998 265.926c-62.7334 -2.61719 -120.622 -34.4561 -156.427 -86.0342v-344.369
c57.0664 -60.9561 135.599 -97.335 218.997 -101.448z" />
    <glyph glyph-name="escyrillic" unicode="&#x441;" horiz-adv-x="550" 
d="M510.322 109.521l15.5996 -31.2852c-46.9277 -46.9277 -138.302 -78.2129 -203.354 -78.2129c-156.427 0 -281.568 93.8564 -281.568 281.568s125.142 281.568 281.568 281.568c60.9785 1.4707 120.979 -15.5195 172.133 -48.7422l-30.2637 -64.3018
c-38.0928 59.0479 -102.87 95.4941 -173.113 97.4014c-125.142 0 -156.427 -140.784 -156.427 -265.926c0 -187.712 125.142 -265.926 218.998 -265.926c63.9463 5.11523 121.821 39.8398 156.428 93.8555z" />
    <glyph glyph-name="tecyrillic" unicode="&#x442;" horiz-adv-x="517" 
d="M508.566 547.537v-15.6426h-203.355v-516.209l-93.8564 -15.6426v531.852h-203.355v15.6426h203.355l93.8564 15.6426v-15.6426h203.355z" />
    <glyph glyph-name="ucyrillic" unicode="&#x443;" horiz-adv-x="548" 
d="M517.38 563.18l14.5996 -5.64941l-280.57 -686.93c-29.5498 -73.0195 -134.149 -67.7793 -172.959 -36.1592l14.5996 31.1396c32.3203 -26.3604 114.561 -59.0908 143.761 10.6787l81.5996 199.7l-59.6602 -42.5498l-241.75 474.48l77.1699 55.0996l234.81 -460.94z" />
    <glyph glyph-name="efcyrillic" unicode="&#x444;" horiz-adv-x="1021" 
d="M697.993 563.18c156.427 0 281.568 -93.875 281.568 -281.587s-125.142 -281.568 -281.568 -281.568c-48.6631 -0.665039 -96.8291 9.85254 -140.785 30.7432v-202.812l-93.8564 -15.6426v218.455c-43.9551 -20.8926 -92.1211 -31.4111 -140.784 -30.7441
c-156.427 0 -281.568 93.8564 -281.568 281.568s125.142 281.568 281.568 281.568c48.6631 0.666992 96.8291 -9.85156 140.784 -30.7441v155.885l93.8564 15.6426v-171.507c43.9561 20.8906 92.1221 31.4082 140.785 30.7432zM353.854 15.667
c39.8232 0.569336 78.332 14.3301 109.498 39.1279v432.552c-50.3301 36.2773 -110.101 57.1787 -172.069 60.1719c-125.142 0 -156.427 -140.784 -156.427 -265.926c0 -187.712 125.142 -265.926 218.998 -265.926zM729.277 15.667
c125.142 0 156.428 140.805 156.428 265.926c0 187.712 -125.142 265.926 -218.998 265.926c-39.8213 -0.563477 -78.3311 -14.3174 -109.499 -39.1074v-432.572c50.334 -36.2686 110.103 -57.1689 172.069 -60.1719z" />
    <glyph glyph-name="khacyrillic" unicode="&#x445;" horiz-adv-x="528" 
d="M501.414 68.0576l-60.9648 -73.3545l-202.771 241.648l-198.287 -236.309l-11.9932 10.0527l200.08 238.437l-202.479 241.294l60.9648 73.3535l202.771 -241.648l198.287 236.33l11.9932 -10.0742l-200.08 -238.415z" />
    <glyph glyph-name="tsecyrillic" unicode="&#x446;" horiz-adv-x="699" 
d="M561.566 31.3281l125.142 0.000976562v-15.6426c-93.8564 0 -109.499 -78.2139 -109.499 -156.428l-46.9277 31.2852c0 62.6963 21.0859 104.285 67.6182 125.142h-443.043l-93.8564 -15.6426v547.494l93.8564 15.6426v-531.852h312.854v516.209l93.8564 15.6426
v-531.852z" />
    <glyph glyph-name="checyrillic" unicode="&#x447;" horiz-adv-x="583" 
d="M428.067 547.517l93.8564 15.6426v-547.494l-93.8564 -15.6426v172.069c-281.568 0 -391.067 46.9277 -391.067 203.354v172.069l93.8564 15.6426v-172.069c0 -156.427 31.2852 -203.354 297.211 -203.354v359.782z" />
    <glyph glyph-name="shacyrillic" unicode="&#x448;" horiz-adv-x="873" 
d="M717.993 547.537l93.8555 15.6426v-547.494h-656.993l-93.8564 -15.6426v547.494l93.8564 15.6426v-531.852h234.641v516.209l93.8564 15.6426v-531.852h234.641v516.209z" />
    <glyph glyph-name="shchacyrillic" unicode="&#x449;" horiz-adv-x="962" 
d="M811.766 31.3281l140.867 0.000976562v-15.6426c-93.8564 0 -109.499 -78.2139 -109.499 -156.428l-46.9277 31.2852c0 62.6963 21.0859 104.285 67.6182 125.142h-708.969l-93.8564 -15.6426v547.494l93.8564 15.6426v-531.852h234.641v516.209l93.8564 15.6426
v-531.852h234.557v516.209l93.8564 15.6426v-531.852z" />
    <glyph glyph-name="hardsigncyrillic" unicode="&#x44a;" horiz-adv-x="706" 
d="M426.71 344.18c140.7 0 250.279 -46.9287 250.279 -172.068s-125.14 -172.069 -265.92 -172.069c-47.4404 -1.61035 -94.8604 3.64941 -140.79 15.6494l-93.8496 -15.6504v531.85c-93.8604 0 -109.5 -78.21 -109.5 -156.42l-46.9297 31.2803
c0 93.8604 46.9297 140.79 156.43 140.79l93.8496 15.6396v-241.82c29.3301 13.3896 78.2803 22.8193 156.431 22.8193zM411.069 15.6904l-0.0791016 -0.0302734c125.14 0 172.149 78.2402 172.149 156.45c0 102.95 -62.5703 156.431 -172.07 156.431
c-78.21 0 -127.69 -21.9004 -140.79 -46.9307v-250.28c45.9297 -11.9902 93.3496 -17.2598 140.79 -15.6396z" />
    <glyph glyph-name="yericyrillic" unicode="&#x44b;" horiz-adv-x="748" 
d="M311.283 344.182c140.867 0 250.282 -46.9277 250.282 -172.069s-125.142 -172.069 -265.926 -172.069c-47.4375 -1.61719 -94.8584 3.65137 -140.784 15.6416l-93.8564 -15.6426v547.494l93.8564 15.6426v-241.815c29.3252 13.3906 78.2764 22.8184 156.428 22.8184z
M295.641 15.6855l0.0839844 -0.0234375c125.142 0 171.986 78.2344 171.986 156.448c0 102.95 -62.5703 156.428 -172.069 156.428c-78.2139 0 -127.687 -21.8994 -140.785 -46.9277v-250.283c45.9258 -11.9902 93.3467 -17.2588 140.784 -15.6416zM592.853 547.534
l93.8564 15.6426v-547.494l-93.8564 -15.6426v547.494z" />
    <glyph glyph-name="softsigncyrillic" unicode="&#x44c;" horiz-adv-x="591" 
d="M311.283 344.182c140.867 0 250.282 -46.9277 250.282 -172.069s-125.142 -172.069 -265.926 -172.069c-47.4375 -1.61719 -94.8584 3.65137 -140.784 15.6416l-93.8564 -15.6426v547.494l93.8564 15.6426v-241.815c29.3252 13.3906 78.2764 22.8184 156.428 22.8184z
M295.641 15.6855l0.0839844 -0.0234375c125.142 0 171.986 78.2344 171.986 156.448c0 102.95 -62.5703 156.428 -172.069 156.428c-78.2139 0 -127.687 -21.8994 -140.785 -46.9277v-250.283c45.9258 -11.9902 93.3467 -17.2588 140.784 -15.6416z" />
    <glyph glyph-name="ereversedcyrillic" unicode="&#x44d;" horiz-adv-x="554" 
d="M231.355 563.18c156.427 0 281.568 -93.8535 281.568 -281.565s-125.142 -281.568 -281.568 -281.568c-58.8789 0 -140.784 31.2852 -203.354 78.2129l15.6426 31.2852c62.5703 -78.2139 166.208 -93.8564 218.997 -93.8564c125.142 0 156.427 140.784 156.427 265.926
c0.0439453 20.9102 -1.68652 41.7861 -5.17188 62.4033c-107.288 -1.91895 -199.914 -62.4043 -307.682 -62.4043v15.6426c106.767 0 198.62 59.2129 304.511 62.2793c-29.3252 131.503 -131.086 188.004 -210.655 188.004
c-51.7471 0.947266 -99.0742 -29.0508 -120.302 -76.2529l-20.4609 43.1943c51.1338 33.1943 111.103 50.1689 172.049 48.7002z" />
    <glyph glyph-name="iucyrillic" unicode="&#x44e;" horiz-adv-x="869" 
d="M545.924 563.18c156.427 0 281.61 -93.8545 281.61 -281.566s-125.351 -281.568 -281.569 -281.568s-281.193 93.6055 -281.568 280.733c-81.7178 -8.25977 -109.541 -81.9053 -109.541 -155.593v-109.499l-93.8564 -15.6426v547.494l93.8564 15.6426v-324.847
c25.5137 35.6416 66.3037 57.2109 110.125 58.2324c6.61133 177.555 128.812 266.613 280.943 266.613zM577.209 15.6875c125.142 0 156.427 140.784 156.427 265.926c0 187.712 -125.142 265.926 -218.998 265.926c-125.142 0 -156.427 -140.784 -156.427 -265.926
c0 -187.712 125.142 -265.926 218.998 -265.926z" />
    <glyph glyph-name="iacyrillic" unicode="&#x44f;" horiz-adv-x="604" 
d="M448.71 547.517l93.8564 15.6436v-547.494l-93.8564 -15.6426v218.998h-125.142c-203.355 0 -203.355 -140.784 -203.355 -218.998l-62.5703 15.6426c0 76.2109 41.2549 173.028 173.988 206.754c-110.375 12.5137 -189.631 62.2988 -189.631 168.669
c0 125.142 125.142 172.069 265.926 172.069c47.4375 1.61719 94.8584 -3.65137 140.784 -15.6416zM448.71 234.664l0.0830078 297.213c-45.9258 11.9902 -93.3467 17.2588 -140.784 15.6416c-125.142 0 -172.069 -78.2139 -172.069 -156.428
c0 -102.929 62.5703 -156.427 172.069 -156.427h140.701z" />
    <glyph glyph-name="iocyrillic" unicode="&#x451;" horiz-adv-x="627" 
d="M443.475 594.465c-25.918 0 -46.9287 21.0107 -46.9287 46.9287s21.0107 46.9287 46.9287 46.9287s46.9287 -21.0107 46.9287 -46.9287s-21.0107 -46.9287 -46.9287 -46.9287zM193.191 594.465c-25.918 0 -46.9287 21.0107 -46.9287 46.9287
s21.0107 46.9287 46.9287 46.9287s46.9287 -21.0107 46.9287 -46.9287s-21.0107 -46.9287 -46.9287 -46.9287zM354.77 15.6641c63.9385 5.09082 121.816 39.7861 156.445 93.7754l15.6426 -31.2852c-46.9277 -46.9277 -138.302 -78.2129 -203.354 -78.2129
c-147.458 0 -267.01 83.4277 -280.254 250.283c-0.792969 10.1367 -1.25195 20.5439 -1.25195 31.2852c0 187.712 125.142 281.568 281.568 281.568c8.35645 -0.0136719 16.623 -0.291992 24.7988 -0.833984c3.00293 -0.1875 5.94336 -0.583984 8.90527 -0.855469
c5.11035 -0.479492 10.2207 -0.896484 15.2471 -1.58496c3.6084 -0.479492 7.1123 -1.16797 10.6582 -1.77246c4.35938 -0.708984 8.84375 -1.45996 12.7021 -2.25293s7.6123 -1.79395 11.3662 -2.73242s7.2998 -1.75195 11.2002 -2.87793
s7.69629 -2.44043 11.5342 -3.71289c3.39941 -1.14746 6.82031 -2.25293 10.1367 -3.50391c3.8584 -1.45996 7.63379 -3.06641 11.3877 -4.67285c3.10742 -1.37695 6.29883 -2.71191 9.36523 -4.17188c3.71289 -1.75195 7.3418 -3.65039 10.9502 -5.56934
c2.98242 -1.58496 5.94434 -3.19141 8.84375 -4.88086c3.4834 -1.93945 6.8623 -4.06641 10.2412 -6.25684c1.56445 -1.04297 3.2334 -1.93945 4.79785 -2.98242l-0.104492 -0.208984c56.9434 -39.6855 94.7715 -101.308 104.389 -170.047h-88.7881
c-131.607 0 -245.194 -57.6904 -375.425 -62.1328v-0.438477c0 -187.712 125.142 -265.926 218.998 -265.926zM292.196 547.518c-119.781 0 -153.51 -128.998 -156.158 -249.864c127.311 4.42188 238.791 59.5254 366.748 61.9033
c-6.93652 32.9297 -20.0811 64.2373 -38.7305 92.25c-4.90527 7.24805 -10.2188 14.2119 -15.9141 20.8574c-1.06348 1.25098 -2.21094 2.35645 -3.2959 3.56641c-4.76953 5.29785 -9.69824 10.2822 -14.7871 14.9541c-1.64746 1.52246 -3.29492 3.02441 -4.96387 4.48438
c-5.86621 5.11719 -11.9922 9.92773 -18.3545 14.4121l-0.730469 0.541992c-6.50684 4.43555 -13.2539 8.50879 -20.21 12.2012c-1.77246 0.958984 -3.54492 1.83496 -5.33887 2.73145c-5.50586 2.77441 -11.0742 5.29785 -16.6846 7.5293
c-1.50195 0.583984 -2.98242 1.27246 -4.48438 1.81445c-6.75488 2.53418 -13.6406 4.70605 -20.627 6.50684c-1.45996 0.375 -2.89941 0.625 -4.33887 0.958984c-5.56152 1.30664 -11.123 2.34961 -16.6846 3.12793c-1.87695 0.271484 -3.7334 0.542969 -5.58984 0.751953
c-6.58887 0.799805 -13.2178 1.22461 -19.8555 1.27246z" />
    <glyph glyph-name="djecyrillic" unicode="&#x452;" horiz-adv-x="644" 
d="M367.86 563.18c125.14 0 218.991 -62.5713 218.991 -203.381v-391.06c0 -109.5 -78.21 -156.43 -172.07 -156.43l-31.2803 46.9297c78.21 0 109.5 31.2803 109.5 93.8506v406.71c0 112.84 -31.29 187.72 -140.79 187.72s-172.07 -93.8604 -172.07 -187.721v-344.14
l-93.8496 -15.6396v610.07h-31.29v15.6396h31.29v93.8604l93.8496 15.6396v-109.5h156.43v-15.6396h-156.43v-162.65c33.5801 72.8496 107.55 118.46 187.72 115.74z" />
    <glyph glyph-name="ecyrillic" unicode="&#x454;" horiz-adv-x="552" 
d="M322.57 563.18c58.8799 0 140.871 -31.2881 203.331 -78.2285l-15.6396 -31.29c-62.5703 78.21 -166.21 93.8604 -219 93.8604c-119.78 0 -153.48 -128.94 -156.15 -249.74c102.76 5.51953 192.8 62.0195 296.939 62.0195v-15.6201
c-104.25 0 -194.33 -56.5801 -297.19 -62.0303v-0.540039c0 -187.71 125.14 -265.92 218.989 -265.92c51.75 -0.950195 99.0801 29.0498 120.311 76.25l20.46 -43.2002c-51.1396 -33.1904 -111.109 -50.1709 -172.05 -48.7012c-156.43 0 -281.569 93.8604 -281.569 281.57
s125.14 281.57 281.569 281.57z" />
    <glyph glyph-name="dzecyrillic" unicode="&#x455;" horiz-adv-x="549" 
d="M290.221 312.896c63.2383 -12.6396 218.996 -46.9502 219.059 -156.428c0 -125.142 -78.2139 -156.427 -234.641 -156.427c-187.712 0 -234.64 93.8564 -234.64 93.8564l31.2852 46.9277s62.5703 -125.142 203.354 -125.142c109.499 0 140.784 62.5703 140.784 140.784
s-62.5703 125.142 -140.784 140.784c-61.3613 12.2852 -234.641 15.6436 -234.641 125.143s93.8564 140.784 234.641 140.784c78.1514 0 171.527 -16.2891 218.998 -48.7422l-30.2637 -64.3018c-44.3174 60.1113 -114.125 96.126 -188.796 97.4014
c-93.8564 0 -140.784 -46.9277 -140.784 -125.142c0 -86.5566 78.2139 -93.8564 156.428 -109.499z" />
    <glyph glyph-name="icyrillic" unicode="&#x456;" horiz-adv-x="230" 
d="M68 0.0429688v531.852l93.8564 15.6426v-531.852zM114.928 594.465c-25.918 0 -46.9287 21.0107 -46.9287 46.9287s21.0107 46.9287 46.9287 46.9287s46.9287 -21.0107 46.9287 -46.9287s-21.0107 -46.9287 -46.9287 -46.9287z" />
    <glyph glyph-name="yicyrillic" unicode="&#x457;" horiz-adv-x="287" 
d="M96.5703 0.0429688v531.852l93.8564 15.6426v-531.852zM206.069 594.465c-25.918 0 -46.9287 21.0107 -46.9287 46.9287s21.0107 46.9287 46.9287 46.9287s46.9287 -21.0107 46.9287 -46.9287s-21.0107 -46.9287 -46.9287 -46.9287zM80.9277 594.465
c-25.918 0 -46.9287 21.0107 -46.9287 46.9287s21.0107 46.9287 46.9287 46.9287s46.9287 -21.0107 46.9287 -46.9287s-21.0107 -46.9287 -46.9287 -46.9287z" />
    <glyph glyph-name="jecyrillic" unicode="&#x458;" horiz-adv-x="232" 
d="M68.4268 0.0429688v531.83l93.8564 15.6426v-531.831c0 -140.784 -62.5703 -203.354 -172.069 -203.354c-29.001 0.605469 -56.7949 11.7236 -78.2129 31.2861l31.2852 31.2852s15.6426 -46.9277 46.9277 -46.9277c62.5703 0 78.2129 62.5703 78.2129 172.069z
M115.271 594.465c-25.918 0 -46.9287 21.0107 -46.9287 46.9287s21.0107 46.9287 46.9287 46.9287s46.9287 -21.0107 46.9287 -46.9287s-21.0107 -46.9287 -46.9287 -46.9287z" />
    <glyph glyph-name="ljecyrillic" unicode="&#x459;" horiz-adv-x="956" 
d="M676.553 344.182c140.868 0 250.365 -46.9297 250.365 -172.071s-125.142 -172.069 -265.926 -172.069c-47.4375 -1.61719 -94.8584 3.65234 -140.784 15.6426l-93.8564 -15.6426v531.852h-252.14c-10.54 -114.397 -15.1416 -229.265 -13.7861 -344.139
c0 -125.142 -62.5703 -187.712 -140.784 -187.712l-15.6426 15.6426c78.2139 0 140.784 46.9277 140.784 187.712c-1.98438 114.928 3.24023 229.866 15.6426 344.14h265.843l93.8564 15.6426v-241.815c29.3252 13.3906 78.2764 22.8184 156.428 22.8184zM660.908 15.6836
l0.0839844 -0.0234375c125.142 0 171.986 78.2344 171.986 156.448c0 102.95 -62.5703 156.428 -172.069 156.428c-78.2139 0 -127.687 -21.8994 -140.785 -46.9277v-250.283c45.9258 -11.9902 93.3467 -17.2588 140.784 -15.6416z" />
    <glyph glyph-name="njecyrillic" unicode="&#x45a;" horiz-adv-x="998" 
d="M717.993 344.182c140.867 0 250.282 -46.9492 250.282 -172.091s-125.142 -172.069 -265.926 -172.069c-47.4375 -1.61719 -94.8584 3.65234 -140.784 15.6426l-93.8564 -15.6426v359.782c-109.499 0 -203.355 -62.5703 -312.854 -62.5703v-281.548l-93.8564 -15.6426
v547.494l93.8564 15.6426v-250.283c109.499 0 203.355 62.5703 312.854 62.5703v172.069l93.8564 15.6426v-241.815c29.3252 13.3906 78.2764 22.8184 156.428 22.8184zM702.434 15.6641c125.142 0 171.987 78.2324 172.07 156.425
c0 102.95 -62.5703 156.428 -172.069 156.428c-78.2139 0 -127.687 -21.8994 -140.785 -46.9277v-250.283c45.9258 -11.9902 93.3467 -17.2588 140.784 -15.6416z" />
    <glyph glyph-name="tshecyrillic" unicode="&#x45b;" horiz-adv-x="643" 
d="M367.86 563.18c125.14 0 218.99 -62.5713 218.99 -203.381v-344.14l-93.8496 -15.6396v359.78c0 112.84 -31.29 187.72 -140.79 187.72s-172.07 -93.8604 -172.07 -187.721v-344.14l-93.8496 -15.6396v610.07h-31.29v15.6396h31.29v93.8604l93.8496 15.6396v-109.5
h156.43v-15.6396h-156.43v-162.65c33.5801 72.8496 107.55 118.46 187.72 115.74z" />
    <glyph glyph-name="ushortcyrillic" unicode="&#x45e;" horiz-adv-x="551" 
d="M407.837 719.606l15.6436 -62.5693c-82.8145 -12.4766 -166.56 -17.7109 -250.283 -15.6436v31.2852c172.069 0 234.64 46.9277 234.64 46.9277zM518.4 563.181l14.6846 -5.58984l-280.672 -686.985c-29.5547 -73.0205 -134.152 -67.7852 -172.967 -36.166
l14.5996 31.1396c32.3281 -26.3633 114.567 -59.0879 143.767 10.6787l81.5918 199.705l-59.6504 -42.5479l-241.753 474.475l77.1914 55.1035l234.808 -460.938z" />
    <glyph glyph-name="dzhecyrillic" unicode="&#x45f;" horiz-adv-x="623" 
d="M467.71 547.517l93.8564 15.6436v-547.494h-125.142c-93.8564 0 -109.499 -78.2139 -109.499 -156.428l-46.9277 31.2852c0 62.6963 21.0859 104.285 67.6182 125.142h-192.76l-93.8564 -15.6426v547.494l93.8564 15.6426v-531.852h312.854v516.209z" />
    <glyph glyph-name="Gheupturncyrillic" unicode="&#x490;" horiz-adv-x="578" 
d="M470.067 829.063l93.8564 15.6426v-203.355l-93.8564 -15.6426v78.2139h-297.211v-688.278l-93.8564 -15.6426v719.563h391.067v109.499z" />
    <glyph glyph-name="gheupturncyrillic" unicode="&#x491;" horiz-adv-x="515" 
d="M393.496 657.036l93.8574 15.6426v-203.355l-93.8564 -15.6426v78.2139h-234.641v-516.209l-93.8564 -15.6426v547.494h328.496v109.499z" />
    <glyph glyph-name="Ghestrokecyrillic" unicode="&#x492;" horiz-adv-x="587" 
d="M478.271 719.565l93.8564 15.6416v-93.8564l-93.8564 -15.6426v78.2139h-297.211v-328.496h154.508v-15.6426h-154.508v-344.14l-93.8564 -15.6426v359.782h-33.2041v15.6426h33.2041v344.14h391.067z" />
    <glyph glyph-name="ghestrokecyrillic" unicode="&#x493;" horiz-adv-x="510" 
d="M401.092 547.537l93.8574 15.6426v-93.8564l-93.8564 -15.6426v78.2139h-234.641v-234.641h159.117v-15.6426h-159.117v-265.926l-93.8564 -15.6426v281.568h-28.5947v15.6426h28.5947v250.283h328.496z" />
    <glyph glyph-name="Zhedescendercyrillic" unicode="&#x496;" horiz-adv-x="1094" 
d="M1034.91 29.2598c12.0703 1.37988 24.21 2.06055 36.3496 2.03027v-15.6504c-93.8496 0 -109.5 -78.21 -109.5 -156.42l-46.9199 31.2803c0 58.0498 17.9805 98.0898 57.6006 120.24c-4.70996 115.49 -83.3799 388.82 -304.28 395.641l-86.5498 -72.6299v-318.09
l-93.8604 -15.6396v338.28l-81.1504 68.0996c-228.08 -7.03027 -304.521 -298.19 -304.521 -406.381l-62.5703 15.6396c0 138.64 106.29 398.409 348.5 406.339l-359.01 301.26l10.0498 11.9697l448.7 -376.47v360.83l93.8604 15.6396v-381.06l454.09 381.04
l10.0801 -11.9697l-359.01 -301.26c234.49 -7.67969 341.57 -251.39 348.141 -392.72z" />
    <glyph glyph-name="zhedescendercyrillic" unicode="&#x497;" horiz-adv-x="860" 
d="M799.06 28.6201c13.7197 1.84961 27.54 2.75977 41.3799 2.70996v-15.6396c-93.8496 0 -109.5 -78.2197 -109.5 -156.43l-46.9199 31.2803c0 60.1104 19.3701 100.87 61.9805 122.5c-6.7998 87.0996 -77.3994 294.199 -222.1 299.589l-58.8799 -49.3896v-247.55
l-93.8604 -15.6504v263.2l-58.8799 49.3896c-152.04 -5.67969 -207.04 -235.42 -207.04 -312.59l-68.8301 15.6504c0 89.6201 99.8398 293.14 258.62 311.39l-268.03 224.92l10.0498 11.9697l280.61 -235.45h0.299805v-0.30957l53.1797 -44.6201v263.88l93.8604 15.6504
v-279.49l53.1797 44.6201v0.269531h0.320312l280.58 235.45l10.0596 -11.9697l-268.04 -224.92c151.59 -17.4199 249.41 -203.65 257.96 -298.46z" />
    <glyph glyph-name="Zedescendercyrillic" unicode="&#x498;" horiz-adv-x="677" 
d="M629.106 234.662c0 -140.68 -122.662 -212.907 -270.871 -230.281c-73.75 -30.5137 -88.9551 -88.8506 -88.9551 -160.786l-46.9277 31.2852c0 67.6807 28.2822 100.613 82.3438 125.642c-6.59082 -0.1875 -13.1396 -0.5 -19.7725 -0.5
c-188.755 0 -265.926 81.6963 -265.926 81.6963l20.4189 40.8379c65.0967 -65.8008 152.99 -104.069 245.507 -106.892c158.325 0 234.641 116.799 234.641 218.998c0 134.402 -86.9941 203.355 -189.193 203.355h-108.018v15.6426h128.458
c81.6758 0 137.468 43.4658 137.468 125.142c0 102.115 -106.287 140.784 -223.774 140.784c-61.3438 1.36035 -120.559 -22.5098 -163.81 -66.0332l-20.4189 40.8379s56.5645 40.8379 204.648 40.8379c158.325 0 297.212 -33.8926 297.212 -156.427
c0 -92.3545 -50.1611 -130.627 -101.114 -143.913c85.2627 -27.7188 148.084 -88.9336 148.084 -200.227z" />
    <glyph glyph-name="zedescendercyrillic" unicode="&#x499;" horiz-adv-x="535" 
d="M493.14 172.092c0 -90.6445 -67.9102 -140.096 -157.198 -160.577c-91.0195 -27.8438 -108.728 -89.9346 -108.728 -167.919l-46.9277 31.2852c0 68.4521 28.9072 101.469 84.1777 126.497c-12.2217 -0.813477 -24.7363 -1.35547 -37.25 -1.35547
c-144.643 0 -207.213 62.5703 -207.213 62.5703l15.6426 31.2852c52.3467 -48.3027 120.376 -76.0771 191.571 -78.2139c121.283 0 172.069 78.2139 172.069 156.428c0 102.95 -62.5703 156.428 -140.784 156.428h-82.0723v15.6426h97.7148
c62.5703 0 93.8555 31.2852 93.8555 93.8555c0 78.2139 -66.4297 109.499 -156.428 109.499c-47.3203 0.829102 -93.2725 -15.8877 -128.999 -46.9277l-15.6426 31.2852s46.9277 31.2852 160.285 31.2852c121.283 0 234.641 -31.2852 234.641 -125.142
c0 -74.918 -49.8691 -99.9463 -93.8564 -107.017c70.6006 -21.4199 125.142 -70.6426 125.142 -158.909z" />
    <glyph glyph-name="Kabashkircyrillic" unicode="&#x4a0;" horiz-adv-x="708" 
d="M319.516 421.979c242.212 -7.94629 348.478 -267.697 348.478 -406.333l-62.5703 -15.6426c0 108.122 -76.4404 399.348 -304.511 406.376l-86.5566 -72.624v-318.089l-93.8564 -15.6426v660.622c-76.0029 12.4512 -109.499 58.0654 -109.499 137.155l46.9277 31.2852
c0 -62.7168 10.1777 -125.351 62.5703 -147.73v38.2305l93.8564 15.6426v-381.056l454.118 381.035l10.0527 -11.9717z" />
    <glyph glyph-name="kabashkircyrillic" unicode="&#x4a1;" horiz-adv-x="629" 
d="M328.49 326.287c158.68 -18.25 258.627 -221.773 258.647 -311.396l-46.9277 -15.6426c0 77.2539 -76.3574 306.931 -228.946 312.583l-83.9072 -70.4131v-226.548l-93.8564 -15.6426v504.988c-76.0029 12.4512 -109.499 58.0654 -109.499 137.155l46.9277 31.2852
c0 -62.7168 10.1777 -125.351 62.5703 -147.73v21.7959l93.8564 15.6426v-300.548l78.2139 65.6367v0.271484h0.3125l280.588 235.454l10.0527 -11.9717z" />
    <glyph glyph-name="Endescendercyrillic" unicode="&#x4a2;" horiz-adv-x="789" 
d="M690.065 15.665l62.5703 0.00195312v-15.6426c-93.8564 0 -109.499 -78.2139 -109.499 -156.428l-46.9277 31.2852c0 62.6963 21.0859 104.285 67.6182 125.142h-67.6182v422.353c-147.813 0 -274.52 -62.5703 -422.354 -62.5703v-344.14l-93.8564 -15.6426v719.563
l93.8564 15.6426v-359.782c147.834 0 274.54 62.5703 422.354 62.5703v281.568l93.8564 15.6426v-719.563z" />
    <glyph glyph-name="endescendercyrillic" unicode="&#x4a3;" horiz-adv-x="654" 
d="M561.57 15.6602h62.5693v-15.6396c-93.8604 0 -109.5 -78.21 -109.5 -156.43l-46.9297 31.29c0 62.7002 21.0898 104.29 67.6201 125.14h-67.6201v359.78c-109.5 0 -203.35 -62.5703 -312.85 -62.5703v-281.57l-93.8604 -15.6396v547.5l93.8604 15.6396v-250.28
c109.5 0 203.35 62.5703 312.85 62.5703v172.07l93.8604 15.6396v-547.5z" />
    <glyph glyph-name="Ustraightcyrillic" unicode="&#x4ae;" horiz-adv-x="646" 
d="M635.97 727.14l-266.239 -461.15l0.30957 -0.0595703v-250.29l-93.8496 -15.6396v226.53l-261.19 448.51l73.3496 60.1699l268.26 -460.65l265.82 460.4z" />
    <glyph glyph-name="ustraightcyrillic" unicode="&#x4af;" horiz-adv-x="549" 
d="M517.379 563.18l14.7051 -5.50684l-202.208 -494.914v-187.712c0 -62.5703 -55.9385 -72.1436 -94.7529 -40.5244l14.5996 31.1396c32.3281 -26.3633 64.4893 -21.8994 64.4893 9.38574v198.016l-55.459 -39.6279l-241.753 474.475l77.1709 55.1035l234.808 -460.938z
" />
    <glyph glyph-name="Shhacyrillic" unicode="&#x4ba;" horiz-adv-x="745" 
d="M413.295 563.138c157.657 0 275.77 -62.5684 275.77 -203.332v-344.14l-93.8564 -15.6426v359.782c0 112.836 -63.7383 187.712 -201.623 187.712s-220.729 -93.8564 -220.729 -187.713v-344.14l-93.8564 -15.6426v719.563l93.8564 15.6426v-295.668
c33.4756 68.2021 119.469 123.577 240.438 123.577z" />
    <glyph glyph-name="shhacyrillic" unicode="&#x4bb;" horiz-adv-x="636" 
d="M360.568 563.18c125.142 0 218.997 -62.5693 218.997 -203.374v-344.14l-93.8564 -15.6426v359.782c0 112.836 -31.2852 187.712 -140.784 187.712s-172.069 -93.8564 -172.069 -187.713v-344.14l-93.8564 -15.6426v719.563l93.8564 15.6426v-287.784
c33.5723 72.8447 107.551 118.456 187.713 115.735z" />
    <glyph glyph-name="Schwacyrillic" unicode="&#x4d8;" horiz-adv-x="827" 
d="M404.465 735.229c203.355 0 375.424 -109.498 375.424 -359.781s-172.069 -375.425 -375.425 -375.425c-194.699 0 -360.679 114.713 -374.465 344.139h92.8965l0.833984 2.08594c0.0419922 -0.730469 0.208984 -1.37695 0.208984 -2.08594
c196.181 0.271484 364.684 62.2793 560.738 62.5713c-13.8906 226.568 -176.804 312.854 -311.498 312.854c-113.774 0 -187.712 -62.5703 -218.997 -140.784l-27.9902 57.2734c69.3496 67.7012 169.316 99.1533 278.273 99.1533zM435.749 15.666
c187.712 0 250.283 187.713 250.283 359.782c0 5.42285 -0.521484 10.3662 -0.688477 15.6426c-195.93 -0.1875 -364.099 -62.0078 -559.841 -62.5713c20.1895 -216.808 178.66 -312.854 310.246 -312.854z" />
    <glyph glyph-name="schwacyrillic" unicode="&#x4d9;" horiz-adv-x="625" 
d="M582.67 312.9c0.799805 -10.1396 1.33984 -20.5322 1.32031 -31.3125c0 -187.71 -125.14 -281.57 -281.569 -281.57c-8.37012 0.0195312 -16.6396 0.289062 -24.7998 0.838867c-3.01953 0.200195 -5.93945 0.600586 -8.92969 0.870117
c-5.08984 0.459961 -10.2197 0.879883 -15.2197 1.57031c-3.61035 0.480469 -7.11035 1.16016 -10.6602 1.77051c-4.36035 0.709961 -8.53027 1.37988 -12.7002 2.25c-3.83984 0.820312 -7.58984 1.80078 -11.3496 2.73047c-3.75 0.94043 -7.32031 1.78027 -11.2207 2.90039
c-3.90039 1.12988 -7.69043 2.41992 -11.5107 3.68945c-3.41992 1.15039 -6.83984 2.26074 -10.1797 3.53027c-3.86035 1.44043 -7.59082 3.04004 -11.3711 4.65039c-3.09961 1.37988 -6.2998 2.70996 -9.35938 4.16992c-3.74023 1.76953 -7.33984 3.64941 -10.9502 5.56934
c-2.98047 1.58984 -5.9502 3.18945 -8.83984 4.89941c-3.49023 2.03027 -6.87012 4.16992 -10.25 6.36035c-1.55957 1.03027 -3.22949 1.91992 -4.78906 2.99023v0.200195c-56.9102 39.7002 -94.7002 101.311 -104.29 170.03h88.71c131.6 0 245.189 57.6904 375.42 62.1309
v0.44043c0 187.71 -125.14 265.93 -219 265.93c-63.9404 -5.12012 -121.82 -39.8398 -156.42 -93.8594l-15.6504 31.29c46.9297 46.9199 138.31 78.21 203.359 78.21c147.46 0 267.01 -83.4297 280.25 -250.279zM333.729 15.6572c119.74 0 153.421 129.069 156.171 249.869
c-127.33 -4.41992 -238.79 -59.5 -366.75 -61.9004c6.94043 -32.9297 20.0908 -64.2393 38.7412 -92.249c4.90039 -7.25 10.21 -14.21 15.9102 -20.8604c1.05957 -1.23047 2.20996 -2.34082 3.29004 -3.57129c4.76953 -5.26953 9.69922 -10.25 14.7891 -14.9502
c1.65039 -1.5 3.30078 -3.03027 4.9707 -4.45996c5.86035 -5.12988 11.9805 -9.93945 18.3506 -14.4199l0.730469 -0.55957c6.50977 -4.42969 13.2598 -8.5 20.21 -12.2002c1.76953 -0.94043 3.5498 -1.82031 5.31934 -2.70996
c5.55957 -2.78027 11.1191 -5.29004 16.6787 -7.53027c1.50977 -0.610352 2.99023 -1.27051 4.49023 -1.84082c6.75977 -2.51953 13.6396 -4.69922 20.6299 -6.49902c1.45996 -0.360352 2.90039 -0.629883 4.33008 -0.959961
c5.57031 -1.2998 11.1299 -2.33984 16.6895 -3.12988c1.87988 -0.269531 3.72949 -0.539062 5.58984 -0.749023c6.58984 -0.790039 13.2197 -1.21973 19.8594 -1.2793z" />
    <glyph glyph-name="Obarredcyrillic" unicode="&#x4e8;" horiz-adv-x="845" 
d="M422.425 735.229c203.355 0 375.425 -109.499 375.425 -359.782s-172.069 -375.425 -375.425 -375.425s-375.425 125.142 -375.425 375.425s172.069 359.782 375.425 359.782zM391.14 719.586c-187.712 0 -250.282 -172.07 -250.282 -344.14
c195.638 0 363.557 61.6533 558.777 62.5713c-26.3428 203.188 -180.184 281.568 -308.495 281.568zM453.71 15.6641c187.712 0 250.283 187.712 250.283 359.823c0 16.3105 -0.792969 31.8906 -2.21094 46.8867c-195.909 -0.521484 -364.183 -62.4248 -560.237 -62.5713
c7.1543 -238.937 174.51 -344.139 312.165 -344.139z" />
    <glyph glyph-name="obarredcyrillic" unicode="&#x4e9;" horiz-adv-x="646" 
d="M322.568 563.18c156.427 0 281.568 -93.8564 281.568 -281.568s-125.142 -281.568 -281.568 -281.568s-281.568 93.8564 -281.568 281.568s125.142 281.568 281.568 281.568zM291.283 547.537c-119.844 0 -153.507 -129.021 -156.052 -249.845
c127.29 4.42188 238.771 59.5049 366.707 61.9033c-29.3457 131.44 -131.086 187.941 -210.655 187.941zM353.854 15.6855c125.142 0 156.426 140.785 156.426 265.927c0.0439453 20.917 -1.68652 41.7998 -5.17188 62.4248
c-129.417 -1.50195 -241.752 -57.6074 -370.252 -61.9873v-0.438477c0 -187.712 125.142 -265.926 218.998 -265.926z" />
    <glyph glyph-name="endash" unicode="&#x2013;" horiz-adv-x="553" 
d="M509.215 270h-466.215v62.5703h466.215v-62.5703z" />
    <glyph glyph-name="quoteleft" unicode="&#x2018;" horiz-adv-x="200" 
d="M146.86 719.59c-27.4502 0 -42.8213 -12.1602 -46.2412 -46.9902c25.8301 -0.379883 46.5 -21.5703 46.2305 -47.4102c-0.259766 -25.8301 -21.3496 -46.5898 -47.1895 -46.4502c-25.8301 0.150391 -46.6904 21.1504 -46.6602 46.9902
c0 62.5703 31.29 109.5 93.8604 109.5v-15.6396z" />
    <glyph glyph-name="quoteright" unicode="&#x2019;" horiz-adv-x="200" 
d="M100.281 735.23c12.46 0 24.4092 -4.94922 33.209 -13.7695c8.7998 -8.80957 13.7402 -20.7695 13.7207 -33.2197c0 -62.5703 -31.2803 -109.5 -93.8506 -109.5v15.6396c27.4404 0 42.9004 12.1602 46.21 46.9902c-25.9102 0.200195 -46.7598 21.3701 -46.5693 47.2803
c0.200195 25.9199 21.3701 46.7695 47.2803 46.5791z" />
    <glyph glyph-name="quotedblleft" unicode="&#x201c;" horiz-adv-x="341" 
d="M53 625.73c0 62.5703 31.2881 109.5 93.8584 109.5v-15.6396c-27.4697 0 -42.8994 -12.1602 -46.2393 -46.9902c25.8301 -0.379883 46.5 -21.5703 46.2402 -47.4102c-0.269531 -25.8301 -21.3594 -46.5898 -47.1992 -46.4502
c-25.8301 0.150391 -46.6904 21.1504 -46.6602 46.9902zM287.558 719.591c-27.4502 0 -42.8213 -12.1602 -46.2412 -46.9902c25.8301 -0.379883 46.5 -21.5703 46.2402 -47.4102c-0.269531 -25.8301 -21.3594 -46.5898 -47.1992 -46.4502
c-25.8301 0.150391 -46.6904 21.1504 -46.6602 46.9902c0 62.5703 31.29 109.5 93.8604 109.5v-15.6396z" />
    <glyph glyph-name="quotedblright" unicode="&#x201d;" horiz-adv-x="341" 
d="M241.151 735.23c12.46 0 24.3994 -4.94922 33.209 -13.7695c8.7998 -8.80957 13.7402 -20.7695 13.7207 -33.2197c0 -62.5703 -31.29 -109.5 -93.8604 -109.5v15.6396c27.4502 0 42.9102 12.1602 46.2197 46.9902c-25.9199 0.200195 -46.7695 21.3701 -46.5693 47.2803
c0.19043 25.9199 21.3604 46.7695 47.2803 46.5791zM100.28 735.231c12.46 0 24.4092 -4.94922 33.209 -13.7695c8.7998 -8.80957 13.7402 -20.7695 13.7207 -33.2197c0 -62.5703 -31.2803 -109.5 -93.8506 -109.5v15.6396c27.4404 0 42.9004 12.1602 46.21 46.9902
c-25.9102 0.200195 -46.7598 21.3701 -46.5693 47.2803c0.200195 25.9199 21.3701 46.7695 47.2803 46.5791z" />
    <glyph glyph-name="Euro" unicode="&#x20ac;" horiz-adv-x="902" 
d="M814.062 156.449l26.9902 -49.4541c-74.125 -71.8135 -174.248 -110.425 -277.397 -106.975c-180.851 0 -336.631 99.2373 -368.959 297.211h-135.695v15.6426h133.484c-2.77148 20.7432 -4.21387 41.6426 -4.31836 62.5703
c0.0986328 20.9297 1.55469 41.8301 4.3584 62.5713h-133.484v15.6426h135.841c32.5371 194.846 188.213 281.568 368.896 281.568c82.5635 1.74805 163.643 -22.1133 232.097 -68.3057l-27.1143 -63.3008c-57.2275 72.3652 -144.097 114.987 -236.351 115.965
c-159.014 0 -228.029 -123.557 -245.466 -265.926h335.233v-15.6426h-337.173c-1.98145 -20.6484 -2.94043 -41.7139 -2.94043 -62.5703c0.0957031 -20.9277 1.53809 -41.8281 4.31738 -62.5713h335.797v-15.6426h-333.523
c31.8281 -194.846 181.268 -281.568 306.409 -281.568c93.6035 2.21484 178.123 56.5488 218.998 140.785z" />
    <glyph glyph-name="uni20bd" unicode="&#x20bd;" horiz-adv-x="802" 
d="M504.521 359.782l-250.282 -0.000976562v-103.889h253.85v-15.6426h-253.85v-224.608l-93.8564 -15.6426v240.251h-97.3809v15.6426h97.3809v103.889h-97.3809v15.6426h97.3809v344.14l93.8564 15.6426h234.641c122.43 0 250.282 -62.5703 250.282 -187.712
s-125.142 -187.712 -234.641 -187.712zM254.238 719.563l0.00195312 -344.141h250.283c109.499 0 140.784 91.624 140.784 172.069c0.0888672 45.6631 -18.0117 89.4814 -50.3008 121.771s-76.1074 50.3896 -121.771 50.3008h-218.998z" />
    <glyph glyph-name="decyrillic.alt1" unicode="&#xf000;" horiz-adv-x="652" 
d="M569.137 12.499h46.9277v-93.8564l-93.8564 -15.6426v93.8564h-422.353v-78.2139l-93.8564 -15.6426v109.499h46.9277c78.2139 0 140.784 46.9277 140.784 187.712c-1.98438 114.928 3.24023 229.866 15.6436 344.14h265.926l93.8564 15.6426v-547.494zM130.87 12.499
l344.411 -0.000976562v516.209h-252.14c-10.5518 -114.396 -15.1533 -229.265 -13.7861 -344.139c0 -89.2256 -31.8906 -146.457 -78.4854 -172.069z" />
    </font>
</defs>
</svg>
