<?xml version="1.0" encoding="UTF-8"?><svg id="_Слой_2" xmlns="http://www.w3.org/2000/svg" viewBox="0 0 116.54 116.54" fill="#f2f0f0"><g id="_Слой_1-2"><g><path d="M48.98,65.18c-1.73,.74-3.52,1.38-5.18,2.25-2.05,1.08-3.77,.89-5.68-.43-3.8-2.6-7.73-5.01-11.63-7.46-1.31-.82-2.06-1.89-1.89-3.48,.17-1.54,1.12-2.39,2.52-2.93,18.78-7.34,37.56-14.7,56.32-22.07,1.37-.54,2.67-.66,3.87,.32,1.19,.97,1.43,2.22,1.16,3.7-2.11,11.48-4.18,22.96-6.27,34.44-.8,4.39-1.6,8.78-2.4,13.17-.51,2.79-2.7,3.91-5.25,2.65-4.75-2.36-9.5-4.73-14.23-7.13-.64-.32-1.01-.31-1.53,.22-2.01,2.07-4.08,4.08-6.11,6.14-1.14,1.16-2.44,1.68-4,1.03-1.56-.65-2.11-1.91-2.09-3.56,.04-3.91,.07-7.81-.02-11.72-.04-1.72,.4-3.11,1.75-4.18,.3-.23,.61-.44,.91-.67-.08-.1-.17-.21-.25-.31Zm31.83-25.79c-15.19,5.95-30.21,11.82-45.46,17.8,2.08,1.33,3.95,2.54,5.86,3.7,.22,.13,.67,0,.97-.12,1.65-.69,3.29-1.42,4.93-2.13,5.22-2.27,10.44-4.52,15.65-6.81,1.45-.64,2.8-.66,4.01,.48,1.53,1.43,1.51,3.43-.08,5.03-4.22,4.24-8.46,8.46-12.68,12.7-.26,.26-.6,.59-.63,.91-.08,1.03-.03,2.07-.03,3.09,.16,.02,.2,.04,.22,.02,.91-.88,1.8-1.77,2.72-2.64,1.25-1.18,2.51-1.39,4.06-.67,.8,.37,1.58,.78,2.36,1.17,3.68,1.83,7.35,3.67,11.16,5.57,2.31-12.7,4.6-25.29,6.92-38.08Z"/><path d="M58.27,116.54C26.14,116.54,0,90.39,0,58.26S26.14,0,58.27,0s58.27,26.13,58.27,58.26-26.14,58.29-58.27,58.29Zm0-108.14C30.78,8.4,8.41,30.76,8.41,58.26s22.37,49.88,49.86,49.88,49.87-22.38,49.87-49.88S85.77,8.4,58.27,8.4Z"/></g></g></svg>