<?xml version="1.0" encoding="UTF-8"?><svg id="_Слой_2" xmlns="http://www.w3.org/2000/svg" viewBox="0 0 116.54 116.55" fill="#f2f0f0"><defs><style>.cls-1{fill-rule:evenodd;}</style></defs><g id="_Слой_1-2"><g><path d="M58.27,116.55C26.14,116.55,0,90.41,0,58.27S26.14,0,58.27,0s58.27,26.14,58.27,58.27-26.14,58.28-58.27,58.28Zm0-108.14C30.78,8.41,8.41,30.77,8.41,58.27s22.37,49.89,49.86,49.89,49.87-22.39,49.87-49.89S85.77,8.41,58.27,8.41Z"/><g><path class="cls-1" d="M89.56,50.74c-3.53-14.63-16.11-24.6-31.32-24.78-2,.03-4.1,.19-6.17,.64-21.21,4.29-32.21,27.81-21.87,46.8,.27,.51,.29,.91,.14,1.45-1.38,5.01-2.74,10.01-4.11,15q-.22,.81,.6,.61c5.19-1.36,10.38-2.71,15.56-4.09,.44-.12,.77-.07,1.16,.12,6.68,3.42,13.72,4.42,21.09,2.99,17.61-3.41,29.12-21.32,24.92-38.75Zm-26.83,33.61c-1.45,.25-2.91,.38-3.67,.36-5.64,0-10.24-1.28-14.47-3.84-.54-.33-1.01-.41-1.64-.24-2.84,.79-5.71,1.49-8.56,2.24-.6,.18-.66,.06-.5-.49,.76-2.71,1.47-5.4,2.24-8.07,.22-.76,.14-1.33-.29-2-5.85-9.41-5.6-21.13,.94-29.83,6.8-9.06,16.05-12.77,27.12-10.4,10.91,2.3,17.86,9.34,20.42,20.18,3.49,14.84-6.58,29.6-21.58,32.09Z"/><path class="cls-1" d="M66.64,73.43c-1.15,.05-2.24-.21-3.33-.51-7.36-2.11-12.89-6.73-17.34-12.8-1.68-2.28-3.23-4.65-3.75-7.49-.62-3.41,.36-6.3,2.9-8.66,.81-.74,3.27-1.07,4.26-.6,.37,.18,.6,.51,.75,.86,.93,2.22,1.85,4.4,2.76,6.62,.17,.42,.1,.84-.09,1.26-.47,1.02-1.22,1.84-1.98,2.64-.58,.59-.6,1.13-.18,1.83,2.6,4.33,6.2,7.49,10.91,9.38,.7,.27,1.23,.17,1.7-.41,.78-.97,1.61-1.94,2.35-2.94,.51-.71,1.09-.81,1.81-.47,1.56,.71,3.11,1.44,4.67,2.18,.35,.16,.69,.33,1.04,.49,1.57,.8,1.56,.81,1.42,2.56-.26,3.39-2.81,5.06-5.83,5.9-.66,.18-1.37,.2-2.07,.16Z"/></g></g></g></svg>