<?xml version="1.0" encoding="UTF-8"?><svg id="_Слой_2" xmlns="http://www.w3.org/2000/svg" viewBox="0 0 116.54 116.54" fill="#f2f0f0"><defs><style>.cls-1{fill-rule:evenodd;}</style></defs><g id="_Слой_1-2"><g><path d="M58.27,116.54C26.14,116.54,0,90.39,0,58.26S26.14,0,58.27,0s58.27,26.13,58.27,58.26-26.14,58.29-58.27,58.29Zm0-108.14C30.78,8.4,8.41,30.76,8.41,58.26s22.37,49.88,49.86,49.88,49.87-22.38,49.87-49.88S85.77,8.4,58.27,8.4Z"/><g><path class="cls-1" d="M73.78,86.82c-2.13,.07-4.17-.4-6.21-.99-13.73-3.93-24.02-12.5-32.3-23.8-3.13-4.28-6.03-8.67-6.99-13.99-1.14-6.34,.68-11.75,5.4-16.1,1.52-1.41,6.1-2.02,7.94-1.12,.68,.33,1.12,.94,1.4,1.6,1.73,4.08,3.45,8.18,5.14,12.3,.32,.77,.18,1.56-.18,2.35-.86,1.9-2.26,3.4-3.69,4.92-1.09,1.12-1.12,2.12-.33,3.45,4.85,8.04,11.55,13.92,20.32,17.43,1.31,.52,2.3,.37,3.17-.76,1.45-1.82,3.01-3.59,4.39-5.48,.94-1.29,2.03-1.49,3.36-.9,2.91,1.35,5.8,2.72,8.7,4.08,.65,.32,1.29,.62,1.93,.95,2.94,1.45,2.9,1.49,2.65,4.72-.49,6.34-5.24,9.45-10.86,11.01-1.24,.32-2.56,.38-3.85,.32Z"/><g><path class="cls-1" d="M79.26,37.88c2.32,2.05,3.94,4.63,5.27,7.41,1.06,2.22,1.72,4.54,2.13,6.96,.08,.47,.3,1.02-.17,1.47-1.32,.07-2.64,.12-3.94,.26-.51,.07-.66-.07-.73-.57-.58-4.53-2.45-8.53-5.58-11.84-4.55-4.82-10.18-7.18-16.83-7.01-.17,0-.34,.02-.86,.04-.04-1.49-.07-2.98-.11-4.47,.29-.52,.81-.42,1.26-.42,2.74-.06,5.43,.3,8.07,1.09,2.15,.63,4.2,1.51,6.11,2.71,.58,.37,1.14,.76,1.66,1.23,.44,.36,1.3,1.1,1.74,1.46,.49,.42,1.49,1.26,1.98,1.69Z"/><path class="cls-1" d="M72.82,41.62c3.62,3.14,5.86,7.11,6.61,11.91,.08,.56-.04,.76-.64,.79-1.17,.05-2.33,.16-3.5,.29-.36,.02-.49-.03-.54-.45-.61-4.17-2.68-7.48-6.13-9.9-2.54-1.77-5.4-2.64-8.52-2.54-.5,.02-.67-.1-.69-.61-.06-1.2-.17-2.4-.31-3.58-.04-.41,.06-.52,.48-.52,4.98-.15,9.37,1.4,13.24,4.61Z"/><path class="cls-1" d="M67.9,55.2c-.53-3.89-3.52-6.56-7.35-6.61-.36,0-.52-.04-.54-.45-.08-1.18-.19-2.38-.32-3.56-.05-.37,.03-.48,.4-.49,5.77-.38,11.66,4.57,12.25,10.35,.05,.35-.1,.37-.37,.42-1.34,.09-2.68,.23-4.07,.34Z"/></g></g></g></g></svg>